<?xml version="1.0" encoding="utf-8" standalone="no"?>
<!DOCTYPE svg PUBLIC "-//W3C//DTD SVG 1.1//EN"
  "http://www.w3.org/Graphics/SVG/1.1/DTD/svg11.dtd">
<svg height="703.44pt" version="1.1" viewBox="0 0 1382.4 703.44" width="1382.4pt" xmlns="http://www.w3.org/2000/svg" xmlns:xlink="http://www.w3.org/1999/xlink">
 <metadata>
  <rdf:RDF xmlns:cc="http://creativecommons.org/ns#" xmlns:dc="http://purl.org/dc/elements/1.1/" xmlns:rdf="http://www.w3.org/1999/02/22-rdf-syntax-ns#">
   <cc:Work>
    <dc:type rdf:resource="http://purl.org/dc/dcmitype/StillImage"/>
    <dc:date>2022-01-13T00:22:39.813979</dc:date>
    <dc:format>image/svg+xml</dc:format>
    <dc:creator>
     <cc:Agent>
      <dc:title>Matplotlib v3.4.3, https://matplotlib.org/</dc:title>
     </cc:Agent>
    </dc:creator>
   </cc:Work>
  </rdf:RDF>
 </metadata>
 <defs>
  <style type="text/css">*{stroke-linecap:butt;stroke-linejoin:round;}</style>
 </defs>
 <g id="figure_1">
  <g id="patch_1">
   <path d="M 0 703.44 
L 1382.4 703.44 
L 1382.4 0 
L 0 0 
z
" style="fill:#ffffff;"/>
  </g>
  <g id="axes_1">
   <g id="patch_2">
    <path d="M 189.978641 618.033917 
L 675 618.033917 
L 675 73.580312 
L 189.978641 73.580312 
z
" style="fill:#ffffff;"/>
   </g>
   <g id="matplotlib.axis_1">
    <g id="xtick_1">
     <g id="line2d_1">
      <path clip-path="url(#p3ac2e45912)" d="M 258.438593 618.033917 
L 258.438593 73.580312 
" style="fill:none;stroke:#b0b0b0;stroke-linecap:square;stroke-width:0.8;"/>
     </g>
     <g id="line2d_2">
      <defs>
       <path d="M 0 0 
L 0 3.5 
" id="m15ec3d037c" style="stroke:#000000;stroke-width:0.8;"/>
      </defs>
      <g>
       <use style="stroke:#000000;stroke-width:0.8;" x="258.438593" xlink:href="#m15ec3d037c" y="618.033917"/>
      </g>
     </g>
     <g id="text_1">
      <!-- 3 -->
      <g transform="translate(255.257343 632.632354)scale(0.1 -0.1)">
       <defs>
        <path d="M 2597 2516 
Q 3050 2419 3304 2112 
Q 3559 1806 3559 1356 
Q 3559 666 3084 287 
Q 2609 -91 1734 -91 
Q 1441 -91 1130 -33 
Q 819 25 488 141 
L 488 750 
Q 750 597 1062 519 
Q 1375 441 1716 441 
Q 2309 441 2620 675 
Q 2931 909 2931 1356 
Q 2931 1769 2642 2001 
Q 2353 2234 1838 2234 
L 1294 2234 
L 1294 2753 
L 1863 2753 
Q 2328 2753 2575 2939 
Q 2822 3125 2822 3475 
Q 2822 3834 2567 4026 
Q 2313 4219 1838 4219 
Q 1578 4219 1281 4162 
Q 984 4106 628 3988 
L 628 4550 
Q 988 4650 1302 4700 
Q 1616 4750 1894 4750 
Q 2613 4750 3031 4423 
Q 3450 4097 3450 3541 
Q 3450 3153 3228 2886 
Q 3006 2619 2597 2516 
z
" id="DejaVuSans-33" transform="scale(0.015625)"/>
       </defs>
       <use xlink:href="#DejaVuSans-33"/>
      </g>
     </g>
    </g>
    <g id="xtick_2">
     <g id="line2d_3">
      <path clip-path="url(#p3ac2e45912)" d="M 328.058884 618.033917 
L 328.058884 73.580312 
" style="fill:none;stroke:#b0b0b0;stroke-linecap:square;stroke-width:0.8;"/>
     </g>
     <g id="line2d_4">
      <g>
       <use style="stroke:#000000;stroke-width:0.8;" x="328.058884" xlink:href="#m15ec3d037c" y="618.033917"/>
      </g>
     </g>
     <g id="text_2">
      <!-- 6 -->
      <g transform="translate(324.877634 632.632354)scale(0.1 -0.1)">
       <defs>
        <path d="M 2113 2584 
Q 1688 2584 1439 2293 
Q 1191 2003 1191 1497 
Q 1191 994 1439 701 
Q 1688 409 2113 409 
Q 2538 409 2786 701 
Q 3034 994 3034 1497 
Q 3034 2003 2786 2293 
Q 2538 2584 2113 2584 
z
M 3366 4563 
L 3366 3988 
Q 3128 4100 2886 4159 
Q 2644 4219 2406 4219 
Q 1781 4219 1451 3797 
Q 1122 3375 1075 2522 
Q 1259 2794 1537 2939 
Q 1816 3084 2150 3084 
Q 2853 3084 3261 2657 
Q 3669 2231 3669 1497 
Q 3669 778 3244 343 
Q 2819 -91 2113 -91 
Q 1303 -91 875 529 
Q 447 1150 447 2328 
Q 447 3434 972 4092 
Q 1497 4750 2381 4750 
Q 2619 4750 2861 4703 
Q 3103 4656 3366 4563 
z
" id="DejaVuSans-36" transform="scale(0.015625)"/>
       </defs>
       <use xlink:href="#DejaVuSans-36"/>
      </g>
     </g>
    </g>
    <g id="xtick_3">
     <g id="line2d_5">
      <path clip-path="url(#p3ac2e45912)" d="M 397.679175 618.033917 
L 397.679175 73.580312 
" style="fill:none;stroke:#b0b0b0;stroke-linecap:square;stroke-width:0.8;"/>
     </g>
     <g id="line2d_6">
      <g>
       <use style="stroke:#000000;stroke-width:0.8;" x="397.679175" xlink:href="#m15ec3d037c" y="618.033917"/>
      </g>
     </g>
     <g id="text_3">
      <!-- 9 -->
      <g transform="translate(394.497925 632.632354)scale(0.1 -0.1)">
       <defs>
        <path d="M 703 97 
L 703 672 
Q 941 559 1184 500 
Q 1428 441 1663 441 
Q 2288 441 2617 861 
Q 2947 1281 2994 2138 
Q 2813 1869 2534 1725 
Q 2256 1581 1919 1581 
Q 1219 1581 811 2004 
Q 403 2428 403 3163 
Q 403 3881 828 4315 
Q 1253 4750 1959 4750 
Q 2769 4750 3195 4129 
Q 3622 3509 3622 2328 
Q 3622 1225 3098 567 
Q 2575 -91 1691 -91 
Q 1453 -91 1209 -44 
Q 966 3 703 97 
z
M 1959 2075 
Q 2384 2075 2632 2365 
Q 2881 2656 2881 3163 
Q 2881 3666 2632 3958 
Q 2384 4250 1959 4250 
Q 1534 4250 1286 3958 
Q 1038 3666 1038 3163 
Q 1038 2656 1286 2365 
Q 1534 2075 1959 2075 
z
" id="DejaVuSans-39" transform="scale(0.015625)"/>
       </defs>
       <use xlink:href="#DejaVuSans-39"/>
      </g>
     </g>
    </g>
    <g id="xtick_4">
     <g id="line2d_7">
      <path clip-path="url(#p3ac2e45912)" d="M 467.299466 618.033917 
L 467.299466 73.580312 
" style="fill:none;stroke:#b0b0b0;stroke-linecap:square;stroke-width:0.8;"/>
     </g>
     <g id="line2d_8">
      <g>
       <use style="stroke:#000000;stroke-width:0.8;" x="467.299466" xlink:href="#m15ec3d037c" y="618.033917"/>
      </g>
     </g>
     <g id="text_4">
      <!-- 12 -->
      <g transform="translate(460.936966 632.632354)scale(0.1 -0.1)">
       <defs>
        <path d="M 794 531 
L 1825 531 
L 1825 4091 
L 703 3866 
L 703 4441 
L 1819 4666 
L 2450 4666 
L 2450 531 
L 3481 531 
L 3481 0 
L 794 0 
L 794 531 
z
" id="DejaVuSans-31" transform="scale(0.015625)"/>
        <path d="M 1228 531 
L 3431 531 
L 3431 0 
L 469 0 
L 469 531 
Q 828 903 1448 1529 
Q 2069 2156 2228 2338 
Q 2531 2678 2651 2914 
Q 2772 3150 2772 3378 
Q 2772 3750 2511 3984 
Q 2250 4219 1831 4219 
Q 1534 4219 1204 4116 
Q 875 4013 500 3803 
L 500 4441 
Q 881 4594 1212 4672 
Q 1544 4750 1819 4750 
Q 2544 4750 2975 4387 
Q 3406 4025 3406 3419 
Q 3406 3131 3298 2873 
Q 3191 2616 2906 2266 
Q 2828 2175 2409 1742 
Q 1991 1309 1228 531 
z
" id="DejaVuSans-32" transform="scale(0.015625)"/>
       </defs>
       <use xlink:href="#DejaVuSans-31"/>
       <use x="63.623047" xlink:href="#DejaVuSans-32"/>
      </g>
     </g>
    </g>
    <g id="xtick_5">
     <g id="line2d_9">
      <path clip-path="url(#p3ac2e45912)" d="M 536.919757 618.033917 
L 536.919757 73.580312 
" style="fill:none;stroke:#b0b0b0;stroke-linecap:square;stroke-width:0.8;"/>
     </g>
     <g id="line2d_10">
      <g>
       <use style="stroke:#000000;stroke-width:0.8;" x="536.919757" xlink:href="#m15ec3d037c" y="618.033917"/>
      </g>
     </g>
     <g id="text_5">
      <!-- 15 -->
      <g transform="translate(530.557257 632.632354)scale(0.1 -0.1)">
       <defs>
        <path d="M 691 4666 
L 3169 4666 
L 3169 4134 
L 1269 4134 
L 1269 2991 
Q 1406 3038 1543 3061 
Q 1681 3084 1819 3084 
Q 2600 3084 3056 2656 
Q 3513 2228 3513 1497 
Q 3513 744 3044 326 
Q 2575 -91 1722 -91 
Q 1428 -91 1123 -41 
Q 819 9 494 109 
L 494 744 
Q 775 591 1075 516 
Q 1375 441 1709 441 
Q 2250 441 2565 725 
Q 2881 1009 2881 1497 
Q 2881 1984 2565 2268 
Q 2250 2553 1709 2553 
Q 1456 2553 1204 2497 
Q 953 2441 691 2322 
L 691 4666 
z
" id="DejaVuSans-35" transform="scale(0.015625)"/>
       </defs>
       <use xlink:href="#DejaVuSans-31"/>
       <use x="63.623047" xlink:href="#DejaVuSans-35"/>
      </g>
     </g>
    </g>
    <g id="xtick_6">
     <g id="line2d_11">
      <path clip-path="url(#p3ac2e45912)" d="M 606.540047 618.033917 
L 606.540047 73.580312 
" style="fill:none;stroke:#b0b0b0;stroke-linecap:square;stroke-width:0.8;"/>
     </g>
     <g id="line2d_12">
      <g>
       <use style="stroke:#000000;stroke-width:0.8;" x="606.540047" xlink:href="#m15ec3d037c" y="618.033917"/>
      </g>
     </g>
     <g id="text_6">
      <!-- 18 -->
      <g transform="translate(600.177547 632.632354)scale(0.1 -0.1)">
       <defs>
        <path d="M 2034 2216 
Q 1584 2216 1326 1975 
Q 1069 1734 1069 1313 
Q 1069 891 1326 650 
Q 1584 409 2034 409 
Q 2484 409 2743 651 
Q 3003 894 3003 1313 
Q 3003 1734 2745 1975 
Q 2488 2216 2034 2216 
z
M 1403 2484 
Q 997 2584 770 2862 
Q 544 3141 544 3541 
Q 544 4100 942 4425 
Q 1341 4750 2034 4750 
Q 2731 4750 3128 4425 
Q 3525 4100 3525 3541 
Q 3525 3141 3298 2862 
Q 3072 2584 2669 2484 
Q 3125 2378 3379 2068 
Q 3634 1759 3634 1313 
Q 3634 634 3220 271 
Q 2806 -91 2034 -91 
Q 1263 -91 848 271 
Q 434 634 434 1313 
Q 434 1759 690 2068 
Q 947 2378 1403 2484 
z
M 1172 3481 
Q 1172 3119 1398 2916 
Q 1625 2713 2034 2713 
Q 2441 2713 2670 2916 
Q 2900 3119 2900 3481 
Q 2900 3844 2670 4047 
Q 2441 4250 2034 4250 
Q 1625 4250 1398 4047 
Q 1172 3844 1172 3481 
z
" id="DejaVuSans-38" transform="scale(0.015625)"/>
       </defs>
       <use xlink:href="#DejaVuSans-31"/>
       <use x="63.623047" xlink:href="#DejaVuSans-38"/>
      </g>
     </g>
    </g>
    <g id="text_7">
     <!-- iteracja -->
     <g transform="translate(413.741664 646.310479)scale(0.1 -0.1)">
      <defs>
       <path d="M 603 3500 
L 1178 3500 
L 1178 0 
L 603 0 
L 603 3500 
z
M 603 4863 
L 1178 4863 
L 1178 4134 
L 603 4134 
L 603 4863 
z
" id="DejaVuSans-69" transform="scale(0.015625)"/>
       <path d="M 1172 4494 
L 1172 3500 
L 2356 3500 
L 2356 3053 
L 1172 3053 
L 1172 1153 
Q 1172 725 1289 603 
Q 1406 481 1766 481 
L 2356 481 
L 2356 0 
L 1766 0 
Q 1100 0 847 248 
Q 594 497 594 1153 
L 594 3053 
L 172 3053 
L 172 3500 
L 594 3500 
L 594 4494 
L 1172 4494 
z
" id="DejaVuSans-74" transform="scale(0.015625)"/>
       <path d="M 3597 1894 
L 3597 1613 
L 953 1613 
Q 991 1019 1311 708 
Q 1631 397 2203 397 
Q 2534 397 2845 478 
Q 3156 559 3463 722 
L 3463 178 
Q 3153 47 2828 -22 
Q 2503 -91 2169 -91 
Q 1331 -91 842 396 
Q 353 884 353 1716 
Q 353 2575 817 3079 
Q 1281 3584 2069 3584 
Q 2775 3584 3186 3129 
Q 3597 2675 3597 1894 
z
M 3022 2063 
Q 3016 2534 2758 2815 
Q 2500 3097 2075 3097 
Q 1594 3097 1305 2825 
Q 1016 2553 972 2059 
L 3022 2063 
z
" id="DejaVuSans-65" transform="scale(0.015625)"/>
       <path d="M 2631 2963 
Q 2534 3019 2420 3045 
Q 2306 3072 2169 3072 
Q 1681 3072 1420 2755 
Q 1159 2438 1159 1844 
L 1159 0 
L 581 0 
L 581 3500 
L 1159 3500 
L 1159 2956 
Q 1341 3275 1631 3429 
Q 1922 3584 2338 3584 
Q 2397 3584 2469 3576 
Q 2541 3569 2628 3553 
L 2631 2963 
z
" id="DejaVuSans-72" transform="scale(0.015625)"/>
       <path d="M 2194 1759 
Q 1497 1759 1228 1600 
Q 959 1441 959 1056 
Q 959 750 1161 570 
Q 1363 391 1709 391 
Q 2188 391 2477 730 
Q 2766 1069 2766 1631 
L 2766 1759 
L 2194 1759 
z
M 3341 1997 
L 3341 0 
L 2766 0 
L 2766 531 
Q 2569 213 2275 61 
Q 1981 -91 1556 -91 
Q 1019 -91 701 211 
Q 384 513 384 1019 
Q 384 1609 779 1909 
Q 1175 2209 1959 2209 
L 2766 2209 
L 2766 2266 
Q 2766 2663 2505 2880 
Q 2244 3097 1772 3097 
Q 1472 3097 1187 3025 
Q 903 2953 641 2809 
L 641 3341 
Q 956 3463 1253 3523 
Q 1550 3584 1831 3584 
Q 2591 3584 2966 3190 
Q 3341 2797 3341 1997 
z
" id="DejaVuSans-61" transform="scale(0.015625)"/>
       <path d="M 3122 3366 
L 3122 2828 
Q 2878 2963 2633 3030 
Q 2388 3097 2138 3097 
Q 1578 3097 1268 2742 
Q 959 2388 959 1747 
Q 959 1106 1268 751 
Q 1578 397 2138 397 
Q 2388 397 2633 464 
Q 2878 531 3122 666 
L 3122 134 
Q 2881 22 2623 -34 
Q 2366 -91 2075 -91 
Q 1284 -91 818 406 
Q 353 903 353 1747 
Q 353 2603 823 3093 
Q 1294 3584 2113 3584 
Q 2378 3584 2631 3529 
Q 2884 3475 3122 3366 
z
" id="DejaVuSans-63" transform="scale(0.015625)"/>
       <path d="M 603 3500 
L 1178 3500 
L 1178 -63 
Q 1178 -731 923 -1031 
Q 669 -1331 103 -1331 
L -116 -1331 
L -116 -844 
L 38 -844 
Q 366 -844 484 -692 
Q 603 -541 603 -63 
L 603 3500 
z
M 603 4863 
L 1178 4863 
L 1178 4134 
L 603 4134 
L 603 4863 
z
" id="DejaVuSans-6a" transform="scale(0.015625)"/>
      </defs>
      <use xlink:href="#DejaVuSans-69"/>
      <use x="27.783203" xlink:href="#DejaVuSans-74"/>
      <use x="66.992188" xlink:href="#DejaVuSans-65"/>
      <use x="128.515625" xlink:href="#DejaVuSans-72"/>
      <use x="169.628906" xlink:href="#DejaVuSans-61"/>
      <use x="230.908203" xlink:href="#DejaVuSans-63"/>
      <use x="285.888672" xlink:href="#DejaVuSans-6a"/>
      <use x="313.671875" xlink:href="#DejaVuSans-61"/>
     </g>
    </g>
   </g>
   <g id="matplotlib.axis_2">
    <g id="ytick_1">
     <g id="line2d_13">
      <path clip-path="url(#p3ac2e45912)" d="M 189.978641 84.97329 
L 675 84.97329 
" style="fill:none;stroke:#b0b0b0;stroke-linecap:square;stroke-width:0.8;"/>
     </g>
     <g id="line2d_14">
      <defs>
       <path d="M 0 0 
L -3.5 0 
" id="m940c5ea813" style="stroke:#000000;stroke-width:0.8;"/>
      </defs>
      <g>
       <use style="stroke:#000000;stroke-width:0.8;" x="189.978641" xlink:href="#m940c5ea813" y="84.97329"/>
      </g>
     </g>
     <g id="text_8">
      <!-- $\mathdefault{10^{0}}$ -->
      <g transform="translate(165.378641 88.772509)scale(0.1 -0.1)">
       <defs>
        <path d="M 2034 4250 
Q 1547 4250 1301 3770 
Q 1056 3291 1056 2328 
Q 1056 1369 1301 889 
Q 1547 409 2034 409 
Q 2525 409 2770 889 
Q 3016 1369 3016 2328 
Q 3016 3291 2770 3770 
Q 2525 4250 2034 4250 
z
M 2034 4750 
Q 2819 4750 3233 4129 
Q 3647 3509 3647 2328 
Q 3647 1150 3233 529 
Q 2819 -91 2034 -91 
Q 1250 -91 836 529 
Q 422 1150 422 2328 
Q 422 3509 836 4129 
Q 1250 4750 2034 4750 
z
" id="DejaVuSans-30" transform="scale(0.015625)"/>
       </defs>
       <use transform="translate(0 0.765625)" xlink:href="#DejaVuSans-31"/>
       <use transform="translate(63.623047 0.765625)" xlink:href="#DejaVuSans-30"/>
       <use transform="translate(128.203125 39.046875)scale(0.7)" xlink:href="#DejaVuSans-30"/>
      </g>
     </g>
    </g>
    <g id="ytick_2">
     <g id="line2d_15">
      <path clip-path="url(#p3ac2e45912)" d="M 189.978641 151.605869 
L 675 151.605869 
" style="fill:none;stroke:#b0b0b0;stroke-linecap:square;stroke-width:0.8;"/>
     </g>
     <g id="line2d_16">
      <g>
       <use style="stroke:#000000;stroke-width:0.8;" x="189.978641" xlink:href="#m940c5ea813" y="151.605869"/>
      </g>
     </g>
     <g id="text_9">
      <!-- $\mathdefault{10^{-2}}$ -->
      <g transform="translate(159.478641 155.405087)scale(0.1 -0.1)">
       <defs>
        <path d="M 678 2272 
L 4684 2272 
L 4684 1741 
L 678 1741 
L 678 2272 
z
" id="DejaVuSans-2212" transform="scale(0.015625)"/>
       </defs>
       <use transform="translate(0 0.765625)" xlink:href="#DejaVuSans-31"/>
       <use transform="translate(63.623047 0.765625)" xlink:href="#DejaVuSans-30"/>
       <use transform="translate(128.203125 39.046875)scale(0.7)" xlink:href="#DejaVuSans-2212"/>
       <use transform="translate(186.855469 39.046875)scale(0.7)" xlink:href="#DejaVuSans-32"/>
      </g>
     </g>
    </g>
    <g id="ytick_3">
     <g id="line2d_17">
      <path clip-path="url(#p3ac2e45912)" d="M 189.978641 218.238447 
L 675 218.238447 
" style="fill:none;stroke:#b0b0b0;stroke-linecap:square;stroke-width:0.8;"/>
     </g>
     <g id="line2d_18">
      <g>
       <use style="stroke:#000000;stroke-width:0.8;" x="189.978641" xlink:href="#m940c5ea813" y="218.238447"/>
      </g>
     </g>
     <g id="text_10">
      <!-- $\mathdefault{10^{-4}}$ -->
      <g transform="translate(159.478641 222.037666)scale(0.1 -0.1)">
       <defs>
        <path d="M 2419 4116 
L 825 1625 
L 2419 1625 
L 2419 4116 
z
M 2253 4666 
L 3047 4666 
L 3047 1625 
L 3713 1625 
L 3713 1100 
L 3047 1100 
L 3047 0 
L 2419 0 
L 2419 1100 
L 313 1100 
L 313 1709 
L 2253 4666 
z
" id="DejaVuSans-34" transform="scale(0.015625)"/>
       </defs>
       <use transform="translate(0 0.684375)" xlink:href="#DejaVuSans-31"/>
       <use transform="translate(63.623047 0.684375)" xlink:href="#DejaVuSans-30"/>
       <use transform="translate(128.203125 38.965625)scale(0.7)" xlink:href="#DejaVuSans-2212"/>
       <use transform="translate(186.855469 38.965625)scale(0.7)" xlink:href="#DejaVuSans-34"/>
      </g>
     </g>
    </g>
    <g id="ytick_4">
     <g id="line2d_19">
      <path clip-path="url(#p3ac2e45912)" d="M 189.978641 284.871025 
L 675 284.871025 
" style="fill:none;stroke:#b0b0b0;stroke-linecap:square;stroke-width:0.8;"/>
     </g>
     <g id="line2d_20">
      <g>
       <use style="stroke:#000000;stroke-width:0.8;" x="189.978641" xlink:href="#m940c5ea813" y="284.871025"/>
      </g>
     </g>
     <g id="text_11">
      <!-- $\mathdefault{10^{-6}}$ -->
      <g transform="translate(159.478641 288.670244)scale(0.1 -0.1)">
       <use transform="translate(0 0.765625)" xlink:href="#DejaVuSans-31"/>
       <use transform="translate(63.623047 0.765625)" xlink:href="#DejaVuSans-30"/>
       <use transform="translate(128.203125 39.046875)scale(0.7)" xlink:href="#DejaVuSans-2212"/>
       <use transform="translate(186.855469 39.046875)scale(0.7)" xlink:href="#DejaVuSans-36"/>
      </g>
     </g>
    </g>
    <g id="ytick_5">
     <g id="line2d_21">
      <path clip-path="url(#p3ac2e45912)" d="M 189.978641 351.503604 
L 675 351.503604 
" style="fill:none;stroke:#b0b0b0;stroke-linecap:square;stroke-width:0.8;"/>
     </g>
     <g id="line2d_22">
      <g>
       <use style="stroke:#000000;stroke-width:0.8;" x="189.978641" xlink:href="#m940c5ea813" y="351.503604"/>
      </g>
     </g>
     <g id="text_12">
      <!-- $\mathdefault{10^{-8}}$ -->
      <g transform="translate(159.478641 355.302822)scale(0.1 -0.1)">
       <use transform="translate(0 0.765625)" xlink:href="#DejaVuSans-31"/>
       <use transform="translate(63.623047 0.765625)" xlink:href="#DejaVuSans-30"/>
       <use transform="translate(128.203125 39.046875)scale(0.7)" xlink:href="#DejaVuSans-2212"/>
       <use transform="translate(186.855469 39.046875)scale(0.7)" xlink:href="#DejaVuSans-38"/>
      </g>
     </g>
    </g>
    <g id="ytick_6">
     <g id="line2d_23">
      <path clip-path="url(#p3ac2e45912)" d="M 189.978641 418.136182 
L 675 418.136182 
" style="fill:none;stroke:#b0b0b0;stroke-linecap:square;stroke-width:0.8;"/>
     </g>
     <g id="line2d_24">
      <g>
       <use style="stroke:#000000;stroke-width:0.8;" x="189.978641" xlink:href="#m940c5ea813" y="418.136182"/>
      </g>
     </g>
     <g id="text_13">
      <!-- $\mathdefault{10^{-10}}$ -->
      <g transform="translate(155.078641 421.935401)scale(0.1 -0.1)">
       <use transform="translate(0 0.765625)" xlink:href="#DejaVuSans-31"/>
       <use transform="translate(63.623047 0.765625)" xlink:href="#DejaVuSans-30"/>
       <use transform="translate(128.203125 39.046875)scale(0.7)" xlink:href="#DejaVuSans-2212"/>
       <use transform="translate(186.855469 39.046875)scale(0.7)" xlink:href="#DejaVuSans-31"/>
       <use transform="translate(231.391602 39.046875)scale(0.7)" xlink:href="#DejaVuSans-30"/>
      </g>
     </g>
    </g>
    <g id="ytick_7">
     <g id="line2d_25">
      <path clip-path="url(#p3ac2e45912)" d="M 189.978641 484.76876 
L 675 484.76876 
" style="fill:none;stroke:#b0b0b0;stroke-linecap:square;stroke-width:0.8;"/>
     </g>
     <g id="line2d_26">
      <g>
       <use style="stroke:#000000;stroke-width:0.8;" x="189.978641" xlink:href="#m940c5ea813" y="484.76876"/>
      </g>
     </g>
     <g id="text_14">
      <!-- $\mathdefault{10^{-12}}$ -->
      <g transform="translate(155.078641 488.567979)scale(0.1 -0.1)">
       <use transform="translate(0 0.765625)" xlink:href="#DejaVuSans-31"/>
       <use transform="translate(63.623047 0.765625)" xlink:href="#DejaVuSans-30"/>
       <use transform="translate(128.203125 39.046875)scale(0.7)" xlink:href="#DejaVuSans-2212"/>
       <use transform="translate(186.855469 39.046875)scale(0.7)" xlink:href="#DejaVuSans-31"/>
       <use transform="translate(231.391602 39.046875)scale(0.7)" xlink:href="#DejaVuSans-32"/>
      </g>
     </g>
    </g>
    <g id="ytick_8">
     <g id="line2d_27">
      <path clip-path="url(#p3ac2e45912)" d="M 189.978641 551.401338 
L 675 551.401338 
" style="fill:none;stroke:#b0b0b0;stroke-linecap:square;stroke-width:0.8;"/>
     </g>
     <g id="line2d_28">
      <g>
       <use style="stroke:#000000;stroke-width:0.8;" x="189.978641" xlink:href="#m940c5ea813" y="551.401338"/>
      </g>
     </g>
     <g id="text_15">
      <!-- $\mathdefault{10^{-14}}$ -->
      <g transform="translate(155.078641 555.200557)scale(0.1 -0.1)">
       <use transform="translate(0 0.684375)" xlink:href="#DejaVuSans-31"/>
       <use transform="translate(63.623047 0.684375)" xlink:href="#DejaVuSans-30"/>
       <use transform="translate(128.203125 38.965625)scale(0.7)" xlink:href="#DejaVuSans-2212"/>
       <use transform="translate(186.855469 38.965625)scale(0.7)" xlink:href="#DejaVuSans-31"/>
       <use transform="translate(231.391602 38.965625)scale(0.7)" xlink:href="#DejaVuSans-34"/>
      </g>
     </g>
    </g>
    <g id="ytick_9">
     <g id="line2d_29">
      <path clip-path="url(#p3ac2e45912)" d="M 189.978641 618.033917 
L 675 618.033917 
" style="fill:none;stroke:#b0b0b0;stroke-linecap:square;stroke-width:0.8;"/>
     </g>
     <g id="line2d_30">
      <g>
       <use style="stroke:#000000;stroke-width:0.8;" x="189.978641" xlink:href="#m940c5ea813" y="618.033917"/>
      </g>
     </g>
     <g id="text_16">
      <!-- $\mathdefault{10^{-16}}$ -->
      <g transform="translate(155.078641 621.833135)scale(0.1 -0.1)">
       <use transform="translate(0 0.765625)" xlink:href="#DejaVuSans-31"/>
       <use transform="translate(63.623047 0.765625)" xlink:href="#DejaVuSans-30"/>
       <use transform="translate(128.203125 39.046875)scale(0.7)" xlink:href="#DejaVuSans-2212"/>
       <use transform="translate(186.855469 39.046875)scale(0.7)" xlink:href="#DejaVuSans-31"/>
       <use transform="translate(231.391602 39.046875)scale(0.7)" xlink:href="#DejaVuSans-36"/>
      </g>
     </g>
    </g>
    <g id="text_17">
     <!-- $|x* - x_i|$ -->
     <g transform="translate(148.678641 366.807115)rotate(-90)scale(0.1 -0.1)">
      <defs>
       <path d="M 1344 4891 
L 1344 -1509 
L 813 -1509 
L 813 4891 
L 1344 4891 
z
" id="DejaVuSans-7c" transform="scale(0.015625)"/>
       <path d="M 3841 3500 
L 2234 1784 
L 3219 0 
L 2559 0 
L 1819 1388 
L 531 0 
L -166 0 
L 1556 1844 
L 641 3500 
L 1300 3500 
L 1972 2234 
L 3144 3500 
L 3841 3500 
z
" id="DejaVuSans-Oblique-78" transform="scale(0.015625)"/>
       <path d="M 3009 3897 
L 1888 3291 
L 3009 2681 
L 2828 2375 
L 1778 3009 
L 1778 1831 
L 1422 1831 
L 1422 3009 
L 372 2375 
L 191 2681 
L 1313 3291 
L 191 3897 
L 372 4206 
L 1422 3572 
L 1422 4750 
L 1778 4750 
L 1778 3572 
L 2828 4206 
L 3009 3897 
z
" id="DejaVuSans-2a" transform="scale(0.015625)"/>
       <path d="M 1172 4863 
L 1747 4863 
L 1606 4134 
L 1031 4134 
L 1172 4863 
z
M 909 3500 
L 1484 3500 
L 800 0 
L 225 0 
L 909 3500 
z
" id="DejaVuSans-Oblique-69" transform="scale(0.015625)"/>
      </defs>
      <use transform="translate(0 0.578125)" xlink:href="#DejaVuSans-7c"/>
      <use transform="translate(33.691406 0.578125)" xlink:href="#DejaVuSans-Oblique-78"/>
      <use transform="translate(112.353516 0.578125)" xlink:href="#DejaVuSans-2a"/>
      <use transform="translate(201.318359 0.578125)" xlink:href="#DejaVuSans-2212"/>
      <use transform="translate(304.589844 0.578125)" xlink:href="#DejaVuSans-Oblique-78"/>
      <use transform="translate(363.769531 -15.828125)scale(0.7)" xlink:href="#DejaVuSans-Oblique-69"/>
      <use transform="translate(385.952148 0.578125)" xlink:href="#DejaVuSans-7c"/>
     </g>
    </g>
   </g>
   <g id="line2d_31">
    <path clip-path="url(#p3ac2e45912)" d="M 212.025066 98.001889 
L 235.23183 147.061347 
L 258.438593 109.572632 
L 281.645357 120.729061 
L 304.852121 133.316211 
L 328.058884 150.420639 
L 351.265648 179.866678 
L 374.472411 162.475938 
L 397.679175 177.67862 
L 420.885939 216.120152 
L 444.092702 191.127963 
L 467.299466 203.989217 
L 490.506229 222.212816 
L 513.712993 241.603668 
L 536.919757 236.634055 
L 560.12652 264.539716 
L 583.333284 254.950659 
L 606.540047 275.46302 
L 629.746811 283.756068 
L 652.953575 297.494675 
" style="fill:none;stroke:#1f77b4;stroke-linecap:square;stroke-width:1.5;"/>
    <defs>
     <path d="M 0 3 
C 0.795609 3 1.55874 2.683901 2.12132 2.12132 
C 2.683901 1.55874 3 0.795609 3 0 
C 3 -0.795609 2.683901 -1.55874 2.12132 -2.12132 
C 1.55874 -2.683901 0.795609 -3 0 -3 
C -0.795609 -3 -1.55874 -2.683901 -2.12132 -2.12132 
C -2.683901 -1.55874 -3 -0.795609 -3 0 
C -3 0.795609 -2.683901 1.55874 -2.12132 2.12132 
C -1.55874 2.683901 -0.795609 3 0 3 
z
" id="m3b2fd59025" style="stroke:#1f77b4;"/>
    </defs>
    <g clip-path="url(#p3ac2e45912)">
     <use style="fill:#1f77b4;stroke:#1f77b4;" x="212.025066" xlink:href="#m3b2fd59025" y="98.001889"/>
     <use style="fill:#1f77b4;stroke:#1f77b4;" x="235.23183" xlink:href="#m3b2fd59025" y="147.061347"/>
     <use style="fill:#1f77b4;stroke:#1f77b4;" x="258.438593" xlink:href="#m3b2fd59025" y="109.572632"/>
     <use style="fill:#1f77b4;stroke:#1f77b4;" x="281.645357" xlink:href="#m3b2fd59025" y="120.729061"/>
     <use style="fill:#1f77b4;stroke:#1f77b4;" x="304.852121" xlink:href="#m3b2fd59025" y="133.316211"/>
     <use style="fill:#1f77b4;stroke:#1f77b4;" x="328.058884" xlink:href="#m3b2fd59025" y="150.420639"/>
     <use style="fill:#1f77b4;stroke:#1f77b4;" x="351.265648" xlink:href="#m3b2fd59025" y="179.866678"/>
     <use style="fill:#1f77b4;stroke:#1f77b4;" x="374.472411" xlink:href="#m3b2fd59025" y="162.475938"/>
     <use style="fill:#1f77b4;stroke:#1f77b4;" x="397.679175" xlink:href="#m3b2fd59025" y="177.67862"/>
     <use style="fill:#1f77b4;stroke:#1f77b4;" x="420.885939" xlink:href="#m3b2fd59025" y="216.120152"/>
     <use style="fill:#1f77b4;stroke:#1f77b4;" x="444.092702" xlink:href="#m3b2fd59025" y="191.127963"/>
     <use style="fill:#1f77b4;stroke:#1f77b4;" x="467.299466" xlink:href="#m3b2fd59025" y="203.989217"/>
     <use style="fill:#1f77b4;stroke:#1f77b4;" x="490.506229" xlink:href="#m3b2fd59025" y="222.212816"/>
     <use style="fill:#1f77b4;stroke:#1f77b4;" x="513.712993" xlink:href="#m3b2fd59025" y="241.603668"/>
     <use style="fill:#1f77b4;stroke:#1f77b4;" x="536.919757" xlink:href="#m3b2fd59025" y="236.634055"/>
     <use style="fill:#1f77b4;stroke:#1f77b4;" x="560.12652" xlink:href="#m3b2fd59025" y="264.539716"/>
     <use style="fill:#1f77b4;stroke:#1f77b4;" x="583.333284" xlink:href="#m3b2fd59025" y="254.950659"/>
     <use style="fill:#1f77b4;stroke:#1f77b4;" x="606.540047" xlink:href="#m3b2fd59025" y="275.46302"/>
     <use style="fill:#1f77b4;stroke:#1f77b4;" x="629.746811" xlink:href="#m3b2fd59025" y="283.756068"/>
     <use style="fill:#1f77b4;stroke:#1f77b4;" x="652.953575" xlink:href="#m3b2fd59025" y="297.494675"/>
    </g>
   </g>
   <g id="line2d_32">
    <path clip-path="url(#p3ac2e45912)" d="M 212.025066 108.103115 
L 235.23183 148.179035 
L 258.438593 191.754218 
L 281.645357 235.573278 
L 304.852121 279.40443 
L 328.058884 323.236168 
L 351.265648 367.067935 
L 374.472411 410.899704 
L 397.679175 454.73156 
L 420.885939 498.564123 
L 444.092702 542.468352 
L 467.299466 586.433409 
L 467.38292 704.44 
" style="fill:none;stroke:#ff7f0e;stroke-linecap:square;stroke-width:1.5;"/>
    <defs>
     <path d="M 0 3 
C 0.795609 3 1.55874 2.683901 2.12132 2.12132 
C 2.683901 1.55874 3 0.795609 3 0 
C 3 -0.795609 2.683901 -1.55874 2.12132 -2.12132 
C 1.55874 -2.683901 0.795609 -3 0 -3 
C -0.795609 -3 -1.55874 -2.683901 -2.12132 -2.12132 
C -2.683901 -1.55874 -3 -0.795609 -3 0 
C -3 0.795609 -2.683901 1.55874 -2.12132 2.12132 
C -1.55874 2.683901 -0.795609 3 0 3 
z
" id="m3d77c3d707" style="stroke:#ff7f0e;"/>
    </defs>
    <g clip-path="url(#p3ac2e45912)">
     <use style="fill:#ff7f0e;stroke:#ff7f0e;" x="212.025066" xlink:href="#m3d77c3d707" y="108.103115"/>
     <use style="fill:#ff7f0e;stroke:#ff7f0e;" x="235.23183" xlink:href="#m3d77c3d707" y="148.179035"/>
     <use style="fill:#ff7f0e;stroke:#ff7f0e;" x="258.438593" xlink:href="#m3d77c3d707" y="191.754218"/>
     <use style="fill:#ff7f0e;stroke:#ff7f0e;" x="281.645357" xlink:href="#m3d77c3d707" y="235.573278"/>
     <use style="fill:#ff7f0e;stroke:#ff7f0e;" x="304.852121" xlink:href="#m3d77c3d707" y="279.40443"/>
     <use style="fill:#ff7f0e;stroke:#ff7f0e;" x="328.058884" xlink:href="#m3d77c3d707" y="323.236168"/>
     <use style="fill:#ff7f0e;stroke:#ff7f0e;" x="351.265648" xlink:href="#m3d77c3d707" y="367.067935"/>
     <use style="fill:#ff7f0e;stroke:#ff7f0e;" x="374.472411" xlink:href="#m3d77c3d707" y="410.899704"/>
     <use style="fill:#ff7f0e;stroke:#ff7f0e;" x="397.679175" xlink:href="#m3d77c3d707" y="454.73156"/>
     <use style="fill:#ff7f0e;stroke:#ff7f0e;" x="420.885939" xlink:href="#m3d77c3d707" y="498.564123"/>
     <use style="fill:#ff7f0e;stroke:#ff7f0e;" x="444.092702" xlink:href="#m3d77c3d707" y="542.468352"/>
     <use style="fill:#ff7f0e;stroke:#ff7f0e;" x="467.299466" xlink:href="#m3d77c3d707" y="586.433409"/>
     <use style="fill:#ff7f0e;stroke:#ff7f0e;" x="490.506229" xlink:href="#m3d77c3d707" y="33401.262435"/>
    </g>
   </g>
   <g id="line2d_33">
    <path clip-path="url(#p3ac2e45912)" d="M 212.025066 108.103115 
L 235.23183 108.952896 
L 258.438593 155.213823 
L 281.645357 205.426498 
L 304.852121 298.896816 
L 328.058884 442.696444 
L 328.243183 704.44 
" style="fill:none;stroke:#2ca02c;stroke-linecap:square;stroke-width:1.5;"/>
    <defs>
     <path d="M 0 3 
C 0.795609 3 1.55874 2.683901 2.12132 2.12132 
C 2.683901 1.55874 3 0.795609 3 0 
C 3 -0.795609 2.683901 -1.55874 2.12132 -2.12132 
C 1.55874 -2.683901 0.795609 -3 0 -3 
C -0.795609 -3 -1.55874 -2.683901 -2.12132 -2.12132 
C -2.683901 -1.55874 -3 -0.795609 -3 0 
C -3 0.795609 -2.683901 1.55874 -2.12132 2.12132 
C -1.55874 2.683901 -0.795609 3 0 3 
z
" id="m9536ac5bbf" style="stroke:#2ca02c;"/>
    </defs>
    <g clip-path="url(#p3ac2e45912)">
     <use style="fill:#2ca02c;stroke:#2ca02c;" x="212.025066" xlink:href="#m9536ac5bbf" y="108.103115"/>
     <use style="fill:#2ca02c;stroke:#2ca02c;" x="235.23183" xlink:href="#m9536ac5bbf" y="108.952896"/>
     <use style="fill:#2ca02c;stroke:#2ca02c;" x="258.438593" xlink:href="#m9536ac5bbf" y="155.213823"/>
     <use style="fill:#2ca02c;stroke:#2ca02c;" x="281.645357" xlink:href="#m9536ac5bbf" y="205.426498"/>
     <use style="fill:#2ca02c;stroke:#2ca02c;" x="304.852121" xlink:href="#m9536ac5bbf" y="298.896816"/>
     <use style="fill:#2ca02c;stroke:#2ca02c;" x="328.058884" xlink:href="#m9536ac5bbf" y="442.696444"/>
     <use style="fill:#2ca02c;stroke:#2ca02c;" x="351.265648" xlink:href="#m9536ac5bbf" y="33401.262435"/>
     <use style="fill:#2ca02c;stroke:#2ca02c;" x="374.472411" xlink:href="#m9536ac5bbf" y="33401.262435"/>
    </g>
   </g>
   <g id="line2d_34">
    <path clip-path="url(#p3ac2e45912)" d="M 212.025066 104.938529 
L 235.23183 157.444003 
L 258.438593 253.465712 
L 281.645357 445.308391 
L 281.827831 704.44 
" style="fill:none;stroke:#d62728;stroke-linecap:square;stroke-width:1.5;"/>
    <defs>
     <path d="M 0 3 
C 0.795609 3 1.55874 2.683901 2.12132 2.12132 
C 2.683901 1.55874 3 0.795609 3 0 
C 3 -0.795609 2.683901 -1.55874 2.12132 -2.12132 
C 1.55874 -2.683901 0.795609 -3 0 -3 
C -0.795609 -3 -1.55874 -2.683901 -2.12132 -2.12132 
C -2.683901 -1.55874 -3 -0.795609 -3 0 
C -3 0.795609 -2.683901 1.55874 -2.12132 2.12132 
C -1.55874 2.683901 -0.795609 3 0 3 
z
" id="m896f177d35" style="stroke:#d62728;"/>
    </defs>
    <g clip-path="url(#p3ac2e45912)">
     <use style="fill:#d62728;stroke:#d62728;" x="212.025066" xlink:href="#m896f177d35" y="104.938529"/>
     <use style="fill:#d62728;stroke:#d62728;" x="235.23183" xlink:href="#m896f177d35" y="157.444003"/>
     <use style="fill:#d62728;stroke:#d62728;" x="258.438593" xlink:href="#m896f177d35" y="253.465712"/>
     <use style="fill:#d62728;stroke:#d62728;" x="281.645357" xlink:href="#m896f177d35" y="445.308391"/>
     <use style="fill:#d62728;stroke:#d62728;" x="304.852121" xlink:href="#m896f177d35" y="33401.262435"/>
     <use style="fill:#d62728;stroke:#d62728;" x="328.058884" xlink:href="#m896f177d35" y="33401.262435"/>
     <use style="fill:#d62728;stroke:#d62728;" x="351.265648" xlink:href="#m896f177d35" y="33401.262435"/>
     <use style="fill:#d62728;stroke:#d62728;" x="374.472411" xlink:href="#m896f177d35" y="33401.262435"/>
     <use style="fill:#d62728;stroke:#d62728;" x="397.679175" xlink:href="#m896f177d35" y="33401.262435"/>
     <use style="fill:#d62728;stroke:#d62728;" x="420.885939" xlink:href="#m896f177d35" y="33401.262435"/>
    </g>
   </g>
   <g id="patch_3">
    <path d="M 189.978641 618.033917 
L 189.978641 73.580312 
" style="fill:none;stroke:#000000;stroke-linecap:square;stroke-linejoin:miter;stroke-width:0.8;"/>
   </g>
   <g id="patch_4">
    <path d="M 675 618.033917 
L 675 73.580312 
" style="fill:none;stroke:#000000;stroke-linecap:square;stroke-linejoin:miter;stroke-width:0.8;"/>
   </g>
   <g id="patch_5">
    <path d="M 189.978641 618.033917 
L 675 618.033917 
" style="fill:none;stroke:#000000;stroke-linecap:square;stroke-linejoin:miter;stroke-width:0.8;"/>
   </g>
   <g id="patch_6">
    <path d="M 189.978641 73.580312 
L 675 73.580312 
" style="fill:none;stroke:#000000;stroke-linecap:square;stroke-linejoin:miter;stroke-width:0.8;"/>
   </g>
   <g id="text_18">
    <!-- Dla funkcji $ f(x)=sin(x)-0.37 $ -->
    <g transform="translate(343.56932 67.580312)scale(0.12 -0.12)">
     <defs>
      <path d="M 1259 4147 
L 1259 519 
L 2022 519 
Q 2988 519 3436 956 
Q 3884 1394 3884 2338 
Q 3884 3275 3436 3711 
Q 2988 4147 2022 4147 
L 1259 4147 
z
M 628 4666 
L 1925 4666 
Q 3281 4666 3915 4102 
Q 4550 3538 4550 2338 
Q 4550 1131 3912 565 
Q 3275 0 1925 0 
L 628 0 
L 628 4666 
z
" id="DejaVuSans-44" transform="scale(0.015625)"/>
      <path d="M 603 4863 
L 1178 4863 
L 1178 0 
L 603 0 
L 603 4863 
z
" id="DejaVuSans-6c" transform="scale(0.015625)"/>
      <path id="DejaVuSans-20" transform="scale(0.015625)"/>
      <path d="M 2375 4863 
L 2375 4384 
L 1825 4384 
Q 1516 4384 1395 4259 
Q 1275 4134 1275 3809 
L 1275 3500 
L 2222 3500 
L 2222 3053 
L 1275 3053 
L 1275 0 
L 697 0 
L 697 3053 
L 147 3053 
L 147 3500 
L 697 3500 
L 697 3744 
Q 697 4328 969 4595 
Q 1241 4863 1831 4863 
L 2375 4863 
z
" id="DejaVuSans-66" transform="scale(0.015625)"/>
      <path d="M 544 1381 
L 544 3500 
L 1119 3500 
L 1119 1403 
Q 1119 906 1312 657 
Q 1506 409 1894 409 
Q 2359 409 2629 706 
Q 2900 1003 2900 1516 
L 2900 3500 
L 3475 3500 
L 3475 0 
L 2900 0 
L 2900 538 
Q 2691 219 2414 64 
Q 2138 -91 1772 -91 
Q 1169 -91 856 284 
Q 544 659 544 1381 
z
M 1991 3584 
L 1991 3584 
z
" id="DejaVuSans-75" transform="scale(0.015625)"/>
      <path d="M 3513 2113 
L 3513 0 
L 2938 0 
L 2938 2094 
Q 2938 2591 2744 2837 
Q 2550 3084 2163 3084 
Q 1697 3084 1428 2787 
Q 1159 2491 1159 1978 
L 1159 0 
L 581 0 
L 581 3500 
L 1159 3500 
L 1159 2956 
Q 1366 3272 1645 3428 
Q 1925 3584 2291 3584 
Q 2894 3584 3203 3211 
Q 3513 2838 3513 2113 
z
" id="DejaVuSans-6e" transform="scale(0.015625)"/>
      <path d="M 581 4863 
L 1159 4863 
L 1159 1991 
L 2875 3500 
L 3609 3500 
L 1753 1863 
L 3688 0 
L 2938 0 
L 1159 1709 
L 1159 0 
L 581 0 
L 581 4863 
z
" id="DejaVuSans-6b" transform="scale(0.015625)"/>
      <path d="M 3059 4863 
L 2969 4384 
L 2419 4384 
Q 2106 4384 1964 4261 
Q 1822 4138 1753 3809 
L 1691 3500 
L 2638 3500 
L 2553 3053 
L 1606 3053 
L 1013 0 
L 434 0 
L 1031 3053 
L 481 3053 
L 563 3500 
L 1113 3500 
L 1159 3744 
Q 1278 4363 1576 4613 
Q 1875 4863 2516 4863 
L 3059 4863 
z
" id="DejaVuSans-Oblique-66" transform="scale(0.015625)"/>
      <path d="M 1984 4856 
Q 1566 4138 1362 3434 
Q 1159 2731 1159 2009 
Q 1159 1288 1364 580 
Q 1569 -128 1984 -844 
L 1484 -844 
Q 1016 -109 783 600 
Q 550 1309 550 2009 
Q 550 2706 781 3412 
Q 1013 4119 1484 4856 
L 1984 4856 
z
" id="DejaVuSans-28" transform="scale(0.015625)"/>
      <path d="M 513 4856 
L 1013 4856 
Q 1481 4119 1714 3412 
Q 1947 2706 1947 2009 
Q 1947 1309 1714 600 
Q 1481 -109 1013 -844 
L 513 -844 
Q 928 -128 1133 580 
Q 1338 1288 1338 2009 
Q 1338 2731 1133 3434 
Q 928 4138 513 4856 
z
" id="DejaVuSans-29" transform="scale(0.015625)"/>
      <path d="M 678 2906 
L 4684 2906 
L 4684 2381 
L 678 2381 
L 678 2906 
z
M 678 1631 
L 4684 1631 
L 4684 1100 
L 678 1100 
L 678 1631 
z
" id="DejaVuSans-3d" transform="scale(0.015625)"/>
      <path d="M 3200 3397 
L 3091 2853 
Q 2863 2978 2609 3040 
Q 2356 3103 2088 3103 
Q 1634 3103 1373 2948 
Q 1113 2794 1113 2528 
Q 1113 2219 1719 2053 
Q 1766 2041 1788 2034 
L 1972 1978 
Q 2547 1819 2739 1644 
Q 2931 1469 2931 1166 
Q 2931 609 2489 259 
Q 2047 -91 1331 -91 
Q 1053 -91 747 -37 
Q 441 16 72 128 
L 184 722 
Q 500 559 806 475 
Q 1113 391 1394 391 
Q 1816 391 2080 572 
Q 2344 753 2344 1031 
Q 2344 1331 1650 1516 
L 1591 1531 
L 1394 1581 
Q 956 1697 753 1886 
Q 550 2075 550 2369 
Q 550 2928 970 3256 
Q 1391 3584 2113 3584 
Q 2397 3584 2667 3537 
Q 2938 3491 3200 3397 
z
" id="DejaVuSans-Oblique-73" transform="scale(0.015625)"/>
      <path d="M 3566 2113 
L 3156 0 
L 2578 0 
L 2988 2091 
Q 3016 2238 3031 2350 
Q 3047 2463 3047 2528 
Q 3047 2791 2881 2937 
Q 2716 3084 2419 3084 
Q 1956 3084 1622 2776 
Q 1288 2469 1184 1941 
L 800 0 
L 225 0 
L 903 3500 
L 1478 3500 
L 1363 2950 
Q 1603 3253 1940 3418 
Q 2278 3584 2650 3584 
Q 3113 3584 3367 3334 
Q 3622 3084 3622 2631 
Q 3622 2519 3608 2391 
Q 3594 2263 3566 2113 
z
" id="DejaVuSans-Oblique-6e" transform="scale(0.015625)"/>
      <path d="M 684 794 
L 1344 794 
L 1344 0 
L 684 0 
L 684 794 
z
" id="DejaVuSans-2e" transform="scale(0.015625)"/>
      <path d="M 525 4666 
L 3525 4666 
L 3525 4397 
L 1831 0 
L 1172 0 
L 2766 4134 
L 525 4134 
L 525 4666 
z
" id="DejaVuSans-37" transform="scale(0.015625)"/>
     </defs>
     <use transform="translate(0 0.015625)" xlink:href="#DejaVuSans-44"/>
     <use transform="translate(77.001953 0.015625)" xlink:href="#DejaVuSans-6c"/>
     <use transform="translate(104.785156 0.015625)" xlink:href="#DejaVuSans-61"/>
     <use transform="translate(166.064453 0.015625)" xlink:href="#DejaVuSans-20"/>
     <use transform="translate(197.851562 0.015625)" xlink:href="#DejaVuSans-66"/>
     <use transform="translate(233.056641 0.015625)" xlink:href="#DejaVuSans-75"/>
     <use transform="translate(296.435547 0.015625)" xlink:href="#DejaVuSans-6e"/>
     <use transform="translate(359.814453 0.015625)" xlink:href="#DejaVuSans-6b"/>
     <use transform="translate(417.724609 0.015625)" xlink:href="#DejaVuSans-63"/>
     <use transform="translate(472.705078 0.015625)" xlink:href="#DejaVuSans-6a"/>
     <use transform="translate(500.488281 0.015625)" xlink:href="#DejaVuSans-69"/>
     <use transform="translate(528.271484 0.015625)" xlink:href="#DejaVuSans-20"/>
     <use transform="translate(560.058594 0.015625)" xlink:href="#DejaVuSans-Oblique-66"/>
     <use transform="translate(595.263672 0.015625)" xlink:href="#DejaVuSans-28"/>
     <use transform="translate(634.277344 0.015625)" xlink:href="#DejaVuSans-Oblique-78"/>
     <use transform="translate(693.457031 0.015625)" xlink:href="#DejaVuSans-29"/>
     <use transform="translate(751.953125 0.015625)" xlink:href="#DejaVuSans-3d"/>
     <use transform="translate(855.224609 0.015625)" xlink:href="#DejaVuSans-Oblique-73"/>
     <use transform="translate(907.324219 0.015625)" xlink:href="#DejaVuSans-Oblique-69"/>
     <use transform="translate(935.107422 0.015625)" xlink:href="#DejaVuSans-Oblique-6e"/>
     <use transform="translate(998.486328 0.015625)" xlink:href="#DejaVuSans-28"/>
     <use transform="translate(1037.5 0.015625)" xlink:href="#DejaVuSans-Oblique-78"/>
     <use transform="translate(1096.679688 0.015625)" xlink:href="#DejaVuSans-29"/>
     <use transform="translate(1155.175781 0.015625)" xlink:href="#DejaVuSans-2212"/>
     <use transform="translate(1258.447266 0.015625)" xlink:href="#DejaVuSans-30"/>
     <use transform="translate(1322.070312 0.015625)" xlink:href="#DejaVuSans-2e"/>
     <use transform="translate(1353.857422 0.015625)" xlink:href="#DejaVuSans-33"/>
     <use transform="translate(1417.480469 0.015625)" xlink:href="#DejaVuSans-37"/>
    </g>
   </g>
   <g id="legend_1">
    <g id="patch_7">
     <path d="M 546.545312 140.292812 
L 668 140.292812 
Q 670 140.292812 670 138.292812 
L 670 80.580312 
Q 670 78.580312 668 78.580312 
L 546.545312 78.580312 
Q 544.545312 78.580312 544.545312 80.580312 
L 544.545312 138.292812 
Q 544.545312 140.292812 546.545312 140.292812 
z
" style="fill:#ffffff;opacity:0.8;stroke:#cccccc;stroke-linejoin:miter;"/>
    </g>
    <g id="line2d_35">
     <path d="M 548.545312 86.67875 
L 568.545312 86.67875 
" style="fill:none;stroke:#1f77b4;stroke-linecap:square;stroke-width:1.5;"/>
    </g>
    <g id="line2d_36">
     <g>
      <use style="fill:#1f77b4;stroke:#1f77b4;" x="558.545312" xlink:href="#m3b2fd59025" y="86.67875"/>
     </g>
    </g>
    <g id="text_19">
     <!-- Metoda bisekcji -->
     <g transform="translate(576.545312 90.17875)scale(0.1 -0.1)">
      <defs>
       <path d="M 628 4666 
L 1569 4666 
L 2759 1491 
L 3956 4666 
L 4897 4666 
L 4897 0 
L 4281 0 
L 4281 4097 
L 3078 897 
L 2444 897 
L 1241 4097 
L 1241 0 
L 628 0 
L 628 4666 
z
" id="DejaVuSans-4d" transform="scale(0.015625)"/>
       <path d="M 1959 3097 
Q 1497 3097 1228 2736 
Q 959 2375 959 1747 
Q 959 1119 1226 758 
Q 1494 397 1959 397 
Q 2419 397 2687 759 
Q 2956 1122 2956 1747 
Q 2956 2369 2687 2733 
Q 2419 3097 1959 3097 
z
M 1959 3584 
Q 2709 3584 3137 3096 
Q 3566 2609 3566 1747 
Q 3566 888 3137 398 
Q 2709 -91 1959 -91 
Q 1206 -91 779 398 
Q 353 888 353 1747 
Q 353 2609 779 3096 
Q 1206 3584 1959 3584 
z
" id="DejaVuSans-6f" transform="scale(0.015625)"/>
       <path d="M 2906 2969 
L 2906 4863 
L 3481 4863 
L 3481 0 
L 2906 0 
L 2906 525 
Q 2725 213 2448 61 
Q 2172 -91 1784 -91 
Q 1150 -91 751 415 
Q 353 922 353 1747 
Q 353 2572 751 3078 
Q 1150 3584 1784 3584 
Q 2172 3584 2448 3432 
Q 2725 3281 2906 2969 
z
M 947 1747 
Q 947 1113 1208 752 
Q 1469 391 1925 391 
Q 2381 391 2643 752 
Q 2906 1113 2906 1747 
Q 2906 2381 2643 2742 
Q 2381 3103 1925 3103 
Q 1469 3103 1208 2742 
Q 947 2381 947 1747 
z
" id="DejaVuSans-64" transform="scale(0.015625)"/>
       <path d="M 3116 1747 
Q 3116 2381 2855 2742 
Q 2594 3103 2138 3103 
Q 1681 3103 1420 2742 
Q 1159 2381 1159 1747 
Q 1159 1113 1420 752 
Q 1681 391 2138 391 
Q 2594 391 2855 752 
Q 3116 1113 3116 1747 
z
M 1159 2969 
Q 1341 3281 1617 3432 
Q 1894 3584 2278 3584 
Q 2916 3584 3314 3078 
Q 3713 2572 3713 1747 
Q 3713 922 3314 415 
Q 2916 -91 2278 -91 
Q 1894 -91 1617 61 
Q 1341 213 1159 525 
L 1159 0 
L 581 0 
L 581 4863 
L 1159 4863 
L 1159 2969 
z
" id="DejaVuSans-62" transform="scale(0.015625)"/>
       <path d="M 2834 3397 
L 2834 2853 
Q 2591 2978 2328 3040 
Q 2066 3103 1784 3103 
Q 1356 3103 1142 2972 
Q 928 2841 928 2578 
Q 928 2378 1081 2264 
Q 1234 2150 1697 2047 
L 1894 2003 
Q 2506 1872 2764 1633 
Q 3022 1394 3022 966 
Q 3022 478 2636 193 
Q 2250 -91 1575 -91 
Q 1294 -91 989 -36 
Q 684 19 347 128 
L 347 722 
Q 666 556 975 473 
Q 1284 391 1588 391 
Q 1994 391 2212 530 
Q 2431 669 2431 922 
Q 2431 1156 2273 1281 
Q 2116 1406 1581 1522 
L 1381 1569 
Q 847 1681 609 1914 
Q 372 2147 372 2553 
Q 372 3047 722 3315 
Q 1072 3584 1716 3584 
Q 2034 3584 2315 3537 
Q 2597 3491 2834 3397 
z
" id="DejaVuSans-73" transform="scale(0.015625)"/>
      </defs>
      <use xlink:href="#DejaVuSans-4d"/>
      <use x="86.279297" xlink:href="#DejaVuSans-65"/>
      <use x="147.802734" xlink:href="#DejaVuSans-74"/>
      <use x="187.011719" xlink:href="#DejaVuSans-6f"/>
      <use x="248.193359" xlink:href="#DejaVuSans-64"/>
      <use x="311.669922" xlink:href="#DejaVuSans-61"/>
      <use x="372.949219" xlink:href="#DejaVuSans-20"/>
      <use x="404.736328" xlink:href="#DejaVuSans-62"/>
      <use x="468.212891" xlink:href="#DejaVuSans-69"/>
      <use x="495.996094" xlink:href="#DejaVuSans-73"/>
      <use x="548.095703" xlink:href="#DejaVuSans-65"/>
      <use x="609.619141" xlink:href="#DejaVuSans-6b"/>
      <use x="667.529297" xlink:href="#DejaVuSans-63"/>
      <use x="722.509766" xlink:href="#DejaVuSans-6a"/>
      <use x="750.292969" xlink:href="#DejaVuSans-69"/>
     </g>
    </g>
    <g id="line2d_37">
     <path d="M 548.545312 101.356875 
L 568.545312 101.356875 
" style="fill:none;stroke:#ff7f0e;stroke-linecap:square;stroke-width:1.5;"/>
    </g>
    <g id="line2d_38">
     <g>
      <use style="fill:#ff7f0e;stroke:#ff7f0e;" x="558.545312" xlink:href="#m3d77c3d707" y="101.356875"/>
     </g>
    </g>
    <g id="text_20">
     <!-- Metoda falsi -->
     <g transform="translate(576.545312 104.856875)scale(0.1 -0.1)">
      <use xlink:href="#DejaVuSans-4d"/>
      <use x="86.279297" xlink:href="#DejaVuSans-65"/>
      <use x="147.802734" xlink:href="#DejaVuSans-74"/>
      <use x="187.011719" xlink:href="#DejaVuSans-6f"/>
      <use x="248.193359" xlink:href="#DejaVuSans-64"/>
      <use x="311.669922" xlink:href="#DejaVuSans-61"/>
      <use x="372.949219" xlink:href="#DejaVuSans-20"/>
      <use x="404.736328" xlink:href="#DejaVuSans-66"/>
      <use x="439.941406" xlink:href="#DejaVuSans-61"/>
      <use x="501.220703" xlink:href="#DejaVuSans-6c"/>
      <use x="529.003906" xlink:href="#DejaVuSans-73"/>
      <use x="581.103516" xlink:href="#DejaVuSans-69"/>
     </g>
    </g>
    <g id="line2d_39">
     <path d="M 548.545312 116.035 
L 568.545312 116.035 
" style="fill:none;stroke:#2ca02c;stroke-linecap:square;stroke-width:1.5;"/>
    </g>
    <g id="line2d_40">
     <g>
      <use style="fill:#2ca02c;stroke:#2ca02c;" x="558.545312" xlink:href="#m9536ac5bbf" y="116.035"/>
     </g>
    </g>
    <g id="text_21">
     <!-- Metoda siecznych -->
     <g transform="translate(576.545312 119.535)scale(0.1 -0.1)">
      <defs>
       <path d="M 353 3500 
L 3084 3500 
L 3084 2975 
L 922 459 
L 3084 459 
L 3084 0 
L 275 0 
L 275 525 
L 2438 3041 
L 353 3041 
L 353 3500 
z
" id="DejaVuSans-7a" transform="scale(0.015625)"/>
       <path d="M 2059 -325 
Q 1816 -950 1584 -1140 
Q 1353 -1331 966 -1331 
L 506 -1331 
L 506 -850 
L 844 -850 
Q 1081 -850 1212 -737 
Q 1344 -625 1503 -206 
L 1606 56 
L 191 3500 
L 800 3500 
L 1894 763 
L 2988 3500 
L 3597 3500 
L 2059 -325 
z
" id="DejaVuSans-79" transform="scale(0.015625)"/>
       <path d="M 3513 2113 
L 3513 0 
L 2938 0 
L 2938 2094 
Q 2938 2591 2744 2837 
Q 2550 3084 2163 3084 
Q 1697 3084 1428 2787 
Q 1159 2491 1159 1978 
L 1159 0 
L 581 0 
L 581 4863 
L 1159 4863 
L 1159 2956 
Q 1366 3272 1645 3428 
Q 1925 3584 2291 3584 
Q 2894 3584 3203 3211 
Q 3513 2838 3513 2113 
z
" id="DejaVuSans-68" transform="scale(0.015625)"/>
      </defs>
      <use xlink:href="#DejaVuSans-4d"/>
      <use x="86.279297" xlink:href="#DejaVuSans-65"/>
      <use x="147.802734" xlink:href="#DejaVuSans-74"/>
      <use x="187.011719" xlink:href="#DejaVuSans-6f"/>
      <use x="248.193359" xlink:href="#DejaVuSans-64"/>
      <use x="311.669922" xlink:href="#DejaVuSans-61"/>
      <use x="372.949219" xlink:href="#DejaVuSans-20"/>
      <use x="404.736328" xlink:href="#DejaVuSans-73"/>
      <use x="456.835938" xlink:href="#DejaVuSans-69"/>
      <use x="484.619141" xlink:href="#DejaVuSans-65"/>
      <use x="546.142578" xlink:href="#DejaVuSans-63"/>
      <use x="601.123047" xlink:href="#DejaVuSans-7a"/>
      <use x="653.613281" xlink:href="#DejaVuSans-6e"/>
      <use x="716.992188" xlink:href="#DejaVuSans-79"/>
      <use x="776.171875" xlink:href="#DejaVuSans-63"/>
      <use x="831.152344" xlink:href="#DejaVuSans-68"/>
     </g>
    </g>
    <g id="line2d_41">
     <path d="M 548.545312 130.713125 
L 568.545312 130.713125 
" style="fill:none;stroke:#d62728;stroke-linecap:square;stroke-width:1.5;"/>
    </g>
    <g id="line2d_42">
     <g>
      <use style="fill:#d62728;stroke:#d62728;" x="558.545312" xlink:href="#m896f177d35" y="130.713125"/>
     </g>
    </g>
    <g id="text_22">
     <!-- Metoda Newtona -->
     <g transform="translate(576.545312 134.213125)scale(0.1 -0.1)">
      <defs>
       <path d="M 628 4666 
L 1478 4666 
L 3547 763 
L 3547 4666 
L 4159 4666 
L 4159 0 
L 3309 0 
L 1241 3903 
L 1241 0 
L 628 0 
L 628 4666 
z
" id="DejaVuSans-4e" transform="scale(0.015625)"/>
       <path d="M 269 3500 
L 844 3500 
L 1563 769 
L 2278 3500 
L 2956 3500 
L 3675 769 
L 4391 3500 
L 4966 3500 
L 4050 0 
L 3372 0 
L 2619 2869 
L 1863 0 
L 1184 0 
L 269 3500 
z
" id="DejaVuSans-77" transform="scale(0.015625)"/>
      </defs>
      <use xlink:href="#DejaVuSans-4d"/>
      <use x="86.279297" xlink:href="#DejaVuSans-65"/>
      <use x="147.802734" xlink:href="#DejaVuSans-74"/>
      <use x="187.011719" xlink:href="#DejaVuSans-6f"/>
      <use x="248.193359" xlink:href="#DejaVuSans-64"/>
      <use x="311.669922" xlink:href="#DejaVuSans-61"/>
      <use x="372.949219" xlink:href="#DejaVuSans-20"/>
      <use x="404.736328" xlink:href="#DejaVuSans-4e"/>
      <use x="479.541016" xlink:href="#DejaVuSans-65"/>
      <use x="541.064453" xlink:href="#DejaVuSans-77"/>
      <use x="622.851562" xlink:href="#DejaVuSans-74"/>
      <use x="662.060547" xlink:href="#DejaVuSans-6f"/>
      <use x="723.242188" xlink:href="#DejaVuSans-6e"/>
      <use x="786.621094" xlink:href="#DejaVuSans-61"/>
     </g>
    </g>
   </g>
  </g>
  <g id="axes_2">
   <g id="patch_8">
    <path d="M 864.978641 618.033917 
L 1350 618.033917 
L 1350 73.580312 
L 864.978641 73.580312 
z
" style="fill:#ffffff;"/>
   </g>
   <g id="matplotlib.axis_3">
    <g id="xtick_7">
     <g id="line2d_43">
      <path clip-path="url(#p2201360a83)" d="M 887.025066 618.033917 
L 887.025066 73.580312 
" style="fill:none;stroke:#b0b0b0;stroke-linecap:square;stroke-width:0.8;"/>
     </g>
     <g id="line2d_44">
      <g>
       <use style="stroke:#000000;stroke-width:0.8;" x="887.025066" xlink:href="#m15ec3d037c" y="618.033917"/>
      </g>
     </g>
     <g id="text_23">
      <!-- 1 -->
      <g transform="translate(883.843816 632.632354)scale(0.1 -0.1)">
       <use xlink:href="#DejaVuSans-31"/>
      </g>
     </g>
    </g>
    <g id="xtick_8">
     <g id="line2d_45">
      <path clip-path="url(#p2201360a83)" d="M 942.14113 618.033917 
L 942.14113 73.580312 
" style="fill:none;stroke:#b0b0b0;stroke-linecap:square;stroke-width:0.8;"/>
     </g>
     <g id="line2d_46">
      <g>
       <use style="stroke:#000000;stroke-width:0.8;" x="942.14113" xlink:href="#m15ec3d037c" y="618.033917"/>
      </g>
     </g>
     <g id="text_24">
      <!-- 2 -->
      <g transform="translate(938.95988 632.632354)scale(0.1 -0.1)">
       <use xlink:href="#DejaVuSans-32"/>
      </g>
     </g>
    </g>
    <g id="xtick_9">
     <g id="line2d_47">
      <path clip-path="url(#p2201360a83)" d="M 997.257193 618.033917 
L 997.257193 73.580312 
" style="fill:none;stroke:#b0b0b0;stroke-linecap:square;stroke-width:0.8;"/>
     </g>
     <g id="line2d_48">
      <g>
       <use style="stroke:#000000;stroke-width:0.8;" x="997.257193" xlink:href="#m15ec3d037c" y="618.033917"/>
      </g>
     </g>
     <g id="text_25">
      <!-- 3 -->
      <g transform="translate(994.075943 632.632354)scale(0.1 -0.1)">
       <use xlink:href="#DejaVuSans-33"/>
      </g>
     </g>
    </g>
    <g id="xtick_10">
     <g id="line2d_49">
      <path clip-path="url(#p2201360a83)" d="M 1052.373257 618.033917 
L 1052.373257 73.580312 
" style="fill:none;stroke:#b0b0b0;stroke-linecap:square;stroke-width:0.8;"/>
     </g>
     <g id="line2d_50">
      <g>
       <use style="stroke:#000000;stroke-width:0.8;" x="1052.373257" xlink:href="#m15ec3d037c" y="618.033917"/>
      </g>
     </g>
     <g id="text_26">
      <!-- 4 -->
      <g transform="translate(1049.192007 632.632354)scale(0.1 -0.1)">
       <use xlink:href="#DejaVuSans-34"/>
      </g>
     </g>
    </g>
    <g id="xtick_11">
     <g id="line2d_51">
      <path clip-path="url(#p2201360a83)" d="M 1107.48932 618.033917 
L 1107.48932 73.580312 
" style="fill:none;stroke:#b0b0b0;stroke-linecap:square;stroke-width:0.8;"/>
     </g>
     <g id="line2d_52">
      <g>
       <use style="stroke:#000000;stroke-width:0.8;" x="1107.48932" xlink:href="#m15ec3d037c" y="618.033917"/>
      </g>
     </g>
     <g id="text_27">
      <!-- 5 -->
      <g transform="translate(1104.30807 632.632354)scale(0.1 -0.1)">
       <use xlink:href="#DejaVuSans-35"/>
      </g>
     </g>
    </g>
    <g id="xtick_12">
     <g id="line2d_53">
      <path clip-path="url(#p2201360a83)" d="M 1162.605384 618.033917 
L 1162.605384 73.580312 
" style="fill:none;stroke:#b0b0b0;stroke-linecap:square;stroke-width:0.8;"/>
     </g>
     <g id="line2d_54">
      <g>
       <use style="stroke:#000000;stroke-width:0.8;" x="1162.605384" xlink:href="#m15ec3d037c" y="618.033917"/>
      </g>
     </g>
     <g id="text_28">
      <!-- 6 -->
      <g transform="translate(1159.424134 632.632354)scale(0.1 -0.1)">
       <use xlink:href="#DejaVuSans-36"/>
      </g>
     </g>
    </g>
    <g id="xtick_13">
     <g id="line2d_55">
      <path clip-path="url(#p2201360a83)" d="M 1217.721447 618.033917 
L 1217.721447 73.580312 
" style="fill:none;stroke:#b0b0b0;stroke-linecap:square;stroke-width:0.8;"/>
     </g>
     <g id="line2d_56">
      <g>
       <use style="stroke:#000000;stroke-width:0.8;" x="1217.721447" xlink:href="#m15ec3d037c" y="618.033917"/>
      </g>
     </g>
     <g id="text_29">
      <!-- 7 -->
      <g transform="translate(1214.540197 632.632354)scale(0.1 -0.1)">
       <use xlink:href="#DejaVuSans-37"/>
      </g>
     </g>
    </g>
    <g id="xtick_14">
     <g id="line2d_57">
      <path clip-path="url(#p2201360a83)" d="M 1272.837511 618.033917 
L 1272.837511 73.580312 
" style="fill:none;stroke:#b0b0b0;stroke-linecap:square;stroke-width:0.8;"/>
     </g>
     <g id="line2d_58">
      <g>
       <use style="stroke:#000000;stroke-width:0.8;" x="1272.837511" xlink:href="#m15ec3d037c" y="618.033917"/>
      </g>
     </g>
     <g id="text_30">
      <!-- 8 -->
      <g transform="translate(1269.656261 632.632354)scale(0.1 -0.1)">
       <use xlink:href="#DejaVuSans-38"/>
      </g>
     </g>
    </g>
    <g id="xtick_15">
     <g id="line2d_59">
      <path clip-path="url(#p2201360a83)" d="M 1327.953575 618.033917 
L 1327.953575 73.580312 
" style="fill:none;stroke:#b0b0b0;stroke-linecap:square;stroke-width:0.8;"/>
     </g>
     <g id="line2d_60">
      <g>
       <use style="stroke:#000000;stroke-width:0.8;" x="1327.953575" xlink:href="#m15ec3d037c" y="618.033917"/>
      </g>
     </g>
     <g id="text_31">
      <!-- 9 -->
      <g transform="translate(1324.772325 632.632354)scale(0.1 -0.1)">
       <use xlink:href="#DejaVuSans-39"/>
      </g>
     </g>
    </g>
    <g id="text_32">
     <!-- iteracja -->
     <g transform="translate(1088.741664 646.310479)scale(0.1 -0.1)">
      <use xlink:href="#DejaVuSans-69"/>
      <use x="27.783203" xlink:href="#DejaVuSans-74"/>
      <use x="66.992188" xlink:href="#DejaVuSans-65"/>
      <use x="128.515625" xlink:href="#DejaVuSans-72"/>
      <use x="169.628906" xlink:href="#DejaVuSans-61"/>
      <use x="230.908203" xlink:href="#DejaVuSans-63"/>
      <use x="285.888672" xlink:href="#DejaVuSans-6a"/>
      <use x="313.671875" xlink:href="#DejaVuSans-61"/>
     </g>
    </g>
   </g>
   <g id="matplotlib.axis_4">
    <g id="ytick_10">
     <g id="line2d_61">
      <path clip-path="url(#p2201360a83)" d="M 864.978641 85.157359 
L 1350 85.157359 
" style="fill:none;stroke:#b0b0b0;stroke-linecap:square;stroke-width:0.8;"/>
     </g>
     <g id="line2d_62">
      <g>
       <use style="stroke:#000000;stroke-width:0.8;" x="864.978641" xlink:href="#m940c5ea813" y="85.157359"/>
      </g>
     </g>
     <g id="text_33">
      <!-- $\mathdefault{10^{0}}$ -->
      <g transform="translate(840.378641 88.956578)scale(0.1 -0.1)">
       <use transform="translate(0 0.765625)" xlink:href="#DejaVuSans-31"/>
       <use transform="translate(63.623047 0.765625)" xlink:href="#DejaVuSans-30"/>
       <use transform="translate(128.203125 39.046875)scale(0.7)" xlink:href="#DejaVuSans-30"/>
      </g>
     </g>
    </g>
    <g id="ytick_11">
     <g id="line2d_63">
      <path clip-path="url(#p2201360a83)" d="M 864.978641 147.674651 
L 1350 147.674651 
" style="fill:none;stroke:#b0b0b0;stroke-linecap:square;stroke-width:0.8;"/>
     </g>
     <g id="line2d_64">
      <g>
       <use style="stroke:#000000;stroke-width:0.8;" x="864.978641" xlink:href="#m940c5ea813" y="147.674651"/>
      </g>
     </g>
     <g id="text_34">
      <!-- $\mathdefault{10^{-2}}$ -->
      <g transform="translate(834.478641 151.47387)scale(0.1 -0.1)">
       <use transform="translate(0 0.765625)" xlink:href="#DejaVuSans-31"/>
       <use transform="translate(63.623047 0.765625)" xlink:href="#DejaVuSans-30"/>
       <use transform="translate(128.203125 39.046875)scale(0.7)" xlink:href="#DejaVuSans-2212"/>
       <use transform="translate(186.855469 39.046875)scale(0.7)" xlink:href="#DejaVuSans-32"/>
      </g>
     </g>
    </g>
    <g id="ytick_12">
     <g id="line2d_65">
      <path clip-path="url(#p2201360a83)" d="M 864.978641 210.191944 
L 1350 210.191944 
" style="fill:none;stroke:#b0b0b0;stroke-linecap:square;stroke-width:0.8;"/>
     </g>
     <g id="line2d_66">
      <g>
       <use style="stroke:#000000;stroke-width:0.8;" x="864.978641" xlink:href="#m940c5ea813" y="210.191944"/>
      </g>
     </g>
     <g id="text_35">
      <!-- $\mathdefault{10^{-4}}$ -->
      <g transform="translate(834.478641 213.991162)scale(0.1 -0.1)">
       <use transform="translate(0 0.684375)" xlink:href="#DejaVuSans-31"/>
       <use transform="translate(63.623047 0.684375)" xlink:href="#DejaVuSans-30"/>
       <use transform="translate(128.203125 38.965625)scale(0.7)" xlink:href="#DejaVuSans-2212"/>
       <use transform="translate(186.855469 38.965625)scale(0.7)" xlink:href="#DejaVuSans-34"/>
      </g>
     </g>
    </g>
    <g id="ytick_13">
     <g id="line2d_67">
      <path clip-path="url(#p2201360a83)" d="M 864.978641 272.709236 
L 1350 272.709236 
" style="fill:none;stroke:#b0b0b0;stroke-linecap:square;stroke-width:0.8;"/>
     </g>
     <g id="line2d_68">
      <g>
       <use style="stroke:#000000;stroke-width:0.8;" x="864.978641" xlink:href="#m940c5ea813" y="272.709236"/>
      </g>
     </g>
     <g id="text_36">
      <!-- $\mathdefault{10^{-6}}$ -->
      <g transform="translate(834.478641 276.508455)scale(0.1 -0.1)">
       <use transform="translate(0 0.765625)" xlink:href="#DejaVuSans-31"/>
       <use transform="translate(63.623047 0.765625)" xlink:href="#DejaVuSans-30"/>
       <use transform="translate(128.203125 39.046875)scale(0.7)" xlink:href="#DejaVuSans-2212"/>
       <use transform="translate(186.855469 39.046875)scale(0.7)" xlink:href="#DejaVuSans-36"/>
      </g>
     </g>
    </g>
    <g id="ytick_14">
     <g id="line2d_69">
      <path clip-path="url(#p2201360a83)" d="M 864.978641 335.226528 
L 1350 335.226528 
" style="fill:none;stroke:#b0b0b0;stroke-linecap:square;stroke-width:0.8;"/>
     </g>
     <g id="line2d_70">
      <g>
       <use style="stroke:#000000;stroke-width:0.8;" x="864.978641" xlink:href="#m940c5ea813" y="335.226528"/>
      </g>
     </g>
     <g id="text_37">
      <!-- $\mathdefault{10^{-8}}$ -->
      <g transform="translate(834.478641 339.025747)scale(0.1 -0.1)">
       <use transform="translate(0 0.765625)" xlink:href="#DejaVuSans-31"/>
       <use transform="translate(63.623047 0.765625)" xlink:href="#DejaVuSans-30"/>
       <use transform="translate(128.203125 39.046875)scale(0.7)" xlink:href="#DejaVuSans-2212"/>
       <use transform="translate(186.855469 39.046875)scale(0.7)" xlink:href="#DejaVuSans-38"/>
      </g>
     </g>
    </g>
    <g id="ytick_15">
     <g id="line2d_71">
      <path clip-path="url(#p2201360a83)" d="M 864.978641 397.743821 
L 1350 397.743821 
" style="fill:none;stroke:#b0b0b0;stroke-linecap:square;stroke-width:0.8;"/>
     </g>
     <g id="line2d_72">
      <g>
       <use style="stroke:#000000;stroke-width:0.8;" x="864.978641" xlink:href="#m940c5ea813" y="397.743821"/>
      </g>
     </g>
     <g id="text_38">
      <!-- $\mathdefault{10^{-10}}$ -->
      <g transform="translate(830.078641 401.543039)scale(0.1 -0.1)">
       <use transform="translate(0 0.765625)" xlink:href="#DejaVuSans-31"/>
       <use transform="translate(63.623047 0.765625)" xlink:href="#DejaVuSans-30"/>
       <use transform="translate(128.203125 39.046875)scale(0.7)" xlink:href="#DejaVuSans-2212"/>
       <use transform="translate(186.855469 39.046875)scale(0.7)" xlink:href="#DejaVuSans-31"/>
       <use transform="translate(231.391602 39.046875)scale(0.7)" xlink:href="#DejaVuSans-30"/>
      </g>
     </g>
    </g>
    <g id="ytick_16">
     <g id="line2d_73">
      <path clip-path="url(#p2201360a83)" d="M 864.978641 460.261113 
L 1350 460.261113 
" style="fill:none;stroke:#b0b0b0;stroke-linecap:square;stroke-width:0.8;"/>
     </g>
     <g id="line2d_74">
      <g>
       <use style="stroke:#000000;stroke-width:0.8;" x="864.978641" xlink:href="#m940c5ea813" y="460.261113"/>
      </g>
     </g>
     <g id="text_39">
      <!-- $\mathdefault{10^{-12}}$ -->
      <g transform="translate(830.078641 464.060332)scale(0.1 -0.1)">
       <use transform="translate(0 0.765625)" xlink:href="#DejaVuSans-31"/>
       <use transform="translate(63.623047 0.765625)" xlink:href="#DejaVuSans-30"/>
       <use transform="translate(128.203125 39.046875)scale(0.7)" xlink:href="#DejaVuSans-2212"/>
       <use transform="translate(186.855469 39.046875)scale(0.7)" xlink:href="#DejaVuSans-31"/>
       <use transform="translate(231.391602 39.046875)scale(0.7)" xlink:href="#DejaVuSans-32"/>
      </g>
     </g>
    </g>
    <g id="ytick_17">
     <g id="line2d_75">
      <path clip-path="url(#p2201360a83)" d="M 864.978641 522.778405 
L 1350 522.778405 
" style="fill:none;stroke:#b0b0b0;stroke-linecap:square;stroke-width:0.8;"/>
     </g>
     <g id="line2d_76">
      <g>
       <use style="stroke:#000000;stroke-width:0.8;" x="864.978641" xlink:href="#m940c5ea813" y="522.778405"/>
      </g>
     </g>
     <g id="text_40">
      <!-- $\mathdefault{10^{-14}}$ -->
      <g transform="translate(830.078641 526.577624)scale(0.1 -0.1)">
       <use transform="translate(0 0.684375)" xlink:href="#DejaVuSans-31"/>
       <use transform="translate(63.623047 0.684375)" xlink:href="#DejaVuSans-30"/>
       <use transform="translate(128.203125 38.965625)scale(0.7)" xlink:href="#DejaVuSans-2212"/>
       <use transform="translate(186.855469 38.965625)scale(0.7)" xlink:href="#DejaVuSans-31"/>
       <use transform="translate(231.391602 38.965625)scale(0.7)" xlink:href="#DejaVuSans-34"/>
      </g>
     </g>
    </g>
    <g id="ytick_18">
     <g id="line2d_77">
      <path clip-path="url(#p2201360a83)" d="M 864.978641 585.295698 
L 1350 585.295698 
" style="fill:none;stroke:#b0b0b0;stroke-linecap:square;stroke-width:0.8;"/>
     </g>
     <g id="line2d_78">
      <g>
       <use style="stroke:#000000;stroke-width:0.8;" x="864.978641" xlink:href="#m940c5ea813" y="585.295698"/>
      </g>
     </g>
     <g id="text_41">
      <!-- $\mathdefault{10^{-16}}$ -->
      <g transform="translate(830.078641 589.094917)scale(0.1 -0.1)">
       <use transform="translate(0 0.765625)" xlink:href="#DejaVuSans-31"/>
       <use transform="translate(63.623047 0.765625)" xlink:href="#DejaVuSans-30"/>
       <use transform="translate(128.203125 39.046875)scale(0.7)" xlink:href="#DejaVuSans-2212"/>
       <use transform="translate(186.855469 39.046875)scale(0.7)" xlink:href="#DejaVuSans-31"/>
       <use transform="translate(231.391602 39.046875)scale(0.7)" xlink:href="#DejaVuSans-36"/>
      </g>
     </g>
    </g>
    <g id="text_42">
     <!-- $|x* - x_i|$ -->
     <g transform="translate(823.678641 366.807115)rotate(-90)scale(0.1 -0.1)">
      <use transform="translate(0 0.578125)" xlink:href="#DejaVuSans-7c"/>
      <use transform="translate(33.691406 0.578125)" xlink:href="#DejaVuSans-Oblique-78"/>
      <use transform="translate(112.353516 0.578125)" xlink:href="#DejaVuSans-2a"/>
      <use transform="translate(201.318359 0.578125)" xlink:href="#DejaVuSans-2212"/>
      <use transform="translate(304.589844 0.578125)" xlink:href="#DejaVuSans-Oblique-78"/>
      <use transform="translate(363.769531 -15.828125)scale(0.7)" xlink:href="#DejaVuSans-Oblique-69"/>
      <use transform="translate(385.952148 0.578125)" xlink:href="#DejaVuSans-7c"/>
     </g>
    </g>
   </g>
   <g id="line2d_79">
    <path clip-path="url(#p2201360a83)" d="M 887.025066 98.328204 
L 942.14113 98.328204 
L 997.257193 107.648989 
L 1052.373257 204.08757 
L 1107.48932 254.298887 
L 1162.605384 395.140882 
L 1217.721447 583.876235 
L 1272.837511 593.286026 
L 1273.036739 704.44 
" style="fill:none;stroke:#2ca02c;stroke-linecap:square;stroke-width:1.5;"/>
    <g clip-path="url(#p2201360a83)">
     <use style="fill:#2ca02c;stroke:#2ca02c;" x="887.025066" xlink:href="#m9536ac5bbf" y="98.328204"/>
     <use style="fill:#2ca02c;stroke:#2ca02c;" x="942.14113" xlink:href="#m9536ac5bbf" y="98.328204"/>
     <use style="fill:#2ca02c;stroke:#2ca02c;" x="997.257193" xlink:href="#m9536ac5bbf" y="107.648989"/>
     <use style="fill:#2ca02c;stroke:#2ca02c;" x="1052.373257" xlink:href="#m9536ac5bbf" y="204.08757"/>
     <use style="fill:#2ca02c;stroke:#2ca02c;" x="1107.48932" xlink:href="#m9536ac5bbf" y="254.298887"/>
     <use style="fill:#2ca02c;stroke:#2ca02c;" x="1162.605384" xlink:href="#m9536ac5bbf" y="395.140882"/>
     <use style="fill:#2ca02c;stroke:#2ca02c;" x="1217.721447" xlink:href="#m9536ac5bbf" y="583.876235"/>
     <use style="fill:#2ca02c;stroke:#2ca02c;" x="1272.837511" xlink:href="#m9536ac5bbf" y="593.286026"/>
     <use style="fill:#2ca02c;stroke:#2ca02c;" x="1327.953575" xlink:href="#m9536ac5bbf" y="31343.80354"/>
    </g>
   </g>
   <g id="line2d_80">
    <path clip-path="url(#p2201360a83)" d="M 887.025066 105.976073 
L 942.14113 162.315974 
L 997.257193 279.102524 
L 1052.373257 512.327707 
L 1052.716687 704.44 
" style="fill:none;stroke:#d62728;stroke-linecap:square;stroke-width:1.5;"/>
    <g clip-path="url(#p2201360a83)">
     <use style="fill:#d62728;stroke:#d62728;" x="887.025066" xlink:href="#m896f177d35" y="105.976073"/>
     <use style="fill:#d62728;stroke:#d62728;" x="942.14113" xlink:href="#m896f177d35" y="162.315974"/>
     <use style="fill:#d62728;stroke:#d62728;" x="997.257193" xlink:href="#m896f177d35" y="279.102524"/>
     <use style="fill:#d62728;stroke:#d62728;" x="1052.373257" xlink:href="#m896f177d35" y="512.327707"/>
     <use style="fill:#d62728;stroke:#d62728;" x="1107.48932" xlink:href="#m896f177d35" y="31343.80354"/>
    </g>
   </g>
   <g id="patch_9">
    <path d="M 864.978641 618.033917 
L 864.978641 73.580312 
" style="fill:none;stroke:#000000;stroke-linecap:square;stroke-linejoin:miter;stroke-width:0.8;"/>
   </g>
   <g id="patch_10">
    <path d="M 1350 618.033917 
L 1350 73.580312 
" style="fill:none;stroke:#000000;stroke-linecap:square;stroke-linejoin:miter;stroke-width:0.8;"/>
   </g>
   <g id="patch_11">
    <path d="M 864.978641 618.033917 
L 1350 618.033917 
" style="fill:none;stroke:#000000;stroke-linecap:square;stroke-linejoin:miter;stroke-width:0.8;"/>
   </g>
   <g id="patch_12">
    <path d="M 864.978641 73.580312 
L 1350 73.580312 
" style="fill:none;stroke:#000000;stroke-linecap:square;stroke-linejoin:miter;stroke-width:0.8;"/>
   </g>
   <g id="text_43">
    <!-- Dla funkcji $ g(x)=(sin(x)-0.37)^2 $  ( dla $u(x)=\frac{g(x)}{g'(x)}$) -->
    <g transform="translate(958.14932 66.740312)scale(0.12 -0.12)">
     <defs>
      <path d="M 3816 3500 
L 3219 434 
Q 3047 -456 2561 -893 
Q 2075 -1331 1253 -1331 
Q 950 -1331 690 -1286 
Q 431 -1241 206 -1147 
L 313 -588 
Q 525 -725 762 -790 
Q 1000 -856 1269 -856 
Q 1816 -856 2167 -557 
Q 2519 -259 2631 300 
L 2681 563 
Q 2441 288 2122 144 
Q 1803 0 1434 0 
Q 903 0 598 351 
Q 294 703 294 1319 
Q 294 1803 478 2267 
Q 663 2731 997 3091 
Q 1219 3328 1514 3456 
Q 1809 3584 2131 3584 
Q 2484 3584 2746 3420 
Q 3009 3256 3138 2956 
L 3238 3500 
L 3816 3500 
z
M 2950 2216 
Q 2950 2641 2750 2872 
Q 2550 3103 2181 3103 
Q 1953 3103 1747 3012 
Q 1541 2922 1394 2759 
Q 1156 2491 1023 2127 
Q 891 1763 891 1375 
Q 891 944 1092 712 
Q 1294 481 1672 481 
Q 2219 481 2584 976 
Q 2950 1472 2950 2216 
z
" id="DejaVuSans-Oblique-67" transform="scale(0.015625)"/>
      <path d="M 428 1388 
L 838 3500 
L 1416 3500 
L 1006 1409 
Q 975 1256 961 1147 
Q 947 1038 947 966 
Q 947 700 1109 554 
Q 1272 409 1569 409 
Q 2031 409 2368 721 
Q 2706 1034 2809 1563 
L 3194 3500 
L 3769 3500 
L 3091 0 
L 2516 0 
L 2631 550 
Q 2388 244 2052 76 
Q 1716 -91 1338 -91 
Q 878 -91 622 161 
Q 366 413 366 863 
Q 366 956 381 1097 
Q 397 1238 428 1388 
z
" id="DejaVuSans-Oblique-75" transform="scale(0.015625)"/>
      <path d="M 225 347 
Q 184 359 184 409 
L 966 3316 
Q 1003 3434 1093 3506 
Q 1184 3578 1300 3578 
Q 1450 3578 1564 3479 
Q 1678 3381 1678 3231 
Q 1678 3166 1644 3084 
L 488 319 
Q 466 275 428 275 
Q 394 275 320 306 
Q 247 338 225 347 
z
" id="Cmsy10-30" transform="scale(0.015625)"/>
     </defs>
     <use transform="translate(0 0.532813)" xlink:href="#DejaVuSans-44"/>
     <use transform="translate(77.001953 0.532813)" xlink:href="#DejaVuSans-6c"/>
     <use transform="translate(104.785156 0.532813)" xlink:href="#DejaVuSans-61"/>
     <use transform="translate(166.064453 0.532813)" xlink:href="#DejaVuSans-20"/>
     <use transform="translate(197.851562 0.532813)" xlink:href="#DejaVuSans-66"/>
     <use transform="translate(233.056641 0.532813)" xlink:href="#DejaVuSans-75"/>
     <use transform="translate(296.435547 0.532813)" xlink:href="#DejaVuSans-6e"/>
     <use transform="translate(359.814453 0.532813)" xlink:href="#DejaVuSans-6b"/>
     <use transform="translate(417.724609 0.532813)" xlink:href="#DejaVuSans-63"/>
     <use transform="translate(472.705078 0.532813)" xlink:href="#DejaVuSans-6a"/>
     <use transform="translate(500.488281 0.532813)" xlink:href="#DejaVuSans-69"/>
     <use transform="translate(528.271484 0.532813)" xlink:href="#DejaVuSans-20"/>
     <use transform="translate(560.058594 0.532813)" xlink:href="#DejaVuSans-Oblique-67"/>
     <use transform="translate(623.535156 0.532813)" xlink:href="#DejaVuSans-28"/>
     <use transform="translate(662.548828 0.532813)" xlink:href="#DejaVuSans-Oblique-78"/>
     <use transform="translate(721.728516 0.532813)" xlink:href="#DejaVuSans-29"/>
     <use transform="translate(780.224609 0.532813)" xlink:href="#DejaVuSans-3d"/>
     <use transform="translate(883.496094 0.532813)" xlink:href="#DejaVuSans-28"/>
     <use transform="translate(922.509766 0.532813)" xlink:href="#DejaVuSans-Oblique-73"/>
     <use transform="translate(974.609375 0.532813)" xlink:href="#DejaVuSans-Oblique-69"/>
     <use transform="translate(1002.392578 0.532813)" xlink:href="#DejaVuSans-Oblique-6e"/>
     <use transform="translate(1065.771484 0.532813)" xlink:href="#DejaVuSans-28"/>
     <use transform="translate(1104.785156 0.532813)" xlink:href="#DejaVuSans-Oblique-78"/>
     <use transform="translate(1163.964844 0.532813)" xlink:href="#DejaVuSans-29"/>
     <use transform="translate(1222.460938 0.532813)" xlink:href="#DejaVuSans-2212"/>
     <use transform="translate(1325.732422 0.532813)" xlink:href="#DejaVuSans-30"/>
     <use transform="translate(1389.355469 0.532813)" xlink:href="#DejaVuSans-2e"/>
     <use transform="translate(1421.142578 0.532813)" xlink:href="#DejaVuSans-33"/>
     <use transform="translate(1484.765625 0.532813)" xlink:href="#DejaVuSans-37"/>
     <use transform="translate(1548.388672 0.532813)" xlink:href="#DejaVuSans-29"/>
     <use transform="translate(1588.359375 38.814063)scale(0.7)" xlink:href="#DejaVuSans-32"/>
     <use transform="translate(1635.629883 0.532813)" xlink:href="#DejaVuSans-20"/>
     <use transform="translate(1667.416992 0.532813)" xlink:href="#DejaVuSans-20"/>
     <use transform="translate(1699.204102 0.532813)" xlink:href="#DejaVuSans-28"/>
     <use transform="translate(1738.217773 0.532813)" xlink:href="#DejaVuSans-20"/>
     <use transform="translate(1770.004883 0.532813)" xlink:href="#DejaVuSans-64"/>
     <use transform="translate(1833.481445 0.532813)" xlink:href="#DejaVuSans-6c"/>
     <use transform="translate(1861.264648 0.532813)" xlink:href="#DejaVuSans-61"/>
     <use transform="translate(1922.543945 0.532813)" xlink:href="#DejaVuSans-20"/>
     <use transform="translate(1954.331055 0.532813)" xlink:href="#DejaVuSans-Oblique-75"/>
     <use transform="translate(2017.709961 0.532813)" xlink:href="#DejaVuSans-28"/>
     <use transform="translate(2056.723633 0.532813)" xlink:href="#DejaVuSans-Oblique-78"/>
     <use transform="translate(2115.90332 0.532813)" xlink:href="#DejaVuSans-29"/>
     <use transform="translate(2174.399414 0.532813)" xlink:href="#DejaVuSans-3d"/>
     <use transform="translate(2286.670898 58.8875)scale(0.7)" xlink:href="#DejaVuSans-Oblique-67"/>
     <use transform="translate(2331.104492 58.8875)scale(0.7)" xlink:href="#DejaVuSans-28"/>
     <use transform="translate(2358.414062 58.8875)scale(0.7)" xlink:href="#DejaVuSans-Oblique-78"/>
     <use transform="translate(2399.839844 58.8875)scale(0.7)" xlink:href="#DejaVuSans-29"/>
     <use transform="translate(2277.670898 -41.11125)scale(0.7)" xlink:href="#DejaVuSans-Oblique-67"/>
     <use transform="translate(2325.359419 -14.314375)scale(0.49)" xlink:href="#Cmsy10-30"/>
     <use transform="translate(2340.743697 -41.11125)scale(0.7)" xlink:href="#DejaVuSans-28"/>
     <use transform="translate(2368.053267 -41.11125)scale(0.7)" xlink:href="#DejaVuSans-Oblique-78"/>
     <use transform="translate(2409.479048 -41.11125)scale(0.7)" xlink:href="#DejaVuSans-29"/>
     <use transform="translate(2449.288618 0.532813)" xlink:href="#DejaVuSans-29"/>
     <path d="M 2277.670898 19.329688 
L 2277.670898 25.579688 
L 2436.788618 25.579688 
L 2436.788618 19.329688 
L 2277.670898 19.329688 
z
"/>
    </g>
   </g>
   <g id="legend_2">
    <g id="patch_13">
     <path d="M 1221.545312 110.936562 
L 1343 110.936562 
Q 1345 110.936562 1345 108.936562 
L 1345 80.580312 
Q 1345 78.580312 1343 78.580312 
L 1221.545312 78.580312 
Q 1219.545312 78.580312 1219.545312 80.580312 
L 1219.545312 108.936562 
Q 1219.545312 110.936562 1221.545312 110.936562 
z
" style="fill:#ffffff;opacity:0.8;stroke:#cccccc;stroke-linejoin:miter;"/>
    </g>
    <g id="line2d_81">
     <path d="M 1223.545312 86.67875 
L 1243.545312 86.67875 
" style="fill:none;stroke:#2ca02c;stroke-linecap:square;stroke-width:1.5;"/>
    </g>
    <g id="line2d_82">
     <g>
      <use style="fill:#2ca02c;stroke:#2ca02c;" x="1233.545312" xlink:href="#m9536ac5bbf" y="86.67875"/>
     </g>
    </g>
    <g id="text_44">
     <!-- Metoda siecznych -->
     <g transform="translate(1251.545312 90.17875)scale(0.1 -0.1)">
      <use xlink:href="#DejaVuSans-4d"/>
      <use x="86.279297" xlink:href="#DejaVuSans-65"/>
      <use x="147.802734" xlink:href="#DejaVuSans-74"/>
      <use x="187.011719" xlink:href="#DejaVuSans-6f"/>
      <use x="248.193359" xlink:href="#DejaVuSans-64"/>
      <use x="311.669922" xlink:href="#DejaVuSans-61"/>
      <use x="372.949219" xlink:href="#DejaVuSans-20"/>
      <use x="404.736328" xlink:href="#DejaVuSans-73"/>
      <use x="456.835938" xlink:href="#DejaVuSans-69"/>
      <use x="484.619141" xlink:href="#DejaVuSans-65"/>
      <use x="546.142578" xlink:href="#DejaVuSans-63"/>
      <use x="601.123047" xlink:href="#DejaVuSans-7a"/>
      <use x="653.613281" xlink:href="#DejaVuSans-6e"/>
      <use x="716.992188" xlink:href="#DejaVuSans-79"/>
      <use x="776.171875" xlink:href="#DejaVuSans-63"/>
      <use x="831.152344" xlink:href="#DejaVuSans-68"/>
     </g>
    </g>
    <g id="line2d_83">
     <path d="M 1223.545312 101.356875 
L 1243.545312 101.356875 
" style="fill:none;stroke:#d62728;stroke-linecap:square;stroke-width:1.5;"/>
    </g>
    <g id="line2d_84">
     <g>
      <use style="fill:#d62728;stroke:#d62728;" x="1233.545312" xlink:href="#m896f177d35" y="101.356875"/>
     </g>
    </g>
    <g id="text_45">
     <!-- Metoda Newtona -->
     <g transform="translate(1251.545312 104.856875)scale(0.1 -0.1)">
      <use xlink:href="#DejaVuSans-4d"/>
      <use x="86.279297" xlink:href="#DejaVuSans-65"/>
      <use x="147.802734" xlink:href="#DejaVuSans-74"/>
      <use x="187.011719" xlink:href="#DejaVuSans-6f"/>
      <use x="248.193359" xlink:href="#DejaVuSans-64"/>
      <use x="311.669922" xlink:href="#DejaVuSans-61"/>
      <use x="372.949219" xlink:href="#DejaVuSans-20"/>
      <use x="404.736328" xlink:href="#DejaVuSans-4e"/>
      <use x="479.541016" xlink:href="#DejaVuSans-65"/>
      <use x="541.064453" xlink:href="#DejaVuSans-77"/>
      <use x="622.851562" xlink:href="#DejaVuSans-74"/>
      <use x="662.060547" xlink:href="#DejaVuSans-6f"/>
      <use x="723.242188" xlink:href="#DejaVuSans-6e"/>
      <use x="786.621094" xlink:href="#DejaVuSans-61"/>
     </g>
    </g>
   </g>
  </g>
  <g id="text_46">
   <!-- Odchylenie przyblionej wartoci pierwiastka od dokadnego wyniku w zalenoci od wybranych funkcji i metod iteracyjnych -->
   <g transform="translate(317.667187 23.666925)scale(0.12 -0.12)">
    <defs>
     <path d="M 2522 4238 
Q 1834 4238 1429 3725 
Q 1025 3213 1025 2328 
Q 1025 1447 1429 934 
Q 1834 422 2522 422 
Q 3209 422 3611 934 
Q 4013 1447 4013 2328 
Q 4013 3213 3611 3725 
Q 3209 4238 2522 4238 
z
M 2522 4750 
Q 3503 4750 4090 4092 
Q 4678 3434 4678 2328 
Q 4678 1225 4090 567 
Q 3503 -91 2522 -91 
Q 1538 -91 948 565 
Q 359 1222 359 2328 
Q 359 3434 948 4092 
Q 1538 4750 2522 4750 
z
" id="DejaVuSans-4f" transform="scale(0.015625)"/>
     <path d="M 1159 525 
L 1159 -1331 
L 581 -1331 
L 581 3500 
L 1159 3500 
L 1159 2969 
Q 1341 3281 1617 3432 
Q 1894 3584 2278 3584 
Q 2916 3584 3314 3078 
Q 3713 2572 3713 1747 
Q 3713 922 3314 415 
Q 2916 -91 2278 -91 
Q 1894 -91 1617 61 
Q 1341 213 1159 525 
z
M 3116 1747 
Q 3116 2381 2855 2742 
Q 2594 3103 2138 3103 
Q 1681 3103 1420 2742 
Q 1159 2381 1159 1747 
Q 1159 1113 1420 752 
Q 1681 391 2138 391 
Q 2594 391 2855 752 
Q 3116 1113 3116 1747 
z
" id="DejaVuSans-70" transform="scale(0.015625)"/>
     <path d="M 1378 4863 
L 1953 4863 
L 1953 4134 
L 1378 4134 
L 1378 4863 
z
M 1672 3584 
L 1672 3584 
z
M 353 3500 
L 3084 3500 
L 3084 2975 
L 922 459 
L 3084 459 
L 3084 0 
L 275 0 
L 275 525 
L 2438 3041 
L 353 3041 
L 353 3500 
z
" id="DejaVuSans-17c" transform="scale(0.015625)"/>
     <path d="M 2242 5119 
L 2864 5119 
L 1846 3944 
L 1367 3944 
L 2242 5119 
z
M 2834 3397 
L 2834 2853 
Q 2591 2978 2328 3040 
Q 2066 3103 1784 3103 
Q 1356 3103 1142 2972 
Q 928 2841 928 2578 
Q 928 2378 1081 2264 
Q 1234 2150 1697 2047 
L 1894 2003 
Q 2506 1872 2764 1633 
Q 3022 1394 3022 966 
Q 3022 478 2636 193 
Q 2250 -91 1575 -91 
Q 1294 -91 989 -36 
Q 684 19 347 128 
L 347 722 
Q 666 556 975 473 
Q 1284 391 1588 391 
Q 1994 391 2212 530 
Q 2431 669 2431 922 
Q 2431 1156 2273 1281 
Q 2116 1406 1581 1522 
L 1381 1569 
Q 847 1681 609 1914 
Q 372 2147 372 2553 
Q 372 3047 722 3315 
Q 1072 3584 1716 3584 
Q 2034 3584 2315 3537 
Q 2597 3491 2834 3397 
z
" id="DejaVuSans-15b" transform="scale(0.015625)"/>
     <path d="M 622 4863 
L 1197 4863 
L 1197 2981 
L 1588 3263 
L 1825 2931 
L 1197 2491 
L 1197 0 
L 622 0 
L 622 2081 
L 238 1806 
L 6 2138 
L 622 2578 
L 622 4863 
z
" id="DejaVuSans-142" transform="scale(0.015625)"/>
     <path d="M 2906 1791 
Q 2906 2416 2648 2759 
Q 2391 3103 1925 3103 
Q 1463 3103 1205 2759 
Q 947 2416 947 1791 
Q 947 1169 1205 825 
Q 1463 481 1925 481 
Q 2391 481 2648 825 
Q 2906 1169 2906 1791 
z
M 3481 434 
Q 3481 -459 3084 -895 
Q 2688 -1331 1869 -1331 
Q 1566 -1331 1297 -1286 
Q 1028 -1241 775 -1147 
L 775 -588 
Q 1028 -725 1275 -790 
Q 1522 -856 1778 -856 
Q 2344 -856 2625 -561 
Q 2906 -266 2906 331 
L 2906 616 
Q 2728 306 2450 153 
Q 2172 0 1784 0 
Q 1141 0 747 490 
Q 353 981 353 1791 
Q 353 2603 747 3093 
Q 1141 3584 1784 3584 
Q 2172 3584 2450 3431 
Q 2728 3278 2906 2969 
L 2906 3500 
L 3481 3500 
L 3481 434 
z
" id="DejaVuSans-67" transform="scale(0.015625)"/>
     <path d="M 3328 2828 
Q 3544 3216 3844 3400 
Q 4144 3584 4550 3584 
Q 5097 3584 5394 3201 
Q 5691 2819 5691 2113 
L 5691 0 
L 5113 0 
L 5113 2094 
Q 5113 2597 4934 2840 
Q 4756 3084 4391 3084 
Q 3944 3084 3684 2787 
Q 3425 2491 3425 1978 
L 3425 0 
L 2847 0 
L 2847 2094 
Q 2847 2600 2669 2842 
Q 2491 3084 2119 3084 
Q 1678 3084 1418 2786 
Q 1159 2488 1159 1978 
L 1159 0 
L 581 0 
L 581 3500 
L 1159 3500 
L 1159 2956 
Q 1356 3278 1631 3431 
Q 1906 3584 2284 3584 
Q 2666 3584 2933 3390 
Q 3200 3197 3328 2828 
z
" id="DejaVuSans-6d" transform="scale(0.015625)"/>
    </defs>
    <use xlink:href="#DejaVuSans-4f"/>
    <use x="78.710938" xlink:href="#DejaVuSans-64"/>
    <use x="142.1875" xlink:href="#DejaVuSans-63"/>
    <use x="197.167969" xlink:href="#DejaVuSans-68"/>
    <use x="260.546875" xlink:href="#DejaVuSans-79"/>
    <use x="319.726562" xlink:href="#DejaVuSans-6c"/>
    <use x="347.509766" xlink:href="#DejaVuSans-65"/>
    <use x="409.033203" xlink:href="#DejaVuSans-6e"/>
    <use x="472.412109" xlink:href="#DejaVuSans-69"/>
    <use x="500.195312" xlink:href="#DejaVuSans-65"/>
    <use x="561.71875" xlink:href="#DejaVuSans-20"/>
    <use x="593.505859" xlink:href="#DejaVuSans-70"/>
    <use x="656.982422" xlink:href="#DejaVuSans-72"/>
    <use x="698.095703" xlink:href="#DejaVuSans-7a"/>
    <use x="750.585938" xlink:href="#DejaVuSans-79"/>
    <use x="809.765625" xlink:href="#DejaVuSans-62"/>
    <use x="873.242188" xlink:href="#DejaVuSans-6c"/>
    <use x="901.025391" xlink:href="#DejaVuSans-69"/>
    <use x="928.808594" xlink:href="#DejaVuSans-17c"/>
    <use x="981.298828" xlink:href="#DejaVuSans-6f"/>
    <use x="1042.480469" xlink:href="#DejaVuSans-6e"/>
    <use x="1105.859375" xlink:href="#DejaVuSans-65"/>
    <use x="1167.382812" xlink:href="#DejaVuSans-6a"/>
    <use x="1195.166016" xlink:href="#DejaVuSans-20"/>
    <use x="1226.953125" xlink:href="#DejaVuSans-77"/>
    <use x="1308.740234" xlink:href="#DejaVuSans-61"/>
    <use x="1370.019531" xlink:href="#DejaVuSans-72"/>
    <use x="1411.132812" xlink:href="#DejaVuSans-74"/>
    <use x="1450.341797" xlink:href="#DejaVuSans-6f"/>
    <use x="1511.523438" xlink:href="#DejaVuSans-15b"/>
    <use x="1563.623047" xlink:href="#DejaVuSans-63"/>
    <use x="1618.603516" xlink:href="#DejaVuSans-69"/>
    <use x="1646.386719" xlink:href="#DejaVuSans-20"/>
    <use x="1678.173828" xlink:href="#DejaVuSans-70"/>
    <use x="1741.650391" xlink:href="#DejaVuSans-69"/>
    <use x="1769.433594" xlink:href="#DejaVuSans-65"/>
    <use x="1830.957031" xlink:href="#DejaVuSans-72"/>
    <use x="1872.070312" xlink:href="#DejaVuSans-77"/>
    <use x="1953.857422" xlink:href="#DejaVuSans-69"/>
    <use x="1981.640625" xlink:href="#DejaVuSans-61"/>
    <use x="2042.919922" xlink:href="#DejaVuSans-73"/>
    <use x="2095.019531" xlink:href="#DejaVuSans-74"/>
    <use x="2134.228516" xlink:href="#DejaVuSans-6b"/>
    <use x="2190.388672" xlink:href="#DejaVuSans-61"/>
    <use x="2251.667969" xlink:href="#DejaVuSans-20"/>
    <use x="2283.455078" xlink:href="#DejaVuSans-6f"/>
    <use x="2344.636719" xlink:href="#DejaVuSans-64"/>
    <use x="2408.113281" xlink:href="#DejaVuSans-20"/>
    <use x="2439.900391" xlink:href="#DejaVuSans-64"/>
    <use x="2503.376953" xlink:href="#DejaVuSans-6f"/>
    <use x="2564.558594" xlink:href="#DejaVuSans-6b"/>
    <use x="2622.46875" xlink:href="#DejaVuSans-142"/>
    <use x="2650.886719" xlink:href="#DejaVuSans-61"/>
    <use x="2712.166016" xlink:href="#DejaVuSans-64"/>
    <use x="2775.642578" xlink:href="#DejaVuSans-6e"/>
    <use x="2839.021484" xlink:href="#DejaVuSans-65"/>
    <use x="2900.544922" xlink:href="#DejaVuSans-67"/>
    <use x="2964.021484" xlink:href="#DejaVuSans-6f"/>
    <use x="3025.203125" xlink:href="#DejaVuSans-20"/>
    <use x="3056.990234" xlink:href="#DejaVuSans-77"/>
    <use x="3138.777344" xlink:href="#DejaVuSans-79"/>
    <use x="3197.957031" xlink:href="#DejaVuSans-6e"/>
    <use x="3261.335938" xlink:href="#DejaVuSans-69"/>
    <use x="3289.119141" xlink:href="#DejaVuSans-6b"/>
    <use x="3343.904297" xlink:href="#DejaVuSans-75"/>
    <use x="3407.283203" xlink:href="#DejaVuSans-20"/>
    <use x="3439.070312" xlink:href="#DejaVuSans-77"/>
    <use x="3520.857422" xlink:href="#DejaVuSans-20"/>
    <use x="3552.644531" xlink:href="#DejaVuSans-7a"/>
    <use x="3605.134766" xlink:href="#DejaVuSans-61"/>
    <use x="3666.414062" xlink:href="#DejaVuSans-6c"/>
    <use x="3694.197266" xlink:href="#DejaVuSans-65"/>
    <use x="3755.720703" xlink:href="#DejaVuSans-17c"/>
    <use x="3808.210938" xlink:href="#DejaVuSans-6e"/>
    <use x="3871.589844" xlink:href="#DejaVuSans-6f"/>
    <use x="3932.771484" xlink:href="#DejaVuSans-15b"/>
    <use x="3984.871094" xlink:href="#DejaVuSans-63"/>
    <use x="4039.851562" xlink:href="#DejaVuSans-69"/>
    <use x="4067.634766" xlink:href="#DejaVuSans-20"/>
    <use x="4099.421875" xlink:href="#DejaVuSans-6f"/>
    <use x="4160.603516" xlink:href="#DejaVuSans-64"/>
    <use x="4224.080078" xlink:href="#DejaVuSans-20"/>
    <use x="4255.867188" xlink:href="#DejaVuSans-77"/>
    <use x="4337.654297" xlink:href="#DejaVuSans-79"/>
    <use x="4396.833984" xlink:href="#DejaVuSans-62"/>
    <use x="4460.310547" xlink:href="#DejaVuSans-72"/>
    <use x="4501.423828" xlink:href="#DejaVuSans-61"/>
    <use x="4562.703125" xlink:href="#DejaVuSans-6e"/>
    <use x="4626.082031" xlink:href="#DejaVuSans-79"/>
    <use x="4685.261719" xlink:href="#DejaVuSans-63"/>
    <use x="4740.242188" xlink:href="#DejaVuSans-68"/>
    <use x="4803.621094" xlink:href="#DejaVuSans-20"/>
    <use x="4835.408203" xlink:href="#DejaVuSans-66"/>
    <use x="4870.613281" xlink:href="#DejaVuSans-75"/>
    <use x="4933.992188" xlink:href="#DejaVuSans-6e"/>
    <use x="4997.371094" xlink:href="#DejaVuSans-6b"/>
    <use x="5055.28125" xlink:href="#DejaVuSans-63"/>
    <use x="5110.261719" xlink:href="#DejaVuSans-6a"/>
    <use x="5138.044922" xlink:href="#DejaVuSans-69"/>
    <use x="5165.828125" xlink:href="#DejaVuSans-20"/>
    <use x="5197.615234" xlink:href="#DejaVuSans-69"/>
    <use x="5225.398438" xlink:href="#DejaVuSans-20"/>
    <use x="5257.185547" xlink:href="#DejaVuSans-6d"/>
    <use x="5354.597656" xlink:href="#DejaVuSans-65"/>
    <use x="5416.121094" xlink:href="#DejaVuSans-74"/>
    <use x="5455.330078" xlink:href="#DejaVuSans-6f"/>
    <use x="5516.511719" xlink:href="#DejaVuSans-64"/>
    <use x="5579.988281" xlink:href="#DejaVuSans-20"/>
    <use x="5611.775391" xlink:href="#DejaVuSans-69"/>
    <use x="5639.558594" xlink:href="#DejaVuSans-74"/>
    <use x="5678.767578" xlink:href="#DejaVuSans-65"/>
    <use x="5740.291016" xlink:href="#DejaVuSans-72"/>
    <use x="5781.404297" xlink:href="#DejaVuSans-61"/>
    <use x="5842.683594" xlink:href="#DejaVuSans-63"/>
    <use x="5897.664062" xlink:href="#DejaVuSans-79"/>
    <use x="5956.84375" xlink:href="#DejaVuSans-6a"/>
    <use x="5984.626953" xlink:href="#DejaVuSans-6e"/>
    <use x="6048.005859" xlink:href="#DejaVuSans-79"/>
    <use x="6107.185547" xlink:href="#DejaVuSans-63"/>
    <use x="6162.166016" xlink:href="#DejaVuSans-68"/>
   </g>
  </g>
 </g>
 <defs>
  <clipPath id="p3ac2e45912">
   <rect height="544.453604" width="485.021359" x="189.978641" y="73.580312"/>
  </clipPath>
  <clipPath id="p2201360a83">
   <rect height="544.453604" width="485.021359" x="864.978641" y="73.580312"/>
  </clipPath>
 </defs>
</svg>
