<?xml version="1.0" encoding="utf-8" standalone="no"?>
<!DOCTYPE svg PUBLIC "-//W3C//DTD SVG 1.1//EN"
  "http://www.w3.org/Graphics/SVG/1.1/DTD/svg11.dtd">
<svg height="703.44pt" version="1.1" viewBox="0 0 1382.4 703.44" width="1382.4pt" xmlns="http://www.w3.org/2000/svg" xmlns:xlink="http://www.w3.org/1999/xlink">
 <metadata>
  <rdf:RDF xmlns:cc="http://creativecommons.org/ns#" xmlns:dc="http://purl.org/dc/elements/1.1/" xmlns:rdf="http://www.w3.org/1999/02/22-rdf-syntax-ns#">
   <cc:Work>
    <dc:type rdf:resource="http://purl.org/dc/dcmitype/StillImage"/>
    <dc:date>2021-12-28T22:28:11.054342</dc:date>
    <dc:format>image/svg+xml</dc:format>
    <dc:creator>
     <cc:Agent>
      <dc:title>Matplotlib v3.4.3, https://matplotlib.org/</dc:title>
     </cc:Agent>
    </dc:creator>
   </cc:Work>
  </rdf:RDF>
 </metadata>
 <defs>
  <style type="text/css">*{stroke-linecap:butt;stroke-linejoin:round;}</style>
 </defs>
 <g id="figure_1">
  <g id="patch_1">
   <path d="M 0 703.44 
L 1382.4 703.44 
L 1382.4 0 
L 0 0 
z
" style="fill:#ffffff;"/>
  </g>
  <g id="axes_1">
   <g id="patch_2">
    <path d="M 172.8 626.0616 
L 1244.16 626.0616 
L 1244.16 84.4128 
L 172.8 84.4128 
z
" style="fill:#ffffff;"/>
   </g>
   <g id="PathCollection_1">
    <defs>
     <path d="M 0 1.5 
C 0.397805 1.5 0.77937 1.341951 1.06066 1.06066 
C 1.341951 0.77937 1.5 0.397805 1.5 0 
C 1.5 -0.397805 1.341951 -0.77937 1.06066 -1.06066 
C 0.77937 -1.341951 0.397805 -1.5 0 -1.5 
C -0.397805 -1.5 -0.77937 -1.341951 -1.06066 -1.06066 
C -1.341951 -0.77937 -1.5 -0.397805 -1.5 0 
C -1.5 0.397805 -1.341951 0.77937 -1.06066 1.06066 
C -0.77937 1.341951 -0.397805 1.5 0 1.5 
z
" id="mb36541e91e" style="stroke:#1f77b4;"/>
    </defs>
    <g clip-path="url(#p61f42315d4)">
     <use style="fill:#1f77b4;stroke:#1f77b4;" x="708.48" xlink:href="#mb36541e91e" y="109.0332"/>
    </g>
   </g>
   <g id="matplotlib.axis_1">
    <g id="xtick_1">
     <g id="line2d_1">
      <path clip-path="url(#p61f42315d4)" d="M 221.498182 626.0616 
L 221.498182 84.4128 
" style="fill:none;stroke:#b0b0b0;stroke-linecap:square;stroke-width:0.8;"/>
     </g>
     <g id="line2d_2">
      <defs>
       <path d="M 0 0 
L 0 3.5 
" id="m5cf422025b" style="stroke:#000000;stroke-width:0.8;"/>
      </defs>
      <g>
       <use style="stroke:#000000;stroke-width:0.8;" x="221.498182" xlink:href="#m5cf422025b" y="626.0616"/>
      </g>
     </g>
     <g id="text_1">
      <!-- −1.00 -->
      <g transform="translate(206.175526 640.660037)scale(0.1 -0.1)">
       <defs>
        <path d="M 678 2272 
L 4684 2272 
L 4684 1741 
L 678 1741 
L 678 2272 
z
" id="DejaVuSans-2212" transform="scale(0.015625)"/>
        <path d="M 794 531 
L 1825 531 
L 1825 4091 
L 703 3866 
L 703 4441 
L 1819 4666 
L 2450 4666 
L 2450 531 
L 3481 531 
L 3481 0 
L 794 0 
L 794 531 
z
" id="DejaVuSans-31" transform="scale(0.015625)"/>
        <path d="M 684 794 
L 1344 794 
L 1344 0 
L 684 0 
L 684 794 
z
" id="DejaVuSans-2e" transform="scale(0.015625)"/>
        <path d="M 2034 4250 
Q 1547 4250 1301 3770 
Q 1056 3291 1056 2328 
Q 1056 1369 1301 889 
Q 1547 409 2034 409 
Q 2525 409 2770 889 
Q 3016 1369 3016 2328 
Q 3016 3291 2770 3770 
Q 2525 4250 2034 4250 
z
M 2034 4750 
Q 2819 4750 3233 4129 
Q 3647 3509 3647 2328 
Q 3647 1150 3233 529 
Q 2819 -91 2034 -91 
Q 1250 -91 836 529 
Q 422 1150 422 2328 
Q 422 3509 836 4129 
Q 1250 4750 2034 4750 
z
" id="DejaVuSans-30" transform="scale(0.015625)"/>
       </defs>
       <use xlink:href="#DejaVuSans-2212"/>
       <use x="83.789062" xlink:href="#DejaVuSans-31"/>
       <use x="147.412109" xlink:href="#DejaVuSans-2e"/>
       <use x="179.199219" xlink:href="#DejaVuSans-30"/>
       <use x="242.822266" xlink:href="#DejaVuSans-30"/>
      </g>
     </g>
    </g>
    <g id="xtick_2">
     <g id="line2d_3">
      <path clip-path="url(#p61f42315d4)" d="M 343.243636 626.0616 
L 343.243636 84.4128 
" style="fill:none;stroke:#b0b0b0;stroke-linecap:square;stroke-width:0.8;"/>
     </g>
     <g id="line2d_4">
      <g>
       <use style="stroke:#000000;stroke-width:0.8;" x="343.243636" xlink:href="#m5cf422025b" y="626.0616"/>
      </g>
     </g>
     <g id="text_2">
      <!-- −0.75 -->
      <g transform="translate(327.92098 640.660037)scale(0.1 -0.1)">
       <defs>
        <path d="M 525 4666 
L 3525 4666 
L 3525 4397 
L 1831 0 
L 1172 0 
L 2766 4134 
L 525 4134 
L 525 4666 
z
" id="DejaVuSans-37" transform="scale(0.015625)"/>
        <path d="M 691 4666 
L 3169 4666 
L 3169 4134 
L 1269 4134 
L 1269 2991 
Q 1406 3038 1543 3061 
Q 1681 3084 1819 3084 
Q 2600 3084 3056 2656 
Q 3513 2228 3513 1497 
Q 3513 744 3044 326 
Q 2575 -91 1722 -91 
Q 1428 -91 1123 -41 
Q 819 9 494 109 
L 494 744 
Q 775 591 1075 516 
Q 1375 441 1709 441 
Q 2250 441 2565 725 
Q 2881 1009 2881 1497 
Q 2881 1984 2565 2268 
Q 2250 2553 1709 2553 
Q 1456 2553 1204 2497 
Q 953 2441 691 2322 
L 691 4666 
z
" id="DejaVuSans-35" transform="scale(0.015625)"/>
       </defs>
       <use xlink:href="#DejaVuSans-2212"/>
       <use x="83.789062" xlink:href="#DejaVuSans-30"/>
       <use x="147.412109" xlink:href="#DejaVuSans-2e"/>
       <use x="179.199219" xlink:href="#DejaVuSans-37"/>
       <use x="242.822266" xlink:href="#DejaVuSans-35"/>
      </g>
     </g>
    </g>
    <g id="xtick_3">
     <g id="line2d_5">
      <path clip-path="url(#p61f42315d4)" d="M 464.989091 626.0616 
L 464.989091 84.4128 
" style="fill:none;stroke:#b0b0b0;stroke-linecap:square;stroke-width:0.8;"/>
     </g>
     <g id="line2d_6">
      <g>
       <use style="stroke:#000000;stroke-width:0.8;" x="464.989091" xlink:href="#m5cf422025b" y="626.0616"/>
      </g>
     </g>
     <g id="text_3">
      <!-- −0.50 -->
      <g transform="translate(449.666435 640.660037)scale(0.1 -0.1)">
       <use xlink:href="#DejaVuSans-2212"/>
       <use x="83.789062" xlink:href="#DejaVuSans-30"/>
       <use x="147.412109" xlink:href="#DejaVuSans-2e"/>
       <use x="179.199219" xlink:href="#DejaVuSans-35"/>
       <use x="242.822266" xlink:href="#DejaVuSans-30"/>
      </g>
     </g>
    </g>
    <g id="xtick_4">
     <g id="line2d_7">
      <path clip-path="url(#p61f42315d4)" d="M 586.734545 626.0616 
L 586.734545 84.4128 
" style="fill:none;stroke:#b0b0b0;stroke-linecap:square;stroke-width:0.8;"/>
     </g>
     <g id="line2d_8">
      <g>
       <use style="stroke:#000000;stroke-width:0.8;" x="586.734545" xlink:href="#m5cf422025b" y="626.0616"/>
      </g>
     </g>
     <g id="text_4">
      <!-- −0.25 -->
      <g transform="translate(571.411889 640.660037)scale(0.1 -0.1)">
       <defs>
        <path d="M 1228 531 
L 3431 531 
L 3431 0 
L 469 0 
L 469 531 
Q 828 903 1448 1529 
Q 2069 2156 2228 2338 
Q 2531 2678 2651 2914 
Q 2772 3150 2772 3378 
Q 2772 3750 2511 3984 
Q 2250 4219 1831 4219 
Q 1534 4219 1204 4116 
Q 875 4013 500 3803 
L 500 4441 
Q 881 4594 1212 4672 
Q 1544 4750 1819 4750 
Q 2544 4750 2975 4387 
Q 3406 4025 3406 3419 
Q 3406 3131 3298 2873 
Q 3191 2616 2906 2266 
Q 2828 2175 2409 1742 
Q 1991 1309 1228 531 
z
" id="DejaVuSans-32" transform="scale(0.015625)"/>
       </defs>
       <use xlink:href="#DejaVuSans-2212"/>
       <use x="83.789062" xlink:href="#DejaVuSans-30"/>
       <use x="147.412109" xlink:href="#DejaVuSans-2e"/>
       <use x="179.199219" xlink:href="#DejaVuSans-32"/>
       <use x="242.822266" xlink:href="#DejaVuSans-35"/>
      </g>
     </g>
    </g>
    <g id="xtick_5">
     <g id="line2d_9">
      <path clip-path="url(#p61f42315d4)" d="M 708.48 626.0616 
L 708.48 84.4128 
" style="fill:none;stroke:#b0b0b0;stroke-linecap:square;stroke-width:0.8;"/>
     </g>
     <g id="line2d_10">
      <g>
       <use style="stroke:#000000;stroke-width:0.8;" x="708.48" xlink:href="#m5cf422025b" y="626.0616"/>
      </g>
     </g>
     <g id="text_5">
      <!-- 0.00 -->
      <g transform="translate(697.347187 640.660037)scale(0.1 -0.1)">
       <use xlink:href="#DejaVuSans-30"/>
       <use x="63.623047" xlink:href="#DejaVuSans-2e"/>
       <use x="95.410156" xlink:href="#DejaVuSans-30"/>
       <use x="159.033203" xlink:href="#DejaVuSans-30"/>
      </g>
     </g>
    </g>
    <g id="xtick_6">
     <g id="line2d_11">
      <path clip-path="url(#p61f42315d4)" d="M 830.225455 626.0616 
L 830.225455 84.4128 
" style="fill:none;stroke:#b0b0b0;stroke-linecap:square;stroke-width:0.8;"/>
     </g>
     <g id="line2d_12">
      <g>
       <use style="stroke:#000000;stroke-width:0.8;" x="830.225455" xlink:href="#m5cf422025b" y="626.0616"/>
      </g>
     </g>
     <g id="text_6">
      <!-- 0.25 -->
      <g transform="translate(819.092642 640.660037)scale(0.1 -0.1)">
       <use xlink:href="#DejaVuSans-30"/>
       <use x="63.623047" xlink:href="#DejaVuSans-2e"/>
       <use x="95.410156" xlink:href="#DejaVuSans-32"/>
       <use x="159.033203" xlink:href="#DejaVuSans-35"/>
      </g>
     </g>
    </g>
    <g id="xtick_7">
     <g id="line2d_13">
      <path clip-path="url(#p61f42315d4)" d="M 951.970909 626.0616 
L 951.970909 84.4128 
" style="fill:none;stroke:#b0b0b0;stroke-linecap:square;stroke-width:0.8;"/>
     </g>
     <g id="line2d_14">
      <g>
       <use style="stroke:#000000;stroke-width:0.8;" x="951.970909" xlink:href="#m5cf422025b" y="626.0616"/>
      </g>
     </g>
     <g id="text_7">
      <!-- 0.50 -->
      <g transform="translate(940.838097 640.660037)scale(0.1 -0.1)">
       <use xlink:href="#DejaVuSans-30"/>
       <use x="63.623047" xlink:href="#DejaVuSans-2e"/>
       <use x="95.410156" xlink:href="#DejaVuSans-35"/>
       <use x="159.033203" xlink:href="#DejaVuSans-30"/>
      </g>
     </g>
    </g>
    <g id="xtick_8">
     <g id="line2d_15">
      <path clip-path="url(#p61f42315d4)" d="M 1073.716364 626.0616 
L 1073.716364 84.4128 
" style="fill:none;stroke:#b0b0b0;stroke-linecap:square;stroke-width:0.8;"/>
     </g>
     <g id="line2d_16">
      <g>
       <use style="stroke:#000000;stroke-width:0.8;" x="1073.716364" xlink:href="#m5cf422025b" y="626.0616"/>
      </g>
     </g>
     <g id="text_8">
      <!-- 0.75 -->
      <g transform="translate(1062.583551 640.660037)scale(0.1 -0.1)">
       <use xlink:href="#DejaVuSans-30"/>
       <use x="63.623047" xlink:href="#DejaVuSans-2e"/>
       <use x="95.410156" xlink:href="#DejaVuSans-37"/>
       <use x="159.033203" xlink:href="#DejaVuSans-35"/>
      </g>
     </g>
    </g>
    <g id="xtick_9">
     <g id="line2d_17">
      <path clip-path="url(#p61f42315d4)" d="M 1195.461818 626.0616 
L 1195.461818 84.4128 
" style="fill:none;stroke:#b0b0b0;stroke-linecap:square;stroke-width:0.8;"/>
     </g>
     <g id="line2d_18">
      <g>
       <use style="stroke:#000000;stroke-width:0.8;" x="1195.461818" xlink:href="#m5cf422025b" y="626.0616"/>
      </g>
     </g>
     <g id="text_9">
      <!-- 1.00 -->
      <g transform="translate(1184.329006 640.660037)scale(0.1 -0.1)">
       <use xlink:href="#DejaVuSans-31"/>
       <use x="63.623047" xlink:href="#DejaVuSans-2e"/>
       <use x="95.410156" xlink:href="#DejaVuSans-30"/>
       <use x="159.033203" xlink:href="#DejaVuSans-30"/>
      </g>
     </g>
    </g>
   </g>
   <g id="matplotlib.axis_2">
    <g id="ytick_1">
     <g id="line2d_19">
      <path clip-path="url(#p61f42315d4)" d="M 172.8 582.597296 
L 1244.16 582.597296 
" style="fill:none;stroke:#b0b0b0;stroke-linecap:square;stroke-width:0.8;"/>
     </g>
     <g id="line2d_20">
      <defs>
       <path d="M 0 0 
L -3.5 0 
" id="mc360b1c48f" style="stroke:#000000;stroke-width:0.8;"/>
      </defs>
      <g>
       <use style="stroke:#000000;stroke-width:0.8;" x="172.8" xlink:href="#mc360b1c48f" y="582.597296"/>
      </g>
     </g>
     <g id="text_10">
      <!-- 0.0 -->
      <g transform="translate(149.896875 586.396514)scale(0.1 -0.1)">
       <use xlink:href="#DejaVuSans-30"/>
       <use x="63.623047" xlink:href="#DejaVuSans-2e"/>
       <use x="95.410156" xlink:href="#DejaVuSans-30"/>
      </g>
     </g>
    </g>
    <g id="ytick_2">
     <g id="line2d_21">
      <path clip-path="url(#p61f42315d4)" d="M 172.8 487.884477 
L 1244.16 487.884477 
" style="fill:none;stroke:#b0b0b0;stroke-linecap:square;stroke-width:0.8;"/>
     </g>
     <g id="line2d_22">
      <g>
       <use style="stroke:#000000;stroke-width:0.8;" x="172.8" xlink:href="#mc360b1c48f" y="487.884477"/>
      </g>
     </g>
     <g id="text_11">
      <!-- 0.2 -->
      <g transform="translate(149.896875 491.683695)scale(0.1 -0.1)">
       <use xlink:href="#DejaVuSans-30"/>
       <use x="63.623047" xlink:href="#DejaVuSans-2e"/>
       <use x="95.410156" xlink:href="#DejaVuSans-32"/>
      </g>
     </g>
    </g>
    <g id="ytick_3">
     <g id="line2d_23">
      <path clip-path="url(#p61f42315d4)" d="M 172.8 393.171657 
L 1244.16 393.171657 
" style="fill:none;stroke:#b0b0b0;stroke-linecap:square;stroke-width:0.8;"/>
     </g>
     <g id="line2d_24">
      <g>
       <use style="stroke:#000000;stroke-width:0.8;" x="172.8" xlink:href="#mc360b1c48f" y="393.171657"/>
      </g>
     </g>
     <g id="text_12">
      <!-- 0.4 -->
      <g transform="translate(149.896875 396.970876)scale(0.1 -0.1)">
       <defs>
        <path d="M 2419 4116 
L 825 1625 
L 2419 1625 
L 2419 4116 
z
M 2253 4666 
L 3047 4666 
L 3047 1625 
L 3713 1625 
L 3713 1100 
L 3047 1100 
L 3047 0 
L 2419 0 
L 2419 1100 
L 313 1100 
L 313 1709 
L 2253 4666 
z
" id="DejaVuSans-34" transform="scale(0.015625)"/>
       </defs>
       <use xlink:href="#DejaVuSans-30"/>
       <use x="63.623047" xlink:href="#DejaVuSans-2e"/>
       <use x="95.410156" xlink:href="#DejaVuSans-34"/>
      </g>
     </g>
    </g>
    <g id="ytick_4">
     <g id="line2d_25">
      <path clip-path="url(#p61f42315d4)" d="M 172.8 298.458838 
L 1244.16 298.458838 
" style="fill:none;stroke:#b0b0b0;stroke-linecap:square;stroke-width:0.8;"/>
     </g>
     <g id="line2d_26">
      <g>
       <use style="stroke:#000000;stroke-width:0.8;" x="172.8" xlink:href="#mc360b1c48f" y="298.458838"/>
      </g>
     </g>
     <g id="text_13">
      <!-- 0.6 -->
      <g transform="translate(149.896875 302.258057)scale(0.1 -0.1)">
       <defs>
        <path d="M 2113 2584 
Q 1688 2584 1439 2293 
Q 1191 2003 1191 1497 
Q 1191 994 1439 701 
Q 1688 409 2113 409 
Q 2538 409 2786 701 
Q 3034 994 3034 1497 
Q 3034 2003 2786 2293 
Q 2538 2584 2113 2584 
z
M 3366 4563 
L 3366 3988 
Q 3128 4100 2886 4159 
Q 2644 4219 2406 4219 
Q 1781 4219 1451 3797 
Q 1122 3375 1075 2522 
Q 1259 2794 1537 2939 
Q 1816 3084 2150 3084 
Q 2853 3084 3261 2657 
Q 3669 2231 3669 1497 
Q 3669 778 3244 343 
Q 2819 -91 2113 -91 
Q 1303 -91 875 529 
Q 447 1150 447 2328 
Q 447 3434 972 4092 
Q 1497 4750 2381 4750 
Q 2619 4750 2861 4703 
Q 3103 4656 3366 4563 
z
" id="DejaVuSans-36" transform="scale(0.015625)"/>
       </defs>
       <use xlink:href="#DejaVuSans-30"/>
       <use x="63.623047" xlink:href="#DejaVuSans-2e"/>
       <use x="95.410156" xlink:href="#DejaVuSans-36"/>
      </g>
     </g>
    </g>
    <g id="ytick_5">
     <g id="line2d_27">
      <path clip-path="url(#p61f42315d4)" d="M 172.8 203.746019 
L 1244.16 203.746019 
" style="fill:none;stroke:#b0b0b0;stroke-linecap:square;stroke-width:0.8;"/>
     </g>
     <g id="line2d_28">
      <g>
       <use style="stroke:#000000;stroke-width:0.8;" x="172.8" xlink:href="#mc360b1c48f" y="203.746019"/>
      </g>
     </g>
     <g id="text_14">
      <!-- 0.8 -->
      <g transform="translate(149.896875 207.545238)scale(0.1 -0.1)">
       <defs>
        <path d="M 2034 2216 
Q 1584 2216 1326 1975 
Q 1069 1734 1069 1313 
Q 1069 891 1326 650 
Q 1584 409 2034 409 
Q 2484 409 2743 651 
Q 3003 894 3003 1313 
Q 3003 1734 2745 1975 
Q 2488 2216 2034 2216 
z
M 1403 2484 
Q 997 2584 770 2862 
Q 544 3141 544 3541 
Q 544 4100 942 4425 
Q 1341 4750 2034 4750 
Q 2731 4750 3128 4425 
Q 3525 4100 3525 3541 
Q 3525 3141 3298 2862 
Q 3072 2584 2669 2484 
Q 3125 2378 3379 2068 
Q 3634 1759 3634 1313 
Q 3634 634 3220 271 
Q 2806 -91 2034 -91 
Q 1263 -91 848 271 
Q 434 634 434 1313 
Q 434 1759 690 2068 
Q 947 2378 1403 2484 
z
M 1172 3481 
Q 1172 3119 1398 2916 
Q 1625 2713 2034 2713 
Q 2441 2713 2670 2916 
Q 2900 3119 2900 3481 
Q 2900 3844 2670 4047 
Q 2441 4250 2034 4250 
Q 1625 4250 1398 4047 
Q 1172 3844 1172 3481 
z
" id="DejaVuSans-38" transform="scale(0.015625)"/>
       </defs>
       <use xlink:href="#DejaVuSans-30"/>
       <use x="63.623047" xlink:href="#DejaVuSans-2e"/>
       <use x="95.410156" xlink:href="#DejaVuSans-38"/>
      </g>
     </g>
    </g>
    <g id="ytick_6">
     <g id="line2d_29">
      <path clip-path="url(#p61f42315d4)" d="M 172.8 109.0332 
L 1244.16 109.0332 
" style="fill:none;stroke:#b0b0b0;stroke-linecap:square;stroke-width:0.8;"/>
     </g>
     <g id="line2d_30">
      <g>
       <use style="stroke:#000000;stroke-width:0.8;" x="172.8" xlink:href="#mc360b1c48f" y="109.0332"/>
      </g>
     </g>
     <g id="text_15">
      <!-- 1.0 -->
      <g transform="translate(149.896875 112.832419)scale(0.1 -0.1)">
       <use xlink:href="#DejaVuSans-31"/>
       <use x="63.623047" xlink:href="#DejaVuSans-2e"/>
       <use x="95.410156" xlink:href="#DejaVuSans-30"/>
      </g>
     </g>
    </g>
   </g>
   <g id="line2d_31">
    <path clip-path="url(#p61f42315d4)" d="M 221.498182 564.383292 
L 243.921769 562.658346 
L 264.395479 560.863787 
L 282.919312 559.026795 
L 300.468206 557.067279 
L 317.042162 554.988276 
L 331.666241 552.940497 
L 345.315381 550.82176 
L 358.964521 548.47385 
L 371.638722 546.059492 
L 383.337985 543.603184 
L 394.06231 541.134628 
L 404.786634 538.432502 
L 414.53602 535.748876 
L 424.285405 532.823079 
L 433.059853 529.959237 
L 441.8343 526.852445 
L 449.633808 523.865357 
L 457.433317 520.644142 
L 465.232826 517.16524 
L 472.057396 513.889179 
L 478.881966 510.376091 
L 485.706536 506.604328 
L 492.531106 502.54998 
L 498.380737 498.829968 
L 504.230369 494.864762 
L 510.08 490.634529 
L 515.929631 486.117703 
L 521.779263 481.290855 
L 527.628894 476.12857 
L 532.503587 471.550643 
L 537.37828 466.703616 
L 542.252973 461.569307 
L 547.127666 456.12843 
L 552.002359 450.360585 
L 556.877052 444.244297 
L 561.751744 437.757064 
L 566.626437 430.875467 
L 571.50113 423.575322 
L 576.375823 415.831909 
L 581.250516 407.62029 
L 586.125209 398.915731 
L 590.999902 389.694265 
L 595.874595 379.933414 
L 600.749287 369.613112 
L 605.62398 358.71685 
L 610.498673 347.233092 
L 615.373366 335.156978 
L 620.248059 322.492354 
L 625.122752 309.25413 
L 630.972383 292.65257 
L 636.822015 275.348919 
L 643.646585 254.442242 
L 654.370909 220.722845 
L 663.145356 193.363791 
L 668.994988 175.878822 
L 672.894742 164.805059 
L 676.794496 154.356713 
L 679.719312 147.015622 
L 682.644128 140.165225 
L 685.568943 133.864126 
L 688.493759 128.168809 
L 691.418575 123.132494 
L 693.368452 120.16538 
L 695.318329 117.5261 
L 697.268206 115.226559 
L 699.218084 113.277297 
L 701.167961 111.687374 
L 703.117838 110.464263 
L 705.067715 109.613765 
L 707.017592 109.139941 
L 708.967469 109.045063 
L 710.917346 109.329585 
L 712.867224 109.992142 
L 714.817101 111.029564 
L 716.766978 112.436913 
L 718.716855 114.207541 
L 720.666732 116.33317 
L 722.616609 118.803986 
L 724.566486 121.608752 
L 726.516364 124.734927 
L 728.466241 128.168809 
L 731.391057 133.864126 
L 734.315872 140.165225 
L 737.240688 147.015622 
L 740.165504 154.356713 
L 744.065258 164.805059 
L 747.965012 175.878822 
L 752.839705 190.392114 
L 759.664275 211.517056 
L 778.188108 269.445096 
L 785.012678 289.814599 
L 790.86231 306.539899 
L 795.737002 319.889897 
L 800.611695 332.670832 
L 805.486388 344.865274 
L 810.361081 356.467362 
L 815.235774 367.480387 
L 820.110467 377.914697 
L 824.98516 387.785929 
L 829.859853 397.113536 
L 834.734545 405.919596 
L 839.609238 414.22784 
L 844.483931 422.062898 
L 849.358624 429.449707 
L 854.233317 436.413058 
L 859.10801 442.977263 
L 863.982703 449.165909 
L 868.857396 455.00169 
L 873.732088 460.506294 
L 878.606781 465.700338 
L 883.481474 470.603331 
L 888.356167 475.233677 
L 894.205799 480.454485 
L 900.05543 485.335419 
L 905.905061 489.902236 
L 911.754693 494.178688 
L 917.604324 498.186643 
L 923.453956 501.946213 
L 930.278526 506.043024 
L 937.103096 509.853637 
L 943.927666 513.402303 
L 950.752236 516.710979 
L 958.551744 520.223883 
L 966.351253 523.475967 
L 974.150762 526.49112 
L 982.925209 529.626497 
L 991.699656 532.516111 
L 1000.474103 535.183952 
L 1010.223489 537.9139 
L 1019.972875 540.422002 
L 1030.697199 542.951594 
L 1042.396462 545.467016 
L 1054.095725 547.756416 
L 1066.769926 550.011138 
L 1080.419066 552.208241 
L 1095.043145 554.329394 
L 1110.642162 556.360632 
L 1127.216118 558.291983 
L 1144.765012 560.116995 
L 1164.263784 561.917101 
L 1185.712432 563.661563 
L 1195.461818 564.383292 
L 1195.461818 564.383292 
" style="fill:none;stroke:#1f77b4;stroke-linecap:square;stroke-width:5;"/>
   </g>
   <g id="line2d_32">
    <path clip-path="url(#p61f42315d4)" d="M 221.498182 564.383292 
L 279.019558 541.722904 
L 309.242654 530.057835 
L 334.591057 520.502131 
L 357.014644 512.274638 
L 378.463292 504.643854 
L 397.962064 497.941243 
L 416.485897 491.806824 
L 434.034791 486.226771 
L 450.608747 481.182188 
L 467.182703 476.374073 
L 482.78172 472.080119 
L 498.380737 468.025046 
L 513.004816 464.453049 
L 527.628894 461.11529 
L 541.278034 458.22175 
L 554.927174 455.551627 
L 568.576314 453.108681 
L 582.225455 450.892986 
L 595.874595 448.904542 
L 609.523735 447.143348 
L 623.172875 445.609406 
L 636.822015 444.302714 
L 650.471155 443.223273 
L 664.120295 442.371082 
L 677.769435 441.746143 
L 691.418575 441.348454 
L 705.067715 441.178016 
L 718.716855 441.234828 
L 732.365995 441.518892 
L 746.015135 442.030206 
L 759.664275 442.768771 
L 773.313415 443.734587 
L 786.962555 444.927653 
L 800.611695 446.347971 
L 814.260835 447.995539 
L 827.909975 449.870357 
L 841.559115 451.972427 
L 855.208256 454.301747 
L 868.857396 456.858318 
L 882.506536 459.641137 
L 896.155676 462.643013 
L 910.779754 466.091546 
L 925.403833 469.768833 
L 941.00285 473.930172 
L 956.601867 478.324151 
L 973.175823 483.231706 
L 989.749779 488.368686 
L 1007.298673 494.038893 
L 1025.822506 500.259908 
L 1045.321278 507.044168 
L 1066.769926 514.753505 
L 1089.193514 523.050509 
L 1114.541916 532.669265 
L 1144.765012 544.387978 
L 1186.687371 560.908865 
L 1195.461818 564.383292 
L 1195.461818 564.383292 
" style="fill:none;stroke:#ff7f0e;stroke-linecap:square;stroke-width:1.5;"/>
   </g>
   <g id="line2d_33">
    <path clip-path="url(#p61f42315d4)" d="M 221.498182 564.383292 
L 242.94683 574.350029 
L 254.646093 579.549558 
L 264.395479 583.654419 
L 273.169926 587.116557 
L 280.969435 589.971239 
L 288.768943 592.583079 
L 295.593514 594.644194 
L 302.418084 596.473662 
L 309.242654 598.050147 
L 315.092285 599.183894 
L 320.941916 600.102664 
L 326.791548 600.793023 
L 332.641179 601.241533 
L 338.490811 601.434758 
L 343.365504 601.391078 
L 348.240197 601.15301 
L 353.114889 600.712781 
L 357.989582 600.062613 
L 362.864275 599.194733 
L 367.738968 598.101363 
L 372.613661 596.77473 
L 377.488354 595.207057 
L 382.363047 593.390569 
L 387.23774 591.317491 
L 392.112432 588.980046 
L 396.987125 586.37046 
L 401.861818 583.480958 
L 406.736511 580.303762 
L 411.611204 576.831099 
L 416.485897 573.055193 
L 421.36059 568.968268 
L 426.235283 564.562548 
L 431.109975 559.830259 
L 435.984668 554.763625 
L 440.859361 549.354869 
L 445.734054 543.596218 
L 450.608747 537.479895 
L 455.48344 530.998125 
L 460.358133 524.143132 
L 465.232826 516.907142 
L 470.107518 509.288024 
L 474.982211 501.303086 
L 480.831843 491.268537 
L 486.681474 480.77529 
L 492.531106 469.860481 
L 499.355676 456.64327 
L 506.180246 442.961782 
L 513.979754 426.832939 
L 522.754201 408.164816 
L 533.478526 384.772452 
L 548.102604 352.244221 
L 574.425946 293.585025 
L 585.15027 270.281686 
L 593.924717 251.713888 
L 601.724226 235.69499 
L 608.548796 222.125737 
L 615.373366 209.035728 
L 621.222998 198.241857 
L 627.072629 187.880544 
L 632.92226 177.988924 
L 637.796953 170.131492 
L 642.671646 162.647515 
L 647.546339 155.558483 
L 652.421032 148.885887 
L 657.295725 142.651217 
L 661.195479 137.99323 
L 665.095233 133.640272 
L 668.994988 129.603348 
L 672.894742 125.89346 
L 676.794496 122.521612 
L 680.694251 119.498806 
L 684.594005 116.836046 
L 687.518821 115.081875 
L 690.443636 113.54106 
L 693.368452 112.218245 
L 696.293268 111.118071 
L 699.218084 110.24518 
L 702.142899 109.604213 
L 705.067715 109.199813 
L 707.992531 109.036622 
L 710.917346 109.118386 
L 713.842162 109.442899 
L 716.766978 110.005525 
L 719.691794 110.801624 
L 722.616609 111.826553 
L 725.541425 113.075671 
L 728.466241 114.544334 
L 731.391057 116.227902 
L 734.315872 118.121732 
L 737.240688 120.221183 
L 741.140442 123.332281 
L 745.040197 126.789671 
L 748.939951 130.582349 
L 752.839705 134.699313 
L 756.739459 139.12956 
L 760.639214 143.862085 
L 765.513907 150.186059 
L 770.3886 156.943662 
L 775.263292 164.113402 
L 780.137985 171.67379 
L 785.012678 179.603334 
L 790.86231 189.575815 
L 796.711941 200.0118 
L 802.561572 210.874153 
L 809.386143 224.036236 
L 816.210713 237.669138 
L 824.010221 253.750463 
L 832.784668 272.375339 
L 843.508993 295.729528 
L 857.158133 326.051412 
L 886.40629 391.203308 
L 897.130614 414.441852 
L 905.905061 432.937705 
L 913.70457 448.878345 
L 920.52914 462.368078 
L 927.35371 475.36826 
L 933.203342 486.07693 
L 939.052973 496.34547 
L 944.902604 506.136744 
L 949.777297 513.904769 
L 954.65199 521.294891 
L 959.526683 528.30135 
L 964.401376 534.931476 
L 969.276069 541.193045 
L 974.150762 547.093832 
L 979.025455 552.641612 
L 983.900147 557.844162 
L 988.77484 562.709256 
L 993.649533 567.244671 
L 998.524226 571.458181 
L 1003.398919 575.357561 
L 1008.273612 578.950589 
L 1013.148305 582.245038 
L 1018.022998 585.248685 
L 1022.89769 587.969304 
L 1027.772383 590.414672 
L 1032.647076 592.592564 
L 1037.521769 594.510755 
L 1042.396462 596.177021 
L 1047.271155 597.599137 
L 1052.145848 598.784879 
L 1057.020541 599.742022 
L 1061.895233 600.478341 
L 1066.769926 601.001613 
L 1071.644619 601.319613 
L 1076.519312 601.440115 
L 1081.394005 601.370896 
L 1087.243636 601.048348 
L 1093.093268 600.477235 
L 1098.942899 599.670991 
L 1104.792531 598.643053 
L 1110.642162 597.406857 
L 1117.466732 595.719338 
L 1124.291302 593.78798 
L 1131.115872 591.634119 
L 1138.915381 588.927481 
L 1146.714889 585.989943 
L 1155.489337 582.448869 
L 1165.238722 578.274029 
L 1176.937985 573.015156 
L 1194.48688 564.841333 
L 1195.461818 564.383292 
L 1195.461818 564.383292 
" style="fill:none;stroke:#2ca02c;stroke-linecap:square;stroke-width:1.5;"/>
   </g>
   <g id="line2d_34">
    <path clip-path="url(#p61f42315d4)" d="M 221.498182 564.383292 
L 245.871646 567.159905 
L 259.520786 568.486335 
L 270.245111 569.323554 
L 279.994496 569.880079 
L 288.768943 570.180821 
L 297.543391 570.262308 
L 305.342899 570.127556 
L 313.142408 569.776882 
L 320.941916 569.190203 
L 327.766486 568.46747 
L 334.591057 567.535211 
L 341.415627 566.37997 
L 348.240197 564.988291 
L 355.064767 563.346719 
L 360.914398 561.730563 
L 366.764029 559.912451 
L 372.613661 557.883912 
L 378.463292 555.63647 
L 384.312924 553.161653 
L 390.162555 550.450987 
L 396.012187 547.495997 
L 401.861818 544.288212 
L 407.71145 540.819156 
L 413.561081 537.080356 
L 419.410713 533.063966 
L 425.260344 528.77453 
L 431.109975 524.227954 
L 437.934545 518.620394 
L 444.759115 512.710978 
L 451.583686 506.525627 
L 459.383194 499.152029 
L 468.157641 490.514586 
L 476.932088 481.567923 
L 487.656413 470.293548 
L 500.330614 456.617407 
L 520.804324 434.124623 
L 540.303096 412.800642 
L 552.002359 400.308366 
L 561.751744 390.187606 
L 570.526192 381.370689 
L 578.3257 373.811731 
L 586.125209 366.55501 
L 592.949779 360.483727 
L 599.774349 354.699392 
L 606.598919 349.227926 
L 612.44855 344.806733 
L 618.298182 340.645737 
L 624.147813 336.746165 
L 629.997445 333.108017 
L 635.847076 329.731293 
L 641.696708 326.615993 
L 647.546339 323.762116 
L 653.395971 321.169663 
L 659.245602 318.838634 
L 665.095233 316.769029 
L 670.944865 314.960848 
L 676.794496 313.41409 
L 682.644128 312.128757 
L 688.493759 311.104847 
L 694.343391 310.342361 
L 700.193022 309.841298 
L 706.042654 309.60166 
L 711.892285 309.623445 
L 717.741916 309.906654 
L 723.591548 310.451287 
L 729.441179 311.257344 
L 735.290811 312.324825 
L 741.140442 313.653729 
L 746.990074 315.244057 
L 752.839705 317.095809 
L 758.689337 319.208985 
L 764.538968 321.583584 
L 770.3886 324.219608 
L 776.238231 327.117055 
L 782.087862 330.275926 
L 787.937494 333.696221 
L 793.787125 337.37794 
L 799.636757 341.321082 
L 805.486388 345.525648 
L 811.33602 349.989426 
L 818.16059 355.507174 
L 824.98516 361.334089 
L 831.80973 367.444249 
L 839.609238 374.740866 
L 847.408747 382.334883 
L 856.183194 391.185459 
L 865.93258 401.33644 
L 877.631843 413.855004 
L 893.23086 430.904531 
L 923.453956 464.019858 
L 935.153219 476.484221 
L 944.902604 486.573191 
L 953.677052 495.354868 
L 961.47656 502.877228 
L 969.276069 510.09239 
L 976.100639 516.123238 
L 982.925209 521.863339 
L 989.749779 527.28677 
L 995.59941 531.663733 
L 1001.449042 535.772682 
L 1007.298673 539.603279 
L 1013.148305 543.161308 
L 1018.997936 546.455242 
L 1024.847568 549.493556 
L 1030.697199 552.284722 
L 1036.54683 554.837214 
L 1042.396462 557.159506 
L 1048.246093 559.260071 
L 1054.095725 561.147383 
L 1059.945356 562.829917 
L 1066.769926 564.545358 
L 1073.594496 566.007062 
L 1080.419066 567.228484 
L 1087.243636 568.223079 
L 1094.068206 569.004304 
L 1101.867715 569.653123 
L 1109.667224 570.060914 
L 1117.466732 570.247764 
L 1126.241179 570.218884 
L 1135.015627 569.964394 
L 1144.765012 569.451806 
L 1155.489337 568.653856 
L 1168.163538 567.46399 
L 1183.762555 565.753805 
L 1195.461818 564.383292 
L 1195.461818 564.383292 
" style="fill:none;stroke:#d62728;stroke-linecap:square;stroke-width:1.5;"/>
   </g>
   <g id="line2d_35">
    <path clip-path="url(#p61f42315d4)" d="M 221.498182 564.383292 
L 252.696216 557.417633 
L 269.270172 553.950204 
L 282.919312 551.310558 
L 295.593514 549.087406 
L 307.292776 547.270508 
L 318.017101 545.834868 
L 327.766486 544.744465 
L 337.515872 543.879978 
L 346.290319 543.312228 
L 355.064767 542.959367 
L 363.839214 542.836505 
L 371.638722 542.932595 
L 379.438231 543.232963 
L 387.23774 543.746724 
L 396.987125 544.624809 
L 417.460835 546.538211 
L 425.260344 547.007458 
L 432.084914 547.181709 
L 437.934545 547.104012 
L 442.809238 546.848043 
L 447.683931 546.393089 
L 452.558624 545.715575 
L 457.433317 544.791926 
L 462.30801 543.598568 
L 466.207764 542.433848 
L 470.107518 541.069356 
L 474.007273 539.49302 
L 477.907027 537.692771 
L 481.806781 535.656538 
L 485.706536 533.372251 
L 489.60629 530.827839 
L 493.506044 528.011232 
L 497.405799 524.91036 
L 501.305553 521.513151 
L 505.205307 517.807537 
L 509.105061 513.781446 
L 513.004816 509.422807 
L 516.90457 504.719552 
L 520.804324 499.659608 
L 524.704079 494.230906 
L 528.603833 488.421375 
L 532.503587 482.218945 
L 536.403342 475.611546 
L 540.303096 468.587107 
L 544.20285 461.133557 
L 548.102604 453.239716 
L 552.002359 444.914848 
L 556.877052 433.947998 
L 561.751744 422.413859 
L 567.601376 407.908221 
L 573.451007 392.775024 
L 580.275577 374.464245 
L 588.075086 352.874213 
L 598.79941 322.465474 
L 619.27312 264.231558 
L 627.072629 242.724271 
L 633.897199 224.513045 
L 639.74683 209.48535 
L 645.596462 195.10383 
L 650.471155 183.687345 
L 655.345848 172.851078 
L 659.245602 164.639986 
L 663.145356 156.869083 
L 667.045111 149.568971 
L 670.944865 142.77025 
L 674.844619 136.50352 
L 677.769435 132.171 
L 680.694251 128.167846 
L 683.619066 124.506969 
L 686.543882 121.201279 
L 689.468698 118.263683 
L 692.393514 115.707093 
L 695.318329 113.544417 
L 697.268206 112.327849 
L 699.218084 111.295917 
L 701.167961 110.452446 
L 703.117838 109.80126 
L 705.067715 109.346185 
L 707.017592 109.091046 
L 708.967469 109.039647 
L 710.917346 109.193384 
L 712.867224 109.548969 
L 714.817101 110.102578 
L 716.766978 110.850385 
L 718.716855 111.788564 
L 720.666732 112.913292 
L 722.616609 114.220744 
L 725.541425 116.516159 
L 728.466241 119.201185 
L 731.391057 122.262914 
L 734.315872 125.688434 
L 737.240688 129.464838 
L 740.165504 133.579214 
L 743.090319 138.018655 
L 746.990074 144.421252 
L 750.889828 151.348189 
L 754.789582 158.768867 
L 758.689337 166.652686 
L 762.589091 174.969045 
L 767.463784 185.926137 
L 772.338477 197.451494 
L 778.188108 211.947881 
L 784.03774 227.073232 
L 790.86231 245.376634 
L 798.661818 266.960578 
L 809.386143 297.365023 
L 829.859853 355.603857 
L 837.659361 377.117545 
L 844.483931 395.336421 
L 850.333563 410.372197 
L 856.183194 424.763201 
L 861.057887 436.188664 
L 865.93258 447.034883 
L 869.832334 455.254641 
L 873.732088 463.037834 
L 877.631843 470.382974 
L 881.531597 477.302022 
L 885.431351 483.807047 
L 889.331106 489.910121 
L 893.23086 495.623313 
L 897.130614 500.958693 
L 901.030369 505.928333 
L 904.930123 510.544303 
L 908.829877 514.818673 
L 912.729631 518.763514 
L 916.629386 522.390895 
L 920.52914 525.712888 
L 924.428894 528.741562 
L 928.328649 531.488989 
L 932.228403 533.967238 
L 936.128157 536.18838 
L 940.027912 538.164485 
L 943.927666 539.907624 
L 947.82742 541.429867 
L 951.727174 542.743285 
L 955.626929 543.859948 
L 960.501622 544.997478 
L 965.376314 545.870014 
L 970.251007 546.50113 
L 975.1257 546.914401 
L 980.975332 547.155965 
L 986.824963 547.158518 
L 993.649533 546.913762 
L 1001.449042 546.38657 
L 1012.173366 545.401477 
L 1029.72226 543.746724 
L 1037.521769 543.232963 
L 1045.321278 542.932595 
L 1053.120786 542.836505 
L 1061.895233 542.959367 
L 1070.669681 543.312228 
L 1079.444128 543.879978 
L 1089.193514 544.744465 
L 1098.942899 545.834868 
L 1109.667224 547.270508 
L 1120.391548 548.92684 
L 1132.090811 550.953031 
L 1144.765012 553.36587 
L 1159.389091 556.373344 
L 1177.912924 560.421584 
L 1195.461818 564.383292 
L 1195.461818 564.383292 
" style="fill:none;stroke:#9467bd;stroke-linecap:square;stroke-width:1.5;"/>
   </g>
   <g id="line2d_36">
    <path clip-path="url(#p61f42315d4)" d="M 221.498182 564.383292 
L 253.671155 562.320026 
L 271.220049 560.963931 
L 285.844128 559.611738 
L 298.518329 558.226416 
L 310.217592 556.735863 
L 320.941916 555.163663 
L 331.666241 553.369942 
L 341.415627 551.526953 
L 351.165012 549.467134 
L 361.889337 546.968015 
L 373.5886 544.002499 
L 386.262801 540.55909 
L 401.861818 536.074358 
L 423.310467 529.648888 
L 455.48344 520.009144 
L 473.032334 515.012631 
L 482.78172 512.128522 
L 489.60629 509.876082 
L 495.455921 507.706629 
L 500.330614 505.683084 
L 505.205307 503.425262 
L 510.08 500.897337 
L 513.979754 498.656447 
L 517.879509 496.201419 
L 521.779263 493.51391 
L 525.679017 490.575577 
L 529.578771 487.368076 
L 533.478526 483.873064 
L 537.37828 480.072199 
L 541.278034 475.947137 
L 545.177789 471.479535 
L 549.077543 466.651049 
L 552.977297 461.443338 
L 556.877052 455.838056 
L 560.776806 449.816863 
L 564.67656 443.361413 
L 568.576314 436.453365 
L 572.476069 429.074374 
L 576.375823 421.206099 
L 580.275577 412.830195 
L 584.175332 403.92832 
L 588.075086 394.482628 
L 591.97484 384.503024 
L 596.849533 371.356933 
L 601.724226 357.565265 
L 607.573857 340.31491 
L 614.398428 319.459333 
L 624.147813 288.863706 
L 638.771892 242.926365 
L 645.596462 222.179349 
L 651.446093 205.05985 
L 656.320786 191.403883 
L 661.195479 178.417725 
L 665.095233 168.583516 
L 668.994988 159.302192 
L 672.894742 150.628956 
L 676.794496 142.61901 
L 679.719312 137.080044 
L 682.644128 131.96852 
L 685.568943 127.307726 
L 688.493759 123.120952 
L 691.418575 119.431486 
L 693.368452 117.259625 
L 695.318329 115.326041 
L 697.268206 113.637634 
L 699.218084 112.201305 
L 701.167961 111.023953 
L 703.117838 110.11248 
L 705.067715 109.473786 
L 707.017592 109.114771 
L 708.967469 109.042299 
L 710.917346 109.258887 
L 712.867224 109.758604 
L 714.817101 110.534551 
L 716.766978 111.579825 
L 718.716855 112.887528 
L 720.666732 114.450759 
L 722.616609 116.262617 
L 724.566486 118.316202 
L 726.516364 120.604614 
L 729.441179 124.462437 
L 732.365995 128.809806 
L 735.290811 133.62343 
L 738.215627 138.880023 
L 741.140442 144.556294 
L 744.065258 150.628956 
L 747.965012 159.302192 
L 751.864767 168.583516 
L 755.764521 178.417725 
L 760.639214 191.403883 
L 765.513907 205.05985 
L 771.363538 222.179349 
L 778.188108 242.926365 
L 786.962555 270.370885 
L 804.51145 325.482494 
L 811.33602 346.139569 
L 817.185651 363.152501 
L 822.060344 376.698877 
L 826.935037 389.556548 
L 830.834791 399.274411 
L 834.734545 408.44615 
L 838.6343 417.082747 
L 842.534054 425.202544 
L 846.433808 432.823884 
L 850.333563 439.96511 
L 854.233317 446.644566 
L 858.133071 452.880595 
L 862.032826 458.69154 
L 865.93258 464.095743 
L 869.832334 469.111549 
L 873.732088 473.7573 
L 877.631843 478.051339 
L 881.531597 482.01201 
L 885.431351 485.657656 
L 889.331106 489.006619 
L 893.23086 492.077243 
L 897.130614 494.887871 
L 901.030369 497.456847 
L 904.930123 499.802513 
L 909.804816 502.448511 
L 914.679509 504.810075 
L 919.554201 506.923032 
L 925.403833 509.180862 
L 931.253464 511.194195 
L 938.078034 513.31666 
L 948.802359 516.386299 
L 965.376314 521.151956 
L 987.799902 527.876608 
L 1018.997936 537.215839 
L 1034.596953 541.640873 
L 1047.271155 545.016093 
L 1058.970418 547.903002 
L 1069.694742 550.316855 
L 1079.444128 552.289635 
L 1089.193514 554.049342 
L 1099.917838 555.759747 
L 1111.617101 557.38373 
L 1123.316364 558.785437 
L 1135.990565 560.089093 
L 1150.614644 561.365902 
L 1168.163538 562.658189 
L 1193.511941 564.264737 
L 1195.461818 564.383292 
L 1195.461818 564.383292 
" style="fill:none;stroke:#8c564b;stroke-linecap:square;stroke-width:1.5;"/>
   </g>
   <g id="line2d_37">
    <path clip-path="url(#p61f42315d4)" d="M 221.498182 564.383292 
L 258.545848 561.34215 
L 278.044619 559.522098 
L 294.618575 557.765128 
L 310.217592 555.898406 
L 325.816609 553.801267 
L 340.440688 551.605301 
L 354.089828 549.335691 
L 366.764029 547.008773 
L 378.463292 544.644765 
L 390.162555 542.047296 
L 400.88688 539.43957 
L 411.611204 536.593106 
L 421.36059 533.765007 
L 430.135037 530.991332 
L 438.909484 527.97235 
L 446.708993 525.06031 
L 454.508501 521.912795 
L 462.30801 518.510201 
L 469.13258 515.307937 
L 475.95715 511.876602 
L 482.78172 508.194021 
L 489.60629 504.237927 
L 495.455921 500.612417 
L 501.305553 496.755578 
L 507.155184 492.653387 
L 513.004816 488.291821 
L 518.854447 483.65686 
L 524.704079 478.734481 
L 530.55371 473.507255 
L 535.428403 468.888228 
L 540.303096 463.997048 
L 545.177789 458.802685 
L 550.052482 453.274112 
L 554.927174 447.380299 
L 559.801867 441.09022 
L 564.67656 434.372845 
L 569.551253 427.197147 
L 574.425946 419.532096 
L 578.3257 413.026871 
L 582.225455 406.172716 
L 586.125209 398.953745 
L 590.999902 389.398848 
L 595.874595 379.265441 
L 600.749287 368.576592 
L 605.62398 357.355387 
L 610.498673 345.624909 
L 616.348305 330.9086 
L 622.197936 315.532073 
L 628.047568 299.53522 
L 634.872138 280.141419 
L 641.696708 260.020926 
L 648.521278 239.237327 
L 666.070172 185.174622 
L 670.944865 171.070447 
L 674.844619 160.386921 
L 678.744373 150.37092 
L 681.669189 143.37159 
L 684.594005 136.869827 
L 687.518821 130.917953 
L 690.443636 125.568288 
L 692.393514 122.362245 
L 694.343391 119.462607 
L 696.293268 116.884877 
L 698.243145 114.644559 
L 700.193022 112.757155 
L 702.142899 111.238167 
L 704.092776 110.103099 
L 706.042654 109.367453 
L 707.992531 109.046732 
L 709.942408 109.154258 
L 711.892285 109.684379 
L 713.842162 110.621674 
L 715.792039 111.95064 
L 717.741916 113.655774 
L 719.691794 115.721573 
L 721.641671 118.132535 
L 723.591548 120.873156 
L 725.541425 123.927935 
L 728.466241 129.065235 
L 731.391057 134.822186 
L 734.315872 141.146467 
L 737.240688 147.985755 
L 741.140442 157.815496 
L 745.040197 168.343767 
L 749.914889 182.297476 
L 755.764521 199.885792 
L 765.513907 230.160196 
L 773.313415 254.147604 
L 780.137985 274.464089 
L 786.962555 294.07198 
L 792.812187 310.266744 
L 798.661818 325.854479 
L 804.51145 340.795292 
L 810.361081 355.049294 
L 815.235774 366.374201 
L 820.110467 377.171368 
L 824.98516 387.41771 
L 829.859853 397.090142 
L 834.734545 406.172716 
L 839.609238 414.685269 
L 844.483931 422.658824 
L 849.358624 430.124411 
L 854.233317 437.113056 
L 859.10801 443.65579 
L 863.982703 449.783639 
L 868.857396 455.527632 
L 873.732088 460.918798 
L 878.606781 465.988164 
L 883.481474 470.76676 
L 889.331106 476.160945 
L 895.180737 481.232474 
L 901.030369 486.009392 
L 906.88 490.505902 
L 912.729631 494.736028 
L 918.579263 498.71379 
L 924.428894 502.453212 
L 931.253464 506.533342 
L 938.078034 510.330416 
L 944.902604 513.866702 
L 951.727174 517.164465 
L 959.526683 520.667767 
L 967.326192 523.90864 
L 975.1257 526.906686 
L 982.925209 529.681506 
L 991.699656 532.560761 
L 1000.474103 535.210213 
L 1010.223489 537.918472 
L 1020.947813 540.653102 
L 1031.672138 543.159571 
L 1043.3714 545.656687 
L 1055.070663 547.930892 
L 1067.744865 550.172427 
L 1081.394005 552.363237 
L 1096.018084 554.482777 
L 1111.617101 556.505418 
L 1127.216118 558.304894 
L 1143.790074 559.999133 
L 1163.288845 561.765386 
L 1191.562064 564.074428 
L 1195.461818 564.383292 
L 1195.461818 564.383292 
" style="fill:none;stroke:#e377c2;stroke-linecap:square;stroke-width:1.5;"/>
   </g>
   <g id="patch_3">
    <path d="M 172.8 626.0616 
L 172.8 84.4128 
" style="fill:none;stroke:#000000;stroke-linecap:square;stroke-linejoin:miter;stroke-width:0.8;"/>
   </g>
   <g id="patch_4">
    <path d="M 1244.16 626.0616 
L 1244.16 84.4128 
" style="fill:none;stroke:#000000;stroke-linecap:square;stroke-linejoin:miter;stroke-width:0.8;"/>
   </g>
   <g id="patch_5">
    <path d="M 172.8 626.0616 
L 1244.16 626.0616 
" style="fill:none;stroke:#000000;stroke-linecap:square;stroke-linejoin:miter;stroke-width:0.8;"/>
   </g>
   <g id="patch_6">
    <path d="M 172.8 84.4128 
L 1244.16 84.4128 
" style="fill:none;stroke:#000000;stroke-linecap:square;stroke-linejoin:miter;stroke-width:0.8;"/>
   </g>
   <g id="text_16">
    <!-- Interpolacja funkcji $f(x)=\frac{1}{1+25x^{2}}$ za pomocą naturalnych splajnów kubicznych przechodzących przez punkty $x_i=-1+2\frac{i}{n}$ dla kilku wybranych $n$. -->
    <g transform="translate(276.12 78.1728)scale(0.12 -0.12)">
     <defs>
      <path d="M 628 4666 
L 1259 4666 
L 1259 0 
L 628 0 
L 628 4666 
z
" id="DejaVuSans-49" transform="scale(0.015625)"/>
      <path d="M 3513 2113 
L 3513 0 
L 2938 0 
L 2938 2094 
Q 2938 2591 2744 2837 
Q 2550 3084 2163 3084 
Q 1697 3084 1428 2787 
Q 1159 2491 1159 1978 
L 1159 0 
L 581 0 
L 581 3500 
L 1159 3500 
L 1159 2956 
Q 1366 3272 1645 3428 
Q 1925 3584 2291 3584 
Q 2894 3584 3203 3211 
Q 3513 2838 3513 2113 
z
" id="DejaVuSans-6e" transform="scale(0.015625)"/>
      <path d="M 1172 4494 
L 1172 3500 
L 2356 3500 
L 2356 3053 
L 1172 3053 
L 1172 1153 
Q 1172 725 1289 603 
Q 1406 481 1766 481 
L 2356 481 
L 2356 0 
L 1766 0 
Q 1100 0 847 248 
Q 594 497 594 1153 
L 594 3053 
L 172 3053 
L 172 3500 
L 594 3500 
L 594 4494 
L 1172 4494 
z
" id="DejaVuSans-74" transform="scale(0.015625)"/>
      <path d="M 3597 1894 
L 3597 1613 
L 953 1613 
Q 991 1019 1311 708 
Q 1631 397 2203 397 
Q 2534 397 2845 478 
Q 3156 559 3463 722 
L 3463 178 
Q 3153 47 2828 -22 
Q 2503 -91 2169 -91 
Q 1331 -91 842 396 
Q 353 884 353 1716 
Q 353 2575 817 3079 
Q 1281 3584 2069 3584 
Q 2775 3584 3186 3129 
Q 3597 2675 3597 1894 
z
M 3022 2063 
Q 3016 2534 2758 2815 
Q 2500 3097 2075 3097 
Q 1594 3097 1305 2825 
Q 1016 2553 972 2059 
L 3022 2063 
z
" id="DejaVuSans-65" transform="scale(0.015625)"/>
      <path d="M 2631 2963 
Q 2534 3019 2420 3045 
Q 2306 3072 2169 3072 
Q 1681 3072 1420 2755 
Q 1159 2438 1159 1844 
L 1159 0 
L 581 0 
L 581 3500 
L 1159 3500 
L 1159 2956 
Q 1341 3275 1631 3429 
Q 1922 3584 2338 3584 
Q 2397 3584 2469 3576 
Q 2541 3569 2628 3553 
L 2631 2963 
z
" id="DejaVuSans-72" transform="scale(0.015625)"/>
      <path d="M 1159 525 
L 1159 -1331 
L 581 -1331 
L 581 3500 
L 1159 3500 
L 1159 2969 
Q 1341 3281 1617 3432 
Q 1894 3584 2278 3584 
Q 2916 3584 3314 3078 
Q 3713 2572 3713 1747 
Q 3713 922 3314 415 
Q 2916 -91 2278 -91 
Q 1894 -91 1617 61 
Q 1341 213 1159 525 
z
M 3116 1747 
Q 3116 2381 2855 2742 
Q 2594 3103 2138 3103 
Q 1681 3103 1420 2742 
Q 1159 2381 1159 1747 
Q 1159 1113 1420 752 
Q 1681 391 2138 391 
Q 2594 391 2855 752 
Q 3116 1113 3116 1747 
z
" id="DejaVuSans-70" transform="scale(0.015625)"/>
      <path d="M 1959 3097 
Q 1497 3097 1228 2736 
Q 959 2375 959 1747 
Q 959 1119 1226 758 
Q 1494 397 1959 397 
Q 2419 397 2687 759 
Q 2956 1122 2956 1747 
Q 2956 2369 2687 2733 
Q 2419 3097 1959 3097 
z
M 1959 3584 
Q 2709 3584 3137 3096 
Q 3566 2609 3566 1747 
Q 3566 888 3137 398 
Q 2709 -91 1959 -91 
Q 1206 -91 779 398 
Q 353 888 353 1747 
Q 353 2609 779 3096 
Q 1206 3584 1959 3584 
z
" id="DejaVuSans-6f" transform="scale(0.015625)"/>
      <path d="M 603 4863 
L 1178 4863 
L 1178 0 
L 603 0 
L 603 4863 
z
" id="DejaVuSans-6c" transform="scale(0.015625)"/>
      <path d="M 2194 1759 
Q 1497 1759 1228 1600 
Q 959 1441 959 1056 
Q 959 750 1161 570 
Q 1363 391 1709 391 
Q 2188 391 2477 730 
Q 2766 1069 2766 1631 
L 2766 1759 
L 2194 1759 
z
M 3341 1997 
L 3341 0 
L 2766 0 
L 2766 531 
Q 2569 213 2275 61 
Q 1981 -91 1556 -91 
Q 1019 -91 701 211 
Q 384 513 384 1019 
Q 384 1609 779 1909 
Q 1175 2209 1959 2209 
L 2766 2209 
L 2766 2266 
Q 2766 2663 2505 2880 
Q 2244 3097 1772 3097 
Q 1472 3097 1187 3025 
Q 903 2953 641 2809 
L 641 3341 
Q 956 3463 1253 3523 
Q 1550 3584 1831 3584 
Q 2591 3584 2966 3190 
Q 3341 2797 3341 1997 
z
" id="DejaVuSans-61" transform="scale(0.015625)"/>
      <path d="M 3122 3366 
L 3122 2828 
Q 2878 2963 2633 3030 
Q 2388 3097 2138 3097 
Q 1578 3097 1268 2742 
Q 959 2388 959 1747 
Q 959 1106 1268 751 
Q 1578 397 2138 397 
Q 2388 397 2633 464 
Q 2878 531 3122 666 
L 3122 134 
Q 2881 22 2623 -34 
Q 2366 -91 2075 -91 
Q 1284 -91 818 406 
Q 353 903 353 1747 
Q 353 2603 823 3093 
Q 1294 3584 2113 3584 
Q 2378 3584 2631 3529 
Q 2884 3475 3122 3366 
z
" id="DejaVuSans-63" transform="scale(0.015625)"/>
      <path d="M 603 3500 
L 1178 3500 
L 1178 -63 
Q 1178 -731 923 -1031 
Q 669 -1331 103 -1331 
L -116 -1331 
L -116 -844 
L 38 -844 
Q 366 -844 484 -692 
Q 603 -541 603 -63 
L 603 3500 
z
M 603 4863 
L 1178 4863 
L 1178 4134 
L 603 4134 
L 603 4863 
z
" id="DejaVuSans-6a" transform="scale(0.015625)"/>
      <path id="DejaVuSans-20" transform="scale(0.015625)"/>
      <path d="M 2375 4863 
L 2375 4384 
L 1825 4384 
Q 1516 4384 1395 4259 
Q 1275 4134 1275 3809 
L 1275 3500 
L 2222 3500 
L 2222 3053 
L 1275 3053 
L 1275 0 
L 697 0 
L 697 3053 
L 147 3053 
L 147 3500 
L 697 3500 
L 697 3744 
Q 697 4328 969 4595 
Q 1241 4863 1831 4863 
L 2375 4863 
z
" id="DejaVuSans-66" transform="scale(0.015625)"/>
      <path d="M 544 1381 
L 544 3500 
L 1119 3500 
L 1119 1403 
Q 1119 906 1312 657 
Q 1506 409 1894 409 
Q 2359 409 2629 706 
Q 2900 1003 2900 1516 
L 2900 3500 
L 3475 3500 
L 3475 0 
L 2900 0 
L 2900 538 
Q 2691 219 2414 64 
Q 2138 -91 1772 -91 
Q 1169 -91 856 284 
Q 544 659 544 1381 
z
M 1991 3584 
L 1991 3584 
z
" id="DejaVuSans-75" transform="scale(0.015625)"/>
      <path d="M 581 4863 
L 1159 4863 
L 1159 1991 
L 2875 3500 
L 3609 3500 
L 1753 1863 
L 3688 0 
L 2938 0 
L 1159 1709 
L 1159 0 
L 581 0 
L 581 4863 
z
" id="DejaVuSans-6b" transform="scale(0.015625)"/>
      <path d="M 603 3500 
L 1178 3500 
L 1178 0 
L 603 0 
L 603 3500 
z
M 603 4863 
L 1178 4863 
L 1178 4134 
L 603 4134 
L 603 4863 
z
" id="DejaVuSans-69" transform="scale(0.015625)"/>
      <path d="M 3059 4863 
L 2969 4384 
L 2419 4384 
Q 2106 4384 1964 4261 
Q 1822 4138 1753 3809 
L 1691 3500 
L 2638 3500 
L 2553 3053 
L 1606 3053 
L 1013 0 
L 434 0 
L 1031 3053 
L 481 3053 
L 563 3500 
L 1113 3500 
L 1159 3744 
Q 1278 4363 1576 4613 
Q 1875 4863 2516 4863 
L 3059 4863 
z
" id="DejaVuSans-Oblique-66" transform="scale(0.015625)"/>
      <path d="M 1984 4856 
Q 1566 4138 1362 3434 
Q 1159 2731 1159 2009 
Q 1159 1288 1364 580 
Q 1569 -128 1984 -844 
L 1484 -844 
Q 1016 -109 783 600 
Q 550 1309 550 2009 
Q 550 2706 781 3412 
Q 1013 4119 1484 4856 
L 1984 4856 
z
" id="DejaVuSans-28" transform="scale(0.015625)"/>
      <path d="M 3841 3500 
L 2234 1784 
L 3219 0 
L 2559 0 
L 1819 1388 
L 531 0 
L -166 0 
L 1556 1844 
L 641 3500 
L 1300 3500 
L 1972 2234 
L 3144 3500 
L 3841 3500 
z
" id="DejaVuSans-Oblique-78" transform="scale(0.015625)"/>
      <path d="M 513 4856 
L 1013 4856 
Q 1481 4119 1714 3412 
Q 1947 2706 1947 2009 
Q 1947 1309 1714 600 
Q 1481 -109 1013 -844 
L 513 -844 
Q 928 -128 1133 580 
Q 1338 1288 1338 2009 
Q 1338 2731 1133 3434 
Q 928 4138 513 4856 
z
" id="DejaVuSans-29" transform="scale(0.015625)"/>
      <path d="M 678 2906 
L 4684 2906 
L 4684 2381 
L 678 2381 
L 678 2906 
z
M 678 1631 
L 4684 1631 
L 4684 1100 
L 678 1100 
L 678 1631 
z
" id="DejaVuSans-3d" transform="scale(0.015625)"/>
      <path d="M 2944 4013 
L 2944 2272 
L 4684 2272 
L 4684 1741 
L 2944 1741 
L 2944 0 
L 2419 0 
L 2419 1741 
L 678 1741 
L 678 2272 
L 2419 2272 
L 2419 4013 
L 2944 4013 
z
" id="DejaVuSans-2b" transform="scale(0.015625)"/>
      <path d="M 353 3500 
L 3084 3500 
L 3084 2975 
L 922 459 
L 3084 459 
L 3084 0 
L 275 0 
L 275 525 
L 2438 3041 
L 353 3041 
L 353 3500 
z
" id="DejaVuSans-7a" transform="scale(0.015625)"/>
      <path d="M 3328 2828 
Q 3544 3216 3844 3400 
Q 4144 3584 4550 3584 
Q 5097 3584 5394 3201 
Q 5691 2819 5691 2113 
L 5691 0 
L 5113 0 
L 5113 2094 
Q 5113 2597 4934 2840 
Q 4756 3084 4391 3084 
Q 3944 3084 3684 2787 
Q 3425 2491 3425 1978 
L 3425 0 
L 2847 0 
L 2847 2094 
Q 2847 2600 2669 2842 
Q 2491 3084 2119 3084 
Q 1678 3084 1418 2786 
Q 1159 2488 1159 1978 
L 1159 0 
L 581 0 
L 581 3500 
L 1159 3500 
L 1159 2956 
Q 1356 3278 1631 3431 
Q 1906 3584 2284 3584 
Q 2666 3584 2933 3390 
Q 3200 3197 3328 2828 
z
" id="DejaVuSans-6d" transform="scale(0.015625)"/>
      <path d="M 2194 1759 
Q 1497 1759 1228 1600 
Q 959 1441 959 1056 
Q 959 750 1161 570 
Q 1363 391 1709 391 
Q 2188 391 2477 730 
Q 2766 1069 2766 1631 
L 2766 1759 
L 2194 1759 
z
M 3341 1997 
L 3341 0 
L 2766 0 
L 2766 531 
Q 2569 213 2275 61 
Q 1981 -91 1556 -91 
Q 1019 -91 701 211 
Q 384 513 384 1019 
Q 384 1609 779 1909 
Q 1175 2209 1959 2209 
L 2766 2209 
L 2766 2266 
Q 2766 2663 2505 2880 
Q 2244 3097 1772 3097 
Q 1472 3097 1187 3025 
Q 903 2953 641 2809 
L 641 3341 
Q 956 3463 1253 3523 
Q 1550 3584 1831 3584 
Q 2591 3584 2966 3190 
Q 3341 2797 3341 1997 
z
M 2775 0 
L 3147 0 
Q 3006 -191 2939 -328 
Q 2872 -466 2872 -563 
Q 2872 -706 2958 -778 
Q 3044 -850 3213 -850 
Q 3313 -850 3409 -826 
Q 3506 -803 3603 -756 
L 3603 -1172 
Q 3484 -1203 3378 -1218 
Q 3272 -1234 3178 -1234 
Q 2797 -1234 2617 -1098 
Q 2438 -963 2438 -672 
Q 2438 -522 2520 -358 
Q 2603 -194 2775 0 
z
" id="DejaVuSans-105" transform="scale(0.015625)"/>
      <path d="M 2059 -325 
Q 1816 -950 1584 -1140 
Q 1353 -1331 966 -1331 
L 506 -1331 
L 506 -850 
L 844 -850 
Q 1081 -850 1212 -737 
Q 1344 -625 1503 -206 
L 1606 56 
L 191 3500 
L 800 3500 
L 1894 763 
L 2988 3500 
L 3597 3500 
L 2059 -325 
z
" id="DejaVuSans-79" transform="scale(0.015625)"/>
      <path d="M 3513 2113 
L 3513 0 
L 2938 0 
L 2938 2094 
Q 2938 2591 2744 2837 
Q 2550 3084 2163 3084 
Q 1697 3084 1428 2787 
Q 1159 2491 1159 1978 
L 1159 0 
L 581 0 
L 581 4863 
L 1159 4863 
L 1159 2956 
Q 1366 3272 1645 3428 
Q 1925 3584 2291 3584 
Q 2894 3584 3203 3211 
Q 3513 2838 3513 2113 
z
" id="DejaVuSans-68" transform="scale(0.015625)"/>
      <path d="M 2834 3397 
L 2834 2853 
Q 2591 2978 2328 3040 
Q 2066 3103 1784 3103 
Q 1356 3103 1142 2972 
Q 928 2841 928 2578 
Q 928 2378 1081 2264 
Q 1234 2150 1697 2047 
L 1894 2003 
Q 2506 1872 2764 1633 
Q 3022 1394 3022 966 
Q 3022 478 2636 193 
Q 2250 -91 1575 -91 
Q 1294 -91 989 -36 
Q 684 19 347 128 
L 347 722 
Q 666 556 975 473 
Q 1284 391 1588 391 
Q 1994 391 2212 530 
Q 2431 669 2431 922 
Q 2431 1156 2273 1281 
Q 2116 1406 1581 1522 
L 1381 1569 
Q 847 1681 609 1914 
Q 372 2147 372 2553 
Q 372 3047 722 3315 
Q 1072 3584 1716 3584 
Q 2034 3584 2315 3537 
Q 2597 3491 2834 3397 
z
" id="DejaVuSans-73" transform="scale(0.015625)"/>
      <path d="M 1959 3097 
Q 1497 3097 1228 2736 
Q 959 2375 959 1747 
Q 959 1119 1226 758 
Q 1494 397 1959 397 
Q 2419 397 2687 759 
Q 2956 1122 2956 1747 
Q 2956 2369 2687 2733 
Q 2419 3097 1959 3097 
z
M 1959 3584 
Q 2709 3584 3137 3096 
Q 3566 2609 3566 1747 
Q 3566 888 3137 398 
Q 2709 -91 1959 -91 
Q 1206 -91 779 398 
Q 353 888 353 1747 
Q 353 2609 779 3096 
Q 1206 3584 1959 3584 
z
M 2394 5119 
L 3016 5119 
L 1998 3944 
L 1519 3944 
L 2394 5119 
z
" id="DejaVuSans-f3" transform="scale(0.015625)"/>
      <path d="M 269 3500 
L 844 3500 
L 1563 769 
L 2278 3500 
L 2956 3500 
L 3675 769 
L 4391 3500 
L 4966 3500 
L 4050 0 
L 3372 0 
L 2619 2869 
L 1863 0 
L 1184 0 
L 269 3500 
z
" id="DejaVuSans-77" transform="scale(0.015625)"/>
      <path d="M 3116 1747 
Q 3116 2381 2855 2742 
Q 2594 3103 2138 3103 
Q 1681 3103 1420 2742 
Q 1159 2381 1159 1747 
Q 1159 1113 1420 752 
Q 1681 391 2138 391 
Q 2594 391 2855 752 
Q 3116 1113 3116 1747 
z
M 1159 2969 
Q 1341 3281 1617 3432 
Q 1894 3584 2278 3584 
Q 2916 3584 3314 3078 
Q 3713 2572 3713 1747 
Q 3713 922 3314 415 
Q 2916 -91 2278 -91 
Q 1894 -91 1617 61 
Q 1341 213 1159 525 
L 1159 0 
L 581 0 
L 581 4863 
L 1159 4863 
L 1159 2969 
z
" id="DejaVuSans-62" transform="scale(0.015625)"/>
      <path d="M 2906 2969 
L 2906 4863 
L 3481 4863 
L 3481 0 
L 2906 0 
L 2906 525 
Q 2725 213 2448 61 
Q 2172 -91 1784 -91 
Q 1150 -91 751 415 
Q 353 922 353 1747 
Q 353 2572 751 3078 
Q 1150 3584 1784 3584 
Q 2172 3584 2448 3432 
Q 2725 3281 2906 2969 
z
M 947 1747 
Q 947 1113 1208 752 
Q 1469 391 1925 391 
Q 2381 391 2643 752 
Q 2906 1113 2906 1747 
Q 2906 2381 2643 2742 
Q 2381 3103 1925 3103 
Q 1469 3103 1208 2742 
Q 947 2381 947 1747 
z
" id="DejaVuSans-64" transform="scale(0.015625)"/>
      <path d="M 1172 4863 
L 1747 4863 
L 1606 4134 
L 1031 4134 
L 1172 4863 
z
M 909 3500 
L 1484 3500 
L 800 0 
L 225 0 
L 909 3500 
z
" id="DejaVuSans-Oblique-69" transform="scale(0.015625)"/>
      <path d="M 3566 2113 
L 3156 0 
L 2578 0 
L 2988 2091 
Q 3016 2238 3031 2350 
Q 3047 2463 3047 2528 
Q 3047 2791 2881 2937 
Q 2716 3084 2419 3084 
Q 1956 3084 1622 2776 
Q 1288 2469 1184 1941 
L 800 0 
L 225 0 
L 903 3500 
L 1478 3500 
L 1363 2950 
Q 1603 3253 1940 3418 
Q 2278 3584 2650 3584 
Q 3113 3584 3367 3334 
Q 3622 3084 3622 2631 
Q 3622 2519 3608 2391 
Q 3594 2263 3566 2113 
z
" id="DejaVuSans-Oblique-6e" transform="scale(0.015625)"/>
     </defs>
     <use transform="translate(0 0.014062)" xlink:href="#DejaVuSans-49"/>
     <use transform="translate(29.492188 0.014062)" xlink:href="#DejaVuSans-6e"/>
     <use transform="translate(92.871094 0.014062)" xlink:href="#DejaVuSans-74"/>
     <use transform="translate(132.080078 0.014062)" xlink:href="#DejaVuSans-65"/>
     <use transform="translate(193.603516 0.014062)" xlink:href="#DejaVuSans-72"/>
     <use transform="translate(234.716797 0.014062)" xlink:href="#DejaVuSans-70"/>
     <use transform="translate(298.193359 0.014062)" xlink:href="#DejaVuSans-6f"/>
     <use transform="translate(359.375 0.014062)" xlink:href="#DejaVuSans-6c"/>
     <use transform="translate(387.158203 0.014062)" xlink:href="#DejaVuSans-61"/>
     <use transform="translate(448.4375 0.014062)" xlink:href="#DejaVuSans-63"/>
     <use transform="translate(503.417969 0.014062)" xlink:href="#DejaVuSans-6a"/>
     <use transform="translate(531.201172 0.014062)" xlink:href="#DejaVuSans-61"/>
     <use transform="translate(592.480469 0.014062)" xlink:href="#DejaVuSans-20"/>
     <use transform="translate(624.267578 0.014062)" xlink:href="#DejaVuSans-66"/>
     <use transform="translate(659.472656 0.014062)" xlink:href="#DejaVuSans-75"/>
     <use transform="translate(722.851562 0.014062)" xlink:href="#DejaVuSans-6e"/>
     <use transform="translate(786.230469 0.014062)" xlink:href="#DejaVuSans-6b"/>
     <use transform="translate(844.140625 0.014062)" xlink:href="#DejaVuSans-63"/>
     <use transform="translate(899.121094 0.014062)" xlink:href="#DejaVuSans-6a"/>
     <use transform="translate(926.904297 0.014062)" xlink:href="#DejaVuSans-69"/>
     <use transform="translate(954.6875 0.014062)" xlink:href="#DejaVuSans-20"/>
     <use transform="translate(986.474609 0.014062)" xlink:href="#DejaVuSans-Oblique-66"/>
     <use transform="translate(1021.679688 0.014062)" xlink:href="#DejaVuSans-28"/>
     <use transform="translate(1060.693359 0.014062)" xlink:href="#DejaVuSans-Oblique-78"/>
     <use transform="translate(1119.873047 0.014062)" xlink:href="#DejaVuSans-29"/>
     <use transform="translate(1178.369141 0.014062)" xlink:href="#DejaVuSans-3d"/>
     <use transform="translate(1407.640625 43.810938)scale(0.7)" xlink:href="#DejaVuSans-31"/>
     <use transform="translate(1281.640625 -50.603125)scale(0.7)" xlink:href="#DejaVuSans-31"/>
     <use transform="translate(1339.814453 -50.603125)scale(0.7)" xlink:href="#DejaVuSans-2b"/>
     <use transform="translate(1412.104492 -50.603125)scale(0.7)" xlink:href="#DejaVuSans-32"/>
     <use transform="translate(1456.640625 -50.603125)scale(0.7)" xlink:href="#DejaVuSans-35"/>
     <use transform="translate(1501.176758 -50.603125)scale(0.7)" xlink:href="#DejaVuSans-Oblique-78"/>
     <use transform="translate(1545.728841 -23.80625)scale(0.49)" xlink:href="#DejaVuSans-32"/>
     <use transform="translate(1591.318197 0.014062)" xlink:href="#DejaVuSans-20"/>
     <use transform="translate(1623.105306 0.014062)" xlink:href="#DejaVuSans-7a"/>
     <use transform="translate(1675.59554 0.014062)" xlink:href="#DejaVuSans-61"/>
     <use transform="translate(1736.874837 0.014062)" xlink:href="#DejaVuSans-20"/>
     <use transform="translate(1768.661947 0.014062)" xlink:href="#DejaVuSans-70"/>
     <use transform="translate(1832.138509 0.014062)" xlink:href="#DejaVuSans-6f"/>
     <use transform="translate(1893.32015 0.014062)" xlink:href="#DejaVuSans-6d"/>
     <use transform="translate(1990.732259 0.014062)" xlink:href="#DejaVuSans-6f"/>
     <use transform="translate(2051.9139 0.014062)" xlink:href="#DejaVuSans-63"/>
     <use transform="translate(2106.894368 0.014062)" xlink:href="#DejaVuSans-105"/>
     <use transform="translate(2168.173665 0.014062)" xlink:href="#DejaVuSans-20"/>
     <use transform="translate(2199.960775 0.014062)" xlink:href="#DejaVuSans-6e"/>
     <use transform="translate(2263.339681 0.014062)" xlink:href="#DejaVuSans-61"/>
     <use transform="translate(2324.618978 0.014062)" xlink:href="#DejaVuSans-74"/>
     <use transform="translate(2363.827962 0.014062)" xlink:href="#DejaVuSans-75"/>
     <use transform="translate(2427.206868 0.014062)" xlink:href="#DejaVuSans-72"/>
     <use transform="translate(2468.32015 0.014062)" xlink:href="#DejaVuSans-61"/>
     <use transform="translate(2529.599447 0.014062)" xlink:href="#DejaVuSans-6c"/>
     <use transform="translate(2557.38265 0.014062)" xlink:href="#DejaVuSans-6e"/>
     <use transform="translate(2620.761556 0.014062)" xlink:href="#DejaVuSans-79"/>
     <use transform="translate(2679.941243 0.014062)" xlink:href="#DejaVuSans-63"/>
     <use transform="translate(2734.921712 0.014062)" xlink:href="#DejaVuSans-68"/>
     <use transform="translate(2798.300618 0.014062)" xlink:href="#DejaVuSans-20"/>
     <use transform="translate(2830.087728 0.014062)" xlink:href="#DejaVuSans-73"/>
     <use transform="translate(2882.187337 0.014062)" xlink:href="#DejaVuSans-70"/>
     <use transform="translate(2945.6639 0.014062)" xlink:href="#DejaVuSans-6c"/>
     <use transform="translate(2973.447103 0.014062)" xlink:href="#DejaVuSans-61"/>
     <use transform="translate(3034.7264 0.014062)" xlink:href="#DejaVuSans-6a"/>
     <use transform="translate(3062.509603 0.014062)" xlink:href="#DejaVuSans-6e"/>
     <use transform="translate(3125.888509 0.014062)" xlink:href="#DejaVuSans-f3"/>
     <use transform="translate(3187.07015 0.014062)" xlink:href="#DejaVuSans-77"/>
     <use transform="translate(3268.857259 0.014062)" xlink:href="#DejaVuSans-20"/>
     <use transform="translate(3300.644368 0.014062)" xlink:href="#DejaVuSans-6b"/>
     <use transform="translate(3358.554525 0.014062)" xlink:href="#DejaVuSans-75"/>
     <use transform="translate(3421.933431 0.014062)" xlink:href="#DejaVuSans-62"/>
     <use transform="translate(3485.409993 0.014062)" xlink:href="#DejaVuSans-69"/>
     <use transform="translate(3513.193197 0.014062)" xlink:href="#DejaVuSans-63"/>
     <use transform="translate(3568.173665 0.014062)" xlink:href="#DejaVuSans-7a"/>
     <use transform="translate(3620.6639 0.014062)" xlink:href="#DejaVuSans-6e"/>
     <use transform="translate(3684.042806 0.014062)" xlink:href="#DejaVuSans-79"/>
     <use transform="translate(3743.222493 0.014062)" xlink:href="#DejaVuSans-63"/>
     <use transform="translate(3798.202962 0.014062)" xlink:href="#DejaVuSans-68"/>
     <use transform="translate(3861.581868 0.014062)" xlink:href="#DejaVuSans-20"/>
     <use transform="translate(3893.368978 0.014062)" xlink:href="#DejaVuSans-70"/>
     <use transform="translate(3956.84554 0.014062)" xlink:href="#DejaVuSans-72"/>
     <use transform="translate(3997.958822 0.014062)" xlink:href="#DejaVuSans-7a"/>
     <use transform="translate(4050.449056 0.014062)" xlink:href="#DejaVuSans-65"/>
     <use transform="translate(4111.972493 0.014062)" xlink:href="#DejaVuSans-63"/>
     <use transform="translate(4166.952962 0.014062)" xlink:href="#DejaVuSans-68"/>
     <use transform="translate(4230.331868 0.014062)" xlink:href="#DejaVuSans-6f"/>
     <use transform="translate(4291.513509 0.014062)" xlink:href="#DejaVuSans-64"/>
     <use transform="translate(4354.990072 0.014062)" xlink:href="#DejaVuSans-7a"/>
     <use transform="translate(4407.480306 0.014062)" xlink:href="#DejaVuSans-105"/>
     <use transform="translate(4468.759603 0.014062)" xlink:href="#DejaVuSans-63"/>
     <use transform="translate(4523.740072 0.014062)" xlink:href="#DejaVuSans-79"/>
     <use transform="translate(4582.919759 0.014062)" xlink:href="#DejaVuSans-63"/>
     <use transform="translate(4637.900228 0.014062)" xlink:href="#DejaVuSans-68"/>
     <use transform="translate(4701.279134 0.014062)" xlink:href="#DejaVuSans-20"/>
     <use transform="translate(4733.066243 0.014062)" xlink:href="#DejaVuSans-70"/>
     <use transform="translate(4796.542806 0.014062)" xlink:href="#DejaVuSans-72"/>
     <use transform="translate(4837.656087 0.014062)" xlink:href="#DejaVuSans-7a"/>
     <use transform="translate(4890.146322 0.014062)" xlink:href="#DejaVuSans-65"/>
     <use transform="translate(4951.669759 0.014062)" xlink:href="#DejaVuSans-7a"/>
     <use transform="translate(5004.159993 0.014062)" xlink:href="#DejaVuSans-20"/>
     <use transform="translate(5035.947103 0.014062)" xlink:href="#DejaVuSans-70"/>
     <use transform="translate(5099.423665 0.014062)" xlink:href="#DejaVuSans-75"/>
     <use transform="translate(5162.802572 0.014062)" xlink:href="#DejaVuSans-6e"/>
     <use transform="translate(5226.181478 0.014062)" xlink:href="#DejaVuSans-6b"/>
     <use transform="translate(5284.091634 0.014062)" xlink:href="#DejaVuSans-74"/>
     <use transform="translate(5323.300618 0.014062)" xlink:href="#DejaVuSans-79"/>
     <use transform="translate(5382.480306 0.014062)" xlink:href="#DejaVuSans-20"/>
     <use transform="translate(5414.267415 0.014062)" xlink:href="#DejaVuSans-Oblique-78"/>
     <use transform="translate(5473.447103 -16.392188)scale(0.7)" xlink:href="#DejaVuSans-Oblique-69"/>
     <use transform="translate(5515.112142 0.014062)" xlink:href="#DejaVuSans-3d"/>
     <use transform="translate(5637.866048 0.014062)" xlink:href="#DejaVuSans-2212"/>
     <use transform="translate(5741.137533 0.014062)" xlink:href="#DejaVuSans-31"/>
     <use transform="translate(5824.243001 0.014062)" xlink:href="#DejaVuSans-2b"/>
     <use transform="translate(5927.514486 0.014062)" xlink:href="#DejaVuSans-32"/>
     <use transform="translate(6003.137533 43.810938)scale(0.7)" xlink:href="#DejaVuSans-Oblique-69"/>
     <use transform="translate(5991.137533 -26.639062)scale(0.7)" xlink:href="#DejaVuSans-Oblique-6e"/>
     <use transform="translate(6048.002767 0.014062)" xlink:href="#DejaVuSans-20"/>
     <use transform="translate(6079.789876 0.014062)" xlink:href="#DejaVuSans-64"/>
     <use transform="translate(6143.266439 0.014062)" xlink:href="#DejaVuSans-6c"/>
     <use transform="translate(6171.049642 0.014062)" xlink:href="#DejaVuSans-61"/>
     <use transform="translate(6232.328939 0.014062)" xlink:href="#DejaVuSans-20"/>
     <use transform="translate(6264.116048 0.014062)" xlink:href="#DejaVuSans-6b"/>
     <use transform="translate(6322.026204 0.014062)" xlink:href="#DejaVuSans-69"/>
     <use transform="translate(6349.809408 0.014062)" xlink:href="#DejaVuSans-6c"/>
     <use transform="translate(6377.592611 0.014062)" xlink:href="#DejaVuSans-6b"/>
     <use transform="translate(6435.502767 0.014062)" xlink:href="#DejaVuSans-75"/>
     <use transform="translate(6498.881673 0.014062)" xlink:href="#DejaVuSans-20"/>
     <use transform="translate(6530.668783 0.014062)" xlink:href="#DejaVuSans-77"/>
     <use transform="translate(6612.455892 0.014062)" xlink:href="#DejaVuSans-79"/>
     <use transform="translate(6671.635579 0.014062)" xlink:href="#DejaVuSans-62"/>
     <use transform="translate(6735.112142 0.014062)" xlink:href="#DejaVuSans-72"/>
     <use transform="translate(6776.225423 0.014062)" xlink:href="#DejaVuSans-61"/>
     <use transform="translate(6837.50472 0.014062)" xlink:href="#DejaVuSans-6e"/>
     <use transform="translate(6900.883626 0.014062)" xlink:href="#DejaVuSans-79"/>
     <use transform="translate(6960.063314 0.014062)" xlink:href="#DejaVuSans-63"/>
     <use transform="translate(7015.043783 0.014062)" xlink:href="#DejaVuSans-68"/>
     <use transform="translate(7078.422689 0.014062)" xlink:href="#DejaVuSans-20"/>
     <use transform="translate(7110.209798 0.014062)" xlink:href="#DejaVuSans-Oblique-6e"/>
     <use transform="translate(7173.588704 0.014062)" xlink:href="#DejaVuSans-2e"/>
     <path d="M 1281.640625 18.810938 
L 1281.640625 25.060938 
L 1578.818197 25.060938 
L 1578.818197 18.810938 
L 1281.640625 18.810938 
z
"/>
     <path d="M 5991.137533 18.810937 
L 5991.137533 25.060937 
L 6035.502767 25.060937 
L 6035.502767 18.810937 
L 5991.137533 18.810937 
z
"/>
    </g>
   </g>
   <g id="legend_1">
    <g id="patch_7">
     <path d="M 677.83 621.0616 
L 739.13 621.0616 
Q 741.13 621.0616 741.13 619.0616 
L 741.13 517.314725 
Q 741.13 515.314725 739.13 515.314725 
L 677.83 515.314725 
Q 675.83 515.314725 675.83 517.314725 
L 675.83 619.0616 
Q 675.83 621.0616 677.83 621.0616 
z
" style="fill:#ffffff;opacity:0.8;stroke:#cccccc;stroke-linejoin:miter;"/>
    </g>
    <g id="line2d_38">
     <path d="M 679.83 523.413162 
L 699.83 523.413162 
" style="fill:none;stroke:#1f77b4;stroke-linecap:square;stroke-width:5;"/>
    </g>
    <g id="line2d_39"/>
    <g id="text_17">
     <!-- $f(x)$ -->
     <g transform="translate(707.83 526.913162)scale(0.1 -0.1)">
      <use transform="translate(0 0.015625)" xlink:href="#DejaVuSans-Oblique-66"/>
      <use transform="translate(35.205078 0.015625)" xlink:href="#DejaVuSans-28"/>
      <use transform="translate(74.21875 0.015625)" xlink:href="#DejaVuSans-Oblique-78"/>
      <use transform="translate(133.398438 0.015625)" xlink:href="#DejaVuSans-29"/>
     </g>
    </g>
    <g id="line2d_40">
     <path d="M 679.83 538.091287 
L 699.83 538.091287 
" style="fill:none;stroke:#ff7f0e;stroke-linecap:square;stroke-width:1.5;"/>
    </g>
    <g id="line2d_41"/>
    <g id="text_18">
     <!-- $S_{3}(x)$ -->
     <g transform="translate(707.83 541.591287)scale(0.1 -0.1)">
      <defs>
       <path d="M 3859 4513 
L 3738 3897 
Q 3422 4066 3111 4152 
Q 2800 4238 2509 4238 
Q 1944 4238 1609 3991 
Q 1275 3744 1275 3334 
Q 1275 3109 1398 2989 
Q 1522 2869 2034 2731 
L 2413 2638 
Q 3053 2472 3303 2217 
Q 3553 1963 3553 1503 
Q 3553 797 2998 353 
Q 2444 -91 1538 -91 
Q 1166 -91 791 -17 
Q 416 56 38 206 
L 166 856 
Q 513 641 861 531 
Q 1209 422 1556 422 
Q 2147 422 2503 684 
Q 2859 947 2859 1369 
Q 2859 1650 2717 1795 
Q 2575 1941 2106 2059 
L 1728 2156 
Q 1081 2325 845 2545 
Q 609 2766 609 3163 
Q 609 3859 1145 4304 
Q 1681 4750 2541 4750 
Q 2875 4750 3203 4690 
Q 3531 4631 3859 4513 
z
" id="DejaVuSans-Oblique-53" transform="scale(0.015625)"/>
       <path d="M 2597 2516 
Q 3050 2419 3304 2112 
Q 3559 1806 3559 1356 
Q 3559 666 3084 287 
Q 2609 -91 1734 -91 
Q 1441 -91 1130 -33 
Q 819 25 488 141 
L 488 750 
Q 750 597 1062 519 
Q 1375 441 1716 441 
Q 2309 441 2620 675 
Q 2931 909 2931 1356 
Q 2931 1769 2642 2001 
Q 2353 2234 1838 2234 
L 1294 2234 
L 1294 2753 
L 1863 2753 
Q 2328 2753 2575 2939 
Q 2822 3125 2822 3475 
Q 2822 3834 2567 4026 
Q 2313 4219 1838 4219 
Q 1578 4219 1281 4162 
Q 984 4106 628 3988 
L 628 4550 
Q 988 4650 1302 4700 
Q 1616 4750 1894 4750 
Q 2613 4750 3031 4423 
Q 3450 4097 3450 3541 
Q 3450 3153 3228 2886 
Q 3006 2619 2597 2516 
z
" id="DejaVuSans-33" transform="scale(0.015625)"/>
      </defs>
      <use transform="translate(0 0.125)" xlink:href="#DejaVuSans-Oblique-53"/>
      <use transform="translate(63.476562 -16.28125)scale(0.7)" xlink:href="#DejaVuSans-33"/>
      <use transform="translate(110.74707 0.125)" xlink:href="#DejaVuSans-28"/>
      <use transform="translate(149.760742 0.125)" xlink:href="#DejaVuSans-Oblique-78"/>
      <use transform="translate(208.94043 0.125)" xlink:href="#DejaVuSans-29"/>
     </g>
    </g>
    <g id="line2d_42">
     <path d="M 679.83 552.769413 
L 699.83 552.769413 
" style="fill:none;stroke:#2ca02c;stroke-linecap:square;stroke-width:1.5;"/>
    </g>
    <g id="line2d_43"/>
    <g id="text_19">
     <!-- $S_{4}(x)$ -->
     <g transform="translate(707.83 556.269413)scale(0.1 -0.1)">
      <use transform="translate(0 0.125)" xlink:href="#DejaVuSans-Oblique-53"/>
      <use transform="translate(63.476562 -16.28125)scale(0.7)" xlink:href="#DejaVuSans-34"/>
      <use transform="translate(110.74707 0.125)" xlink:href="#DejaVuSans-28"/>
      <use transform="translate(149.760742 0.125)" xlink:href="#DejaVuSans-Oblique-78"/>
      <use transform="translate(208.94043 0.125)" xlink:href="#DejaVuSans-29"/>
     </g>
    </g>
    <g id="line2d_44">
     <path d="M 679.83 567.447537 
L 699.83 567.447537 
" style="fill:none;stroke:#d62728;stroke-linecap:square;stroke-width:1.5;"/>
    </g>
    <g id="line2d_45"/>
    <g id="text_20">
     <!-- $S_{5}(x)$ -->
     <g transform="translate(707.83 570.947537)scale(0.1 -0.1)">
      <use transform="translate(0 0.125)" xlink:href="#DejaVuSans-Oblique-53"/>
      <use transform="translate(63.476562 -16.28125)scale(0.7)" xlink:href="#DejaVuSans-35"/>
      <use transform="translate(110.74707 0.125)" xlink:href="#DejaVuSans-28"/>
      <use transform="translate(149.760742 0.125)" xlink:href="#DejaVuSans-Oblique-78"/>
      <use transform="translate(208.94043 0.125)" xlink:href="#DejaVuSans-29"/>
     </g>
    </g>
    <g id="line2d_46">
     <path d="M 679.83 582.125662 
L 699.83 582.125662 
" style="fill:none;stroke:#9467bd;stroke-linecap:square;stroke-width:1.5;"/>
    </g>
    <g id="line2d_47"/>
    <g id="text_21">
     <!-- $S_{6}(x)$ -->
     <g transform="translate(707.83 585.625662)scale(0.1 -0.1)">
      <use transform="translate(0 0.125)" xlink:href="#DejaVuSans-Oblique-53"/>
      <use transform="translate(63.476562 -16.28125)scale(0.7)" xlink:href="#DejaVuSans-36"/>
      <use transform="translate(110.74707 0.125)" xlink:href="#DejaVuSans-28"/>
      <use transform="translate(149.760742 0.125)" xlink:href="#DejaVuSans-Oblique-78"/>
      <use transform="translate(208.94043 0.125)" xlink:href="#DejaVuSans-29"/>
     </g>
    </g>
    <g id="line2d_48">
     <path d="M 679.83 596.803787 
L 699.83 596.803787 
" style="fill:none;stroke:#8c564b;stroke-linecap:square;stroke-width:1.5;"/>
    </g>
    <g id="line2d_49"/>
    <g id="text_22">
     <!-- $S_{8}(x)$ -->
     <g transform="translate(707.83 600.303787)scale(0.1 -0.1)">
      <use transform="translate(0 0.125)" xlink:href="#DejaVuSans-Oblique-53"/>
      <use transform="translate(63.476562 -16.28125)scale(0.7)" xlink:href="#DejaVuSans-38"/>
      <use transform="translate(110.74707 0.125)" xlink:href="#DejaVuSans-28"/>
      <use transform="translate(149.760742 0.125)" xlink:href="#DejaVuSans-Oblique-78"/>
      <use transform="translate(208.94043 0.125)" xlink:href="#DejaVuSans-29"/>
     </g>
    </g>
    <g id="line2d_50">
     <path d="M 679.83 611.481912 
L 699.83 611.481912 
" style="fill:none;stroke:#e377c2;stroke-linecap:square;stroke-width:1.5;"/>
    </g>
    <g id="line2d_51"/>
    <g id="text_23">
     <!-- $S_{16}(x)$ -->
     <g transform="translate(707.83 614.981912)scale(0.1 -0.1)">
      <use transform="translate(0 0.125)" xlink:href="#DejaVuSans-Oblique-53"/>
      <use transform="translate(63.476562 -16.28125)scale(0.7)" xlink:href="#DejaVuSans-31"/>
      <use transform="translate(108.012695 -16.28125)scale(0.7)" xlink:href="#DejaVuSans-36"/>
      <use transform="translate(155.283203 0.125)" xlink:href="#DejaVuSans-28"/>
      <use transform="translate(194.296875 0.125)" xlink:href="#DejaVuSans-Oblique-78"/>
      <use transform="translate(253.476562 0.125)" xlink:href="#DejaVuSans-29"/>
     </g>
    </g>
   </g>
   <g id="PathCollection_2">
    <defs>
     <path d="M -3 0 
L 3 0 
M 0 3 
L 0 -3 
" id="m5bfc2af42e" style="stroke:#e377c2;stroke-width:1.5;"/>
    </defs>
    <g clip-path="url(#p61f42315d4)">
     <use style="fill:#e377c2;stroke:#e377c2;stroke-width:1.5;" x="221.498182" xlink:href="#m5bfc2af42e" y="564.383292"/>
     <use style="fill:#e377c2;stroke:#e377c2;stroke-width:1.5;" x="282.370909" xlink:href="#m5bfc2af42e" y="559.084416"/>
     <use style="fill:#e377c2;stroke:#e377c2;stroke-width:1.5;" x="343.243636" xlink:href="#m5bfc2af42e" y="551.157356"/>
     <use style="fill:#e377c2;stroke:#e377c2;stroke-width:1.5;" x="404.116364" xlink:href="#m5bfc2af42e" y="538.608759"/>
     <use style="fill:#e377c2;stroke:#e377c2;stroke-width:1.5;" x="464.989091" xlink:href="#m5bfc2af42e" y="517.27811"/>
     <use style="fill:#e377c2;stroke:#e377c2;stroke-width:1.5;" x="525.861818" xlink:href="#m5bfc2af42e" y="477.72497"/>
     <use style="fill:#e377c2;stroke:#e377c2;stroke-width:1.5;" x="586.734545" xlink:href="#m5bfc2af42e" y="397.791795"/>
     <use style="fill:#e377c2;stroke:#e377c2;stroke-width:1.5;" x="647.607273" xlink:href="#m5bfc2af42e" y="242.056822"/>
     <use style="fill:#e377c2;stroke:#e377c2;stroke-width:1.5;" x="708.48" xlink:href="#m5bfc2af42e" y="109.0332"/>
     <use style="fill:#e377c2;stroke:#e377c2;stroke-width:1.5;" x="769.352727" xlink:href="#m5bfc2af42e" y="242.056822"/>
     <use style="fill:#e377c2;stroke:#e377c2;stroke-width:1.5;" x="830.225455" xlink:href="#m5bfc2af42e" y="397.791795"/>
     <use style="fill:#e377c2;stroke:#e377c2;stroke-width:1.5;" x="891.098182" xlink:href="#m5bfc2af42e" y="477.72497"/>
     <use style="fill:#e377c2;stroke:#e377c2;stroke-width:1.5;" x="951.970909" xlink:href="#m5bfc2af42e" y="517.27811"/>
     <use style="fill:#e377c2;stroke:#e377c2;stroke-width:1.5;" x="1012.843636" xlink:href="#m5bfc2af42e" y="538.608759"/>
     <use style="fill:#e377c2;stroke:#e377c2;stroke-width:1.5;" x="1073.716364" xlink:href="#m5bfc2af42e" y="551.157356"/>
     <use style="fill:#e377c2;stroke:#e377c2;stroke-width:1.5;" x="1134.589091" xlink:href="#m5bfc2af42e" y="559.084416"/>
     <use style="fill:#e377c2;stroke:#e377c2;stroke-width:1.5;" x="1195.461818" xlink:href="#m5bfc2af42e" y="564.383292"/>
    </g>
   </g>
   <g id="PathCollection_3">
    <defs>
     <path d="M -3 0 
L 3 0 
M 0 3 
L 0 -3 
" id="mba00dcda42" style="stroke:#8c564b;stroke-width:1.5;"/>
    </defs>
    <g clip-path="url(#p61f42315d4)">
     <use style="fill:#8c564b;stroke:#8c564b;stroke-width:1.5;" x="221.498182" xlink:href="#mba00dcda42" y="564.383292"/>
     <use style="fill:#8c564b;stroke:#8c564b;stroke-width:1.5;" x="343.243636" xlink:href="#mba00dcda42" y="551.157356"/>
     <use style="fill:#8c564b;stroke:#8c564b;stroke-width:1.5;" x="464.989091" xlink:href="#mba00dcda42" y="517.27811"/>
     <use style="fill:#8c564b;stroke:#8c564b;stroke-width:1.5;" x="586.734545" xlink:href="#mba00dcda42" y="397.791795"/>
     <use style="fill:#8c564b;stroke:#8c564b;stroke-width:1.5;" x="708.48" xlink:href="#mba00dcda42" y="109.0332"/>
     <use style="fill:#8c564b;stroke:#8c564b;stroke-width:1.5;" x="830.225455" xlink:href="#mba00dcda42" y="397.791795"/>
     <use style="fill:#8c564b;stroke:#8c564b;stroke-width:1.5;" x="951.970909" xlink:href="#mba00dcda42" y="517.27811"/>
     <use style="fill:#8c564b;stroke:#8c564b;stroke-width:1.5;" x="1073.716364" xlink:href="#mba00dcda42" y="551.157356"/>
     <use style="fill:#8c564b;stroke:#8c564b;stroke-width:1.5;" x="1195.461818" xlink:href="#mba00dcda42" y="564.383292"/>
    </g>
   </g>
   <g id="PathCollection_4">
    <defs>
     <path d="M -3 0 
L 3 0 
M 0 3 
L 0 -3 
" id="m303420f1b1" style="stroke:#9467bd;stroke-width:1.5;"/>
    </defs>
    <g clip-path="url(#p61f42315d4)">
     <use style="fill:#9467bd;stroke:#9467bd;stroke-width:1.5;" x="221.498182" xlink:href="#m303420f1b1" y="564.383292"/>
     <use style="fill:#9467bd;stroke:#9467bd;stroke-width:1.5;" x="383.825455" xlink:href="#m303420f1b1" y="543.495673"/>
     <use style="fill:#9467bd;stroke:#9467bd;stroke-width:1.5;" x="546.152727" xlink:href="#m303420f1b1" y="457.242094"/>
     <use style="fill:#9467bd;stroke:#9467bd;stroke-width:1.5;" x="708.48" xlink:href="#m303420f1b1" y="109.0332"/>
     <use style="fill:#9467bd;stroke:#9467bd;stroke-width:1.5;" x="870.807273" xlink:href="#m303420f1b1" y="457.242094"/>
     <use style="fill:#9467bd;stroke:#9467bd;stroke-width:1.5;" x="1033.134545" xlink:href="#m303420f1b1" y="543.495673"/>
     <use style="fill:#9467bd;stroke:#9467bd;stroke-width:1.5;" x="1195.461818" xlink:href="#m303420f1b1" y="564.383292"/>
    </g>
   </g>
   <g id="PathCollection_5">
    <defs>
     <path d="M -3 0 
L 3 0 
M 0 3 
L 0 -3 
" id="m8011823e58" style="stroke:#d62728;stroke-width:1.5;"/>
    </defs>
    <g clip-path="url(#p61f42315d4)">
     <use style="fill:#d62728;stroke:#d62728;stroke-width:1.5;" x="221.498182" xlink:href="#m8011823e58" y="564.383292"/>
     <use style="fill:#d62728;stroke:#d62728;stroke-width:1.5;" x="416.290909" xlink:href="#m8011823e58" y="535.240886"/>
     <use style="fill:#d62728;stroke:#d62728;stroke-width:1.5;" x="611.083636" xlink:href="#m8011823e58" y="345.815248"/>
     <use style="fill:#d62728;stroke:#d62728;stroke-width:1.5;" x="805.876364" xlink:href="#m8011823e58" y="345.815248"/>
     <use style="fill:#d62728;stroke:#d62728;stroke-width:1.5;" x="1000.669091" xlink:href="#m8011823e58" y="535.240886"/>
     <use style="fill:#d62728;stroke:#d62728;stroke-width:1.5;" x="1195.461818" xlink:href="#m8011823e58" y="564.383292"/>
    </g>
   </g>
   <g id="PathCollection_6">
    <defs>
     <path d="M -3 0 
L 3 0 
M 0 3 
L 0 -3 
" id="m57796324b2" style="stroke:#2ca02c;stroke-width:1.5;"/>
    </defs>
    <g clip-path="url(#p61f42315d4)">
     <use style="fill:#2ca02c;stroke:#2ca02c;stroke-width:1.5;" x="221.498182" xlink:href="#m57796324b2" y="564.383292"/>
     <use style="fill:#2ca02c;stroke:#2ca02c;stroke-width:1.5;" x="464.989091" xlink:href="#m57796324b2" y="517.27811"/>
     <use style="fill:#2ca02c;stroke:#2ca02c;stroke-width:1.5;" x="708.48" xlink:href="#m57796324b2" y="109.0332"/>
     <use style="fill:#2ca02c;stroke:#2ca02c;stroke-width:1.5;" x="951.970909" xlink:href="#m57796324b2" y="517.27811"/>
     <use style="fill:#2ca02c;stroke:#2ca02c;stroke-width:1.5;" x="1195.461818" xlink:href="#m57796324b2" y="564.383292"/>
    </g>
   </g>
   <g id="PathCollection_7">
    <defs>
     <path d="M -3 0 
L 3 0 
M 0 3 
L 0 -3 
" id="ma267c4ec29" style="stroke:#ff7f0e;stroke-width:1.5;"/>
    </defs>
    <g clip-path="url(#p61f42315d4)">
     <use style="fill:#ff7f0e;stroke:#ff7f0e;stroke-width:1.5;" x="221.498182" xlink:href="#ma267c4ec29" y="564.383292"/>
     <use style="fill:#ff7f0e;stroke:#ff7f0e;stroke-width:1.5;" x="546.152727" xlink:href="#ma267c4ec29" y="457.242094"/>
     <use style="fill:#ff7f0e;stroke:#ff7f0e;stroke-width:1.5;" x="870.807273" xlink:href="#ma267c4ec29" y="457.242094"/>
     <use style="fill:#ff7f0e;stroke:#ff7f0e;stroke-width:1.5;" x="1195.461818" xlink:href="#ma267c4ec29" y="564.383292"/>
    </g>
   </g>
  </g>
 </g>
 <defs>
  <clipPath id="p61f42315d4">
   <rect height="541.6488" width="1071.36" x="172.8" y="84.4128"/>
  </clipPath>
 </defs>
</svg>
